<svg id="logoSvg" display="block" role="presentation" viewBox="0 0 120 29" xmlns="http://www.w3.org/2000/svg">
                    <path d="M 0 0 L 0 15.283 L 10.052 15.283 L 10.052 12.396 L 3.189 12.396 L 3.189 9.073 L 9.502 9.073 L 9.502 6.191 L 3.188 6.191 L 3.188 2.891 L 9.969 2.891 L 9.969 0 Z M 11.34 15.283 L 14.458 15.283 L 14.458 8.421 C 14.458 7.92 14.552 7.528 14.717 7.221 C 14.87 6.923 15.106 6.676 15.396 6.51 C 15.684 6.351 16.024 6.263 16.427 6.263 C 17.016 6.263 17.421 6.443 17.707 6.756 L 17.709 6.756 C 18 7.071 18.178 7.536 18.178 8.218 L 18.178 15.283 L 21.294 15.283 L 21.294 7.971 C 21.294 7.033 21.135 6.208 20.788 5.516 C 20.466 4.853 19.948 4.305 19.303 3.947 C 18.639 3.588 17.893 3.407 17.137 3.422 C 16.264 3.422 15.493 3.609 14.859 4.022 L 14.857 4.022 C 14.686 4.134 14.525 4.259 14.374 4.397 L 14.374 3.563 L 11.34 3.563 Z" fill="rgb(148, 166, 181)" height="15.283125327709092px" transform="translate(35.392 6.675)" width="21.294374198913516px"></path>
                    <path d="M 2.389 14.745 C 1.627 14.241 1.041 13.53 0.619 12.634 L 0.619 12.632 C 0.201 11.722 0 10.654 0 9.444 C 0 8.233 0.202 7.166 0.628 6.261 L 0.628 6.257 C 1.054 5.359 1.648 4.652 2.417 4.159 C 3.182 3.666 4.048 3.422 4.999 3.422 C 5.711 3.422 6.339 3.54 6.846 3.817 C 7.149 3.976 7.43 4.176 7.678 4.412 L 7.678 0 L 10.796 0 L 10.796 15.281 L 7.727 15.281 L 7.727 14.437 C 7.476 14.694 7.168 14.916 6.816 15.103 C 6.308 15.373 5.687 15.489 4.986 15.489 C 4.029 15.489 3.161 15.244 2.393 14.745 L 2.391 14.743 L 2.389 14.743 Z M 7.421 11.209 C 7.612 10.716 7.714 10.123 7.714 9.422 C 7.714 8.728 7.614 8.145 7.429 7.659 C 7.243 7.179 6.984 6.832 6.662 6.589 C 6.354 6.358 5.959 6.227 5.443 6.227 C 4.911 6.227 4.507 6.362 4.198 6.604 C 3.842 6.892 3.573 7.274 3.422 7.706 C 3.238 8.201 3.141 8.769 3.141 9.424 C 3.132 10.018 3.229 10.608 3.429 11.167 C 3.581 11.609 3.851 12 4.209 12.298 C 4.566 12.563 5.003 12.698 5.447 12.681 C 5.877 12.698 6.3 12.569 6.647 12.315 C 7.004 12.029 7.273 11.647 7.423 11.214 L 7.423 11.211 Z M 13.393 18.15 C 12.964 17.741 12.634 17.286 12.412 16.779 L 12.201 16.292 L 14.887 15.184 L 15.12 15.562 C 15.248 15.765 15.395 15.954 15.559 16.129 C 15.755 16.33 15.991 16.49 16.251 16.597 C 16.528 16.721 16.92 16.796 17.451 16.796 C 18.154 16.796 18.688 16.626 19.095 16.32 L 19.097 16.32 C 19.44 16.067 19.657 15.639 19.657 14.916 L 19.657 14.162 C 19.41 14.394 19.114 14.591 18.776 14.76 C 18.272 15.013 17.653 15.122 16.95 15.122 C 16.022 15.122 15.171 14.904 14.409 14.46 L 14.406 14.458 C 13.637 14.004 13.041 13.339 12.606 12.486 L 12.606 12.484 C 12.172 11.614 11.966 10.573 11.966 9.379 C 11.966 8.186 12.169 7.134 12.594 6.234 C 13.02 5.346 13.614 4.646 14.383 4.157 C 15.154 3.665 16.051 3.41 16.965 3.422 C 17.679 3.422 18.309 3.54 18.817 3.817 C 19.139 3.984 19.435 4.197 19.695 4.449 L 19.695 3.561 L 22.77 3.561 L 22.77 14.998 C 22.77 15.997 22.537 16.866 22.031 17.563 C 21.536 18.24 20.854 18.757 20.068 19.05 C 19.275 19.359 18.394 19.509 17.43 19.509 C 16.539 19.509 15.746 19.393 15.062 19.144 C 14.402 18.904 13.839 18.574 13.393 18.15 Z M 19.391 11.053 C 19.577 10.601 19.68 10.039 19.68 9.351 C 19.692 8.768 19.595 8.188 19.395 7.641 C 19.211 7.172 18.954 6.831 18.63 6.589 L 18.628 6.589 C 18.321 6.358 17.925 6.227 17.409 6.227 C 16.877 6.227 16.474 6.362 16.164 6.606 L 16.161 6.606 C 15.806 6.887 15.537 7.261 15.384 7.687 C 15.201 8.171 15.107 8.724 15.107 9.351 C 15.094 9.914 15.189 10.474 15.388 11.001 C 15.539 11.404 15.805 11.755 16.153 12.009 C 16.472 12.232 16.879 12.358 17.409 12.358 C 17.925 12.358 18.324 12.24 18.636 12.03 C 18.98 11.789 19.244 11.449 19.391 11.055 Z M 24.283 13.804 L 24.283 13.802 C 23.901 13.219 23.726 12.523 23.726 11.743 C 23.726 11.077 23.854 10.483 24.146 9.99 C 24.419 9.529 24.806 9.146 25.271 8.88 C 25.728 8.62 26.22 8.428 26.732 8.31 C 27.238 8.19 27.756 8.098 28.281 8.036 L 29.835 7.856 C 30.214 7.807 30.413 7.736 30.497 7.684 L 30.499 7.684 L 30.504 7.68 L 30.508 7.676 C 30.519 7.647 30.522 7.615 30.519 7.584 L 30.519 7.536 C 30.519 7.029 30.381 6.709 30.161 6.495 L 30.159 6.495 C 29.953 6.291 29.601 6.142 29.008 6.142 C 28.382 6.142 27.954 6.283 27.669 6.502 C 27.326 6.765 27.118 7.037 27.008 7.309 L 26.841 7.717 L 23.886 7.042 L 24.083 6.493 C 24.339 5.775 24.722 5.173 25.239 4.708 C 25.746 4.254 26.327 3.926 26.983 3.722 C 27.619 3.521 28.288 3.422 28.982 3.422 C 29.474 3.425 29.964 3.479 30.444 3.585 C 30.984 3.694 31.499 3.901 31.963 4.196 C 32.475 4.525 32.893 4.981 33.176 5.52 C 33.503 6.107 33.645 6.836 33.645 7.669 L 33.645 15.281 L 30.576 15.281 L 30.576 14.638 C 30.27 14.882 29.93 15.08 29.567 15.223 C 29.066 15.424 28.493 15.517 27.855 15.517 C 27.148 15.527 26.447 15.383 25.802 15.094 L 25.798 15.094 C 25.168 14.799 24.66 14.37 24.283 13.804 Z M 26.801 11.771 C 26.801 12.137 26.925 12.358 27.148 12.512 C 27.42 12.698 27.795 12.81 28.307 12.81 C 28.731 12.825 29.152 12.73 29.529 12.534 L 29.531 12.534 C 29.838 12.375 30.094 12.133 30.272 11.837 L 30.272 11.835 C 30.44 11.555 30.528 11.235 30.527 10.909 L 30.527 10.301 C 30.348 10.345 30.168 10.382 29.987 10.414 L 29.979 10.414 L 29.188 10.534 L 29.179 10.534 C 28.924 10.568 28.712 10.594 28.543 10.618 L 28.539 10.618 C 28.201 10.658 27.867 10.736 27.546 10.849 C 27.285 10.943 27.097 11.072 26.966 11.224 C 26.872 11.329 26.801 11.494 26.801 11.771 Z" fill="#0a0e1a" height="19.509374999375492px" transform="translate(57.677 6.677)" width="33.64500160217278px"></path>
                    <path d="M 3.034 0.139 L 0 0.139 L 0 11.859 L 3.118 11.859 L 3.118 4.753 C 3.118 4.346 3.201 4.011 3.353 3.731 C 3.498 3.46 3.711 3.231 3.971 3.068 C 4.215 2.912 4.499 2.831 4.789 2.833 C 5.254 2.833 5.588 2.97 5.839 3.214 C 6.084 3.454 6.223 3.776 6.223 4.239 L 6.223 11.859 L 9.336 11.859 L 9.336 4.532 C 9.336 3.988 9.487 3.591 9.763 3.289 L 9.765 3.287 C 10.022 3.002 10.395 2.833 10.958 2.833 C 11.351 2.821 11.735 2.952 12.039 3.201 C 12.27 3.39 12.441 3.737 12.441 4.372 L 12.441 11.859 L 15.559 11.859 L 15.559 4.178 C 15.559 2.873 15.231 1.8 14.481 1.061 C 13.759 0.345 12.831 0 11.743 0 C 10.896 0 10.134 0.188 9.484 0.591 C 9.109 0.816 8.778 1.106 8.507 1.449 C 8.274 1.113 7.982 0.823 7.644 0.593 C 7.057 0.186 6.351 0 5.554 0 C 4.766 0 4.057 0.188 3.454 0.585 C 3.304 0.684 3.163 0.791 3.034 0.909 Z" fill="#0a0e1a" height="11.859375px" transform="translate(92.76 10.099)" width="15.558750000000003px"></path>
                    <path d="M 2.617 11.327 C 1.774 10.819 1.123 10.106 0.667 9.201 L 0.666 9.201 C 0.217 8.289 0 7.241 0 6.069 C 0 4.909 0.217 3.866 0.667 2.948 L 0.667 2.946 C 1.118 2.031 1.755 1.307 2.58 0.782 C 3.414 0.255 4.382 0 5.458 0 C 6.113 -0.001 6.764 0.11 7.382 0.328 C 8.02 0.553 8.603 0.912 9.092 1.38 C 9.623 1.9 10.03 2.533 10.282 3.233 C 10.571 3.986 10.706 4.875 10.706 5.888 L 10.706 7.144 L 3.157 7.144 C 3.197 7.465 3.29 7.777 3.431 8.068 C 3.62 8.457 3.92 8.781 4.292 9 C 4.656 9.206 5.094 9.319 5.625 9.319 C 5.97 9.319 6.27 9.27 6.532 9.182 C 7.031 9.015 7.425 8.629 7.601 8.134 L 7.753 7.727 L 10.706 8.259 L 10.556 8.809 C 10.382 9.46 10.049 10.058 9.587 10.549 C 9.124 11.044 8.548 11.421 7.873 11.687 C 7.194 11.951 6.435 12.079 5.604 12.079 C 4.476 12.079 3.474 11.835 2.619 11.329 L 2.617 11.329 Z M 7.588 4.551 C 7.543 4.294 7.464 4.063 7.356 3.857 C 7.176 3.512 6.928 3.246 6.606 3.051 L 6.606 3.049 C 6.3 2.861 5.929 2.758 5.471 2.758 C 4.976 2.758 4.569 2.878 4.226 3.103 C 3.87 3.338 3.598 3.639 3.405 4.018 C 3.315 4.189 3.248 4.365 3.199 4.551 Z" fill="#0a0e1a" height="12.078757559142705px" transform="translate(109.294 10.097)" width="10.706250000000068px"></path>
                    <path d="M 9.774 0 L 0 0 L 0 3.491 L 9.776 3.491 L 9.776 0 Z" fill="#0a0e1a" height="3.491249999999999px" transform="translate(9.431 12.572)" width="9.77624999999989px"></path>
                    <path d="M 28.635 14.318 C 28.635 22.225 22.225 28.635 14.317 28.635 C 6.41 28.635 0 22.225 0 14.318 C 0 6.41 6.41 0 14.317 0 C 22.225 0 28.635 6.41 28.635 14.318 Z M 9.429 21.651 L 9.429 18.159 L 24.444 18.159 C 26.288 13.308 24.429 7.831 20.014 5.104 C 15.599 2.376 9.87 3.165 6.356 6.984 L 19.206 6.984 L 19.206 10.476 L 4.192 10.476 C 2.349 15.327 4.208 20.804 8.623 23.531 C 13.038 26.259 18.767 25.47 22.281 21.651 Z" fill="#0a0e1a" height="28.635px" width="28.634999999999877px"></path>
                </svg>