<svg xmlns="http://www.w3.org/2000/svg" width="944" height="1063" fill="none"><path fill="#fff" d="M944 0H0v1063h944V0z"/><path fill="url(#a)" d="M944 0H0v1063h944V0z"/><path fill="#fff" d="M340.272 150v-34.909h13.772c2.648 0 4.904.506 6.767 1.517 1.864 1 3.284 2.392 4.262 4.176.988 1.773 1.483 3.818 1.483 6.136 0 2.319-.5 4.364-1.5 6.137-1 1.773-2.449 3.153-4.347 4.142-1.886.988-4.17 1.483-6.852 1.483h-8.779v-5.915h7.586c1.42 0 2.591-.244 3.511-.733.932-.5 1.625-1.187 2.08-2.062.465-.887.698-1.904.698-3.052 0-1.159-.233-2.17-.698-3.034-.455-.875-1.148-1.551-2.08-2.028-.932-.489-2.114-.733-3.545-.733h-4.978V150h-7.38zm29.981 0v-26.182h7.04v4.568h.273c.477-1.625 1.278-2.852 2.403-3.681 1.125-.841 2.421-1.262 3.887-1.262.363 0 .755.023 1.176.068a8.3 8.3 0 0 1 1.108.188v6.443c-.341-.102-.813-.193-1.415-.273a12.793 12.793 0 0 0-1.653-.119c-1.069 0-2.023.233-2.864.699a5.135 5.135 0 0 0-1.977 1.909c-.478.818-.716 1.761-.716 2.83V150h-7.262zm29.292.511c-2.648 0-4.938-.562-6.87-1.687-1.92-1.137-3.403-2.716-4.448-4.739-1.046-2.034-1.569-4.392-1.569-7.074 0-2.704.523-5.068 1.569-7.091 1.045-2.034 2.528-3.613 4.448-4.738 1.932-1.137 4.222-1.705 6.87-1.705 2.648 0 4.932.568 6.852 1.705 1.932 1.125 3.421 2.704 4.466 4.738 1.045 2.023 1.568 4.387 1.568 7.091 0 2.682-.523 5.04-1.568 7.074-1.045 2.023-2.534 3.602-4.466 4.739-1.92 1.125-4.204 1.687-6.852 1.687zm.034-5.625c1.204 0 2.21-.341 3.017-1.022.807-.694 1.415-1.637 1.824-2.83.42-1.193.63-2.551.63-4.074 0-1.522-.21-2.88-.63-4.074-.409-1.193-1.017-2.136-1.824-2.829-.807-.693-1.813-1.04-3.017-1.04-1.216 0-2.239.347-3.068 1.04-.818.693-1.438 1.636-1.858 2.829-.409 1.194-.614 2.552-.614 4.074 0 1.523.205 2.881.614 4.074.42 1.193 1.04 2.136 1.858 2.83.829.681 1.852 1.022 3.068 1.022zm26.261 5.54c-1.988 0-3.789-.511-5.403-1.534-1.602-1.034-2.875-2.551-3.818-4.551-.932-2.011-1.398-4.477-1.398-7.398 0-3 .483-5.494 1.449-7.483.966-2 2.25-3.494 3.852-4.483 1.614-1 3.381-1.5 5.301-1.5 1.466 0 2.688.25 3.665.75.989.489 1.784 1.103 2.387 1.841.613.727 1.079 1.443 1.397 2.148h.222v-13.125h7.244V150h-7.159v-4.193h-.307c-.341.727-.824 1.449-1.449 2.165-.613.704-1.414 1.289-2.403 1.755-.977.466-2.17.699-3.58.699zm2.302-5.778c1.17 0 2.159-.318 2.966-.955.818-.648 1.443-1.551 1.875-2.71.443-1.159.664-2.517.664-4.074s-.216-2.909-.647-4.057c-.432-1.147-1.057-2.034-1.875-2.659-.819-.625-1.813-.937-2.983-.937-1.194 0-2.199.324-3.017.971-.819.648-1.438 1.546-1.858 2.693-.421 1.148-.631 2.478-.631 3.989 0 1.523.21 2.869.631 4.04.431 1.159 1.051 2.068 1.858 2.727.818.648 1.823.972 3.017.972zm34.396-5.796v-15.034h7.262V150h-6.972v-4.756h-.273a7.733 7.733 0 0 1-2.949 3.699c-1.363.932-3.028 1.398-4.994 1.398-1.75 0-3.29-.398-4.619-1.193-1.33-.796-2.37-1.926-3.12-3.392-.738-1.466-1.113-3.222-1.125-5.267v-16.671h7.262v15.375c.011 1.546.426 2.767 1.244 3.665.818.898 1.915 1.347 3.29 1.347.875 0 1.693-.199 2.454-.597.762-.409 1.375-1.011 1.841-1.807.478-.795.711-1.778.699-2.949zm23.939 11.659c-2.682 0-4.988-.568-6.92-1.704-1.921-1.148-3.398-2.739-4.432-4.773-1.023-2.034-1.534-4.375-1.534-7.023 0-2.681.517-5.034 1.551-7.056 1.046-2.035 2.528-3.62 4.449-4.756 1.92-1.148 4.204-1.722 6.852-1.722 2.284 0 4.284.415 6 1.245 1.716.829 3.074 1.994 4.074 3.494 1 1.5 1.551 3.261 1.653 5.284h-6.852c-.193-1.307-.704-2.358-1.534-3.153-.818-.807-1.892-1.211-3.222-1.211-1.124 0-2.107.307-2.948.921-.83.602-1.478 1.483-1.944 2.642-.465 1.159-.698 2.562-.698 4.21 0 1.671.227 3.091.681 4.261.466 1.171 1.12 2.063 1.961 2.677.841.613 1.824.92 2.948.92.83 0 1.574-.17 2.233-.511a4.319 4.319 0 0 0 1.654-1.483c.443-.659.733-1.449.869-2.37h6.852c-.113 2-.659 3.762-1.636 5.285-.966 1.511-2.301 2.693-4.006 3.545-1.704.852-3.721 1.278-6.051 1.278zm29.309-26.693v5.455h-15.767v-5.455h15.767zm-12.188-6.273h7.262v24.41c0 .67.102 1.193.306 1.568.205.363.489.619.853.767.375.147.807.221 1.295.221.341 0 .682-.028 1.023-.085.341-.068.602-.119.784-.153l1.142 5.403c-.364.114-.875.244-1.534.392-.659.159-1.46.256-2.403.29-1.75.068-3.285-.165-4.603-.699-1.307-.534-2.324-1.364-3.051-2.489-.727-1.125-1.085-2.545-1.074-4.261v-25.364zm31.473 15.239v5.761h-15.92v-5.761h15.92zm12.489-17.693V150h-7.261v-34.909h7.261zm16.789 35.42c-2.693 0-5.011-.545-6.955-1.636-1.931-1.102-3.42-2.659-4.466-4.67-1.045-2.023-1.568-4.415-1.568-7.177 0-2.693.523-5.056 1.568-7.09 1.046-2.035 2.518-3.62 4.415-4.756 1.909-1.137 4.148-1.705 6.716-1.705 1.727 0 3.335.279 4.824.835 1.5.546 2.807 1.37 3.92 2.472 1.125 1.102 2 2.489 2.625 4.159.625 1.659.938 3.602.938 5.83v1.994h-22.108v-4.5h15.273c0-1.045-.228-1.972-.682-2.778a4.88 4.88 0 0 0-1.892-1.892c-.796-.466-1.722-.699-2.779-.699-1.102 0-2.079.255-2.931.767-.841.5-1.5 1.176-1.978 2.028-.477.841-.721 1.779-.733 2.813v4.278c0 1.296.239 2.415.716 3.358.489.943 1.176 1.67 2.063 2.182.886.511 1.937.767 3.153.767.807 0 1.546-.114 2.216-.341a4.593 4.593 0 0 0 1.722-1.023 4.445 4.445 0 0 0 1.091-1.67l6.716.443c-.341 1.614-1.04 3.023-2.097 4.227-1.045 1.193-2.398 2.125-4.057 2.796-1.648.659-3.551.988-5.71.988zm25.443-.085c-1.988 0-3.789-.511-5.403-1.534-1.602-1.034-2.875-2.551-3.818-4.551-.932-2.011-1.398-4.477-1.398-7.398 0-3 .483-5.494 1.449-7.483.966-2 2.25-3.494 3.852-4.483 1.614-1 3.381-1.5 5.301-1.5 1.466 0 2.688.25 3.665.75.989.489 1.784 1.103 2.386 1.841.614.727 1.08 1.443 1.398 2.148h.222v-13.125h7.244V150h-7.159v-4.193h-.307c-.341.727-.824 1.449-1.449 2.165-.613.704-1.414 1.289-2.403 1.755-.977.466-2.171.699-3.58.699zm2.301-5.778c1.171 0 2.16-.318 2.966-.955.819-.648 1.444-1.551 1.875-2.71.444-1.159.665-2.517.665-4.074s-.216-2.909-.648-4.057c-.431-1.147-1.056-2.034-1.875-2.659-.818-.625-1.812-.937-2.983-.937-1.193 0-2.198.324-3.017.971-.818.648-1.437 1.546-1.858 2.693-.42 1.148-.63 2.478-.63 3.989 0 1.523.21 2.869.63 4.04.432 1.159 1.052 2.068 1.858 2.727.819.648 1.824.972 3.017.972zm-154.749 44.636-6.648.409a3.433 3.433 0 0 0-.733-1.534c-.375-.466-.869-.835-1.483-1.108-.602-.284-1.324-.426-2.164-.426-1.125 0-2.074.239-2.847.716-.773.466-1.159 1.091-1.159 1.875 0 .625.25 1.153.75 1.585.5.432 1.358.779 2.574 1.04l4.738.954c2.546.523 4.444 1.364 5.694 2.523s1.875 2.682 1.875 4.568c0 1.716-.506 3.222-1.517 4.517-1 1.296-2.375 2.307-4.125 3.035-1.739.715-3.745 1.073-6.018 1.073-3.465 0-6.227-.721-8.284-2.164-2.045-1.455-3.244-3.432-3.596-5.932l7.142-.375c.216 1.057.738 1.863 1.568 2.42.83.546 1.892.818 3.188.818 1.272 0 2.295-.244 3.068-.733.784-.5 1.182-1.142 1.193-1.926-.011-.659-.29-1.199-.835-1.619-.546-.432-1.387-.761-2.523-.989l-4.534-.903c-2.557-.511-4.46-1.398-5.71-2.659-1.239-1.262-1.858-2.869-1.858-4.824 0-1.682.454-3.131 1.363-4.347.921-1.216 2.211-2.153 3.87-2.812 1.67-.659 3.625-.989 5.863-.989 3.307 0 5.909.699 7.807 2.097 1.909 1.398 3.023 3.301 3.341 5.71zm11.675 19.21c-1.671 0-3.159-.289-4.466-.869-1.307-.591-2.341-1.46-3.102-2.608-.75-1.159-1.125-2.602-1.125-4.329 0-1.455.267-2.677.801-3.665a6.486 6.486 0 0 1 2.182-2.387c.92-.602 1.966-1.056 3.136-1.363a23.9 23.9 0 0 1 3.716-.648 94.63 94.63 0 0 0 3.682-.443c.932-.148 1.608-.364 2.028-.648.421-.284.631-.704.631-1.261v-.103c0-1.079-.341-1.914-1.023-2.505-.67-.591-1.625-.887-2.863-.887-1.307 0-2.347.29-3.12.87-.773.568-1.284 1.284-1.534 2.147l-6.716-.545c.341-1.591 1.012-2.966 2.012-4.125 1-1.17 2.289-2.068 3.869-2.693 1.591-.637 3.432-.955 5.523-.955 1.454 0 2.846.171 4.176.512 1.341.341 2.528.869 3.562 1.585a7.697 7.697 0 0 1 2.472 2.761c.602 1.114.903 2.449.903 4.006V208h-6.886v-3.631h-.205a7.38 7.38 0 0 1-1.687 2.165c-.705.614-1.551 1.097-2.54 1.449-.989.341-2.131.511-3.426.511zm2.079-5.011c1.069 0 2.012-.21 2.83-.631.818-.432 1.46-1.011 1.926-1.738.466-.728.699-1.552.699-2.472v-2.778c-.227.147-.54.284-.937.409a17.81 17.81 0 0 1-1.313.324c-.489.09-.977.176-1.466.255-.489.068-.932.131-1.329.188-.853.125-1.597.324-2.233.596-.637.273-1.131.642-1.483 1.108-.353.455-.529 1.023-.529 1.705 0 .989.358 1.744 1.074 2.267.727.511 1.648.767 2.761.767zm24.6-30.392V208h-7.261v-34.909h7.261zm16.789 35.42c-2.693 0-5.012-.545-6.955-1.636-1.932-1.102-3.42-2.659-4.466-4.67-1.045-2.023-1.568-4.415-1.568-7.177 0-2.693.523-5.056 1.568-7.09 1.046-2.035 2.517-3.62 4.415-4.756 1.909-1.137 4.148-1.705 6.716-1.705 1.727 0 3.335.279 4.824.835 1.5.546 2.807 1.37 3.92 2.472 1.125 1.102 2 2.489 2.625 4.159.625 1.659.938 3.602.938 5.83v1.994h-22.108v-4.5h15.273c0-1.045-.228-1.972-.682-2.778a4.887 4.887 0 0 0-1.892-1.892c-.796-.466-1.722-.699-2.779-.699-1.102 0-2.079.255-2.932.767-.84.5-1.5 1.176-1.977 2.028-.477.841-.721 1.779-.733 2.813v4.278c0 1.296.239 2.415.716 3.358.489.943 1.176 1.67 2.063 2.182.886.511 1.937.767 3.153.767.807 0 1.545-.114 2.216-.341a4.6 4.6 0 0 0 1.722-1.023 4.443 4.443 0 0 0 1.09-1.67l6.716.443c-.341 1.614-1.039 3.023-2.096 4.227-1.046 1.193-2.398 2.125-4.057 2.796-1.648.659-3.551.988-5.71.988zm37.579-19.227-6.647.409a3.443 3.443 0 0 0-.733-1.534c-.375-.466-.87-.835-1.483-1.108-.602-.284-1.324-.426-2.165-.426-1.125 0-2.074.239-2.847.716-.772.466-1.159 1.091-1.159 1.875 0 .625.25 1.153.75 1.585.5.432 1.358.779 2.574 1.04l4.739.954c2.545.523 4.443 1.364 5.693 2.523s1.875 2.682 1.875 4.568c0 1.716-.506 3.222-1.517 4.517-1 1.296-2.375 2.307-4.125 3.035-1.739.715-3.744 1.073-6.017 1.073-3.466 0-6.227-.721-8.284-2.164-2.046-1.455-3.244-3.432-3.597-5.932l7.142-.375c.216 1.057.739 1.863 1.569 2.42.829.546 1.892.818 3.187.818 1.273 0 2.295-.244 3.068-.733.784-.5 1.182-1.142 1.193-1.926-.011-.659-.289-1.199-.835-1.619-.545-.432-1.386-.761-2.523-.989l-4.534-.903c-2.556-.511-4.46-1.398-5.71-2.659-1.239-1.262-1.858-2.869-1.858-4.824 0-1.682.455-3.131 1.364-4.347.92-1.216 2.21-2.153 3.869-2.812 1.671-.659 3.625-.989 5.864-.989 3.307 0 5.909.699 7.807 2.097 1.909 1.398 3.022 3.301 3.34 5.71z"/><path fill="#EDF5FE" d="M330.859 458.141c.63.63 1.652.63 2.282 0l10.267-10.267a1.614 1.614 0 0 0-2.282-2.282L332 454.718l-9.126-9.126a1.614 1.614 0 0 0-2.282 2.282l10.267 10.267zM330.387 423v17.284h3.226V423h-3.226zm0 17.284v12.063h3.226v-12.063h-3.226zm0 12.063V457h3.226v-4.653h-3.226zm.472 182.794c.63.63 1.652.63 2.282 0l10.267-10.267a1.614 1.614 0 0 0-2.282-2.282L332 631.718l-9.126-9.126a1.614 1.614 0 0 0-2.282 2.282l10.267 10.267zM330.387 604v13.724h3.226V604h-3.226zm0 13.724v11.746h3.226v-11.746h-3.226zm0 11.746V634h3.226v-4.53h-3.226zm.472 182.671c.63.63 1.652.63 2.282 0l10.267-10.267a1.614 1.614 0 0 0-2.282-2.282L332 808.718l-9.126-9.126a1.614 1.614 0 0 0-2.282 2.282l10.267 10.267zM330.387 779v16.267h3.226V779h-3.226zm0 16.267v11.354h3.226v-11.354h-3.226zm0 11.354V811h3.226v-4.379h-3.226z"/><path fill="#fff" d="M452 465H211c-39.765 0-72 32.235-72 72s32.235 72 72 72h241c39.764 0 72-32.235 72-72s-32.236-72-72-72z"/><path fill="#050520" d="M300.459 549v-23.273h8.727c1.788 0 3.288.334 4.5 1 1.22.667 2.141 1.584 2.762 2.75.629 1.159.943 2.478.943 3.955 0 1.492-.314 2.818-.943 3.977-.629 1.159-1.557 2.072-2.784 2.739-1.228.659-2.739.988-4.534.988h-5.784v-3.466h5.215c1.046 0 1.902-.181 2.569-.545.666-.364 1.159-.864 1.477-1.5.326-.636.489-1.367.489-2.193 0-.826-.163-1.553-.489-2.182-.318-.629-.814-1.117-1.489-1.466-.666-.356-1.526-.534-2.579-.534h-3.864V549h-4.216zm28.944-7.818h3.819l2.261 2.932 1.614 1.909 3.875 4.977h-4.091l-2.637-3.341-1.125-1.591-3.716-4.886zm12.125-3.818c0 2.507-.469 4.655-1.409 6.443-.931 1.78-2.204 3.144-3.818 4.091-1.606.947-3.428 1.42-5.466 1.42-2.038 0-3.863-.473-5.477-1.42-1.606-.955-2.879-2.322-3.818-4.103-.932-1.787-1.398-3.931-1.398-6.431 0-2.508.466-4.652 1.398-6.432.939-1.788 2.212-3.155 3.818-4.102 1.614-.947 3.439-1.421 5.477-1.421 2.038 0 3.86.474 5.466 1.421 1.614.947 2.887 2.314 3.818 4.102.94 1.78 1.409 3.924 1.409 6.432zm-4.238 0c0-1.766-.277-3.254-.83-4.466-.545-1.22-1.303-2.14-2.272-2.762-.97-.628-2.088-.943-3.353-.943-1.265 0-2.382.315-3.352.943-.97.622-1.731 1.542-2.284 2.762-.546 1.212-.818 2.7-.818 4.466 0 1.765.272 3.257.818 4.477.553 1.212 1.314 2.132 2.284 2.761.97.621 2.087.932 3.352.932 1.265 0 2.383-.311 3.353-.932.969-.629 1.727-1.549 2.272-2.761.553-1.22.83-2.712.83-4.477zM346.964 549h-4.5l8.193-23.273h5.205L364.066 549h-4.5l-6.216-18.5h-.181l-6.205 18.5zm.148-9.125h12.273v3.386h-12.273v-3.386z"/><path fill="#fff" d="M452 288H211c-39.765 0-72 32.235-72 72s32.235 72 72 72h241c39.764 0 72-32.235 72-72s-32.236-72-72-72z"/><path fill="#050520" d="M221.419 372v-23.273h8.727c1.788 0 3.288.334 4.5 1 1.22.667 2.14 1.584 2.761 2.75.629 1.159.943 2.478.943 3.955 0 1.492-.314 2.818-.943 3.977-.629 1.159-1.557 2.072-2.784 2.739-1.227.659-2.739.988-4.534.988h-5.784v-3.466h5.216c1.045 0 1.901-.181 2.568-.545.667-.364 1.159-.864 1.477-1.5.326-.636.489-1.367.489-2.193 0-.826-.163-1.553-.489-2.182-.318-.629-.814-1.117-1.488-1.466-.667-.356-1.527-.534-2.58-.534h-3.864V372h-4.215zm20.092 0v-17.455h3.988v2.91h.182c.318-1.008.864-1.785 1.636-2.33.781-.553 1.671-.83 2.671-.83.227 0 .481.012.761.035.288.015.527.041.716.079v3.784c-.174-.06-.451-.113-.829-.159a7.655 7.655 0 0 0-1.08-.079c-.75 0-1.424.162-2.023.488a3.568 3.568 0 0 0-1.397 1.33c-.341.568-.512 1.223-.512 1.966V372h-4.113zm19.262.341c-1.705 0-3.182-.375-4.432-1.125-1.25-.75-2.22-1.799-2.909-3.148-.682-1.348-1.023-2.924-1.023-4.727 0-1.803.341-3.383 1.023-4.739.689-1.356 1.659-2.409 2.909-3.159 1.25-.75 2.727-1.125 4.432-1.125 1.704 0 3.182.375 4.432 1.125 1.25.75 2.216 1.803 2.897 3.159.69 1.356 1.035 2.936 1.035 4.739s-.345 3.379-1.035 4.727c-.681 1.349-1.647 2.398-2.897 3.148-1.25.75-2.728 1.125-4.432 1.125zm.023-3.296c.924 0 1.697-.253 2.318-.761.621-.515 1.083-1.204 1.386-2.068.311-.864.466-1.826.466-2.886 0-1.069-.155-2.035-.466-2.898-.303-.871-.765-1.565-1.386-2.08-.621-.515-1.394-.772-2.318-.772-.947 0-1.735.257-2.364.772-.621.515-1.087 1.209-1.398 2.08-.303.863-.454 1.829-.454 2.898 0 1.06.151 2.022.454 2.886.311.864.777 1.553 1.398 2.068.629.508 1.417.761 2.364.761zm17.989 3.262c-1.371 0-2.598-.352-3.682-1.057-1.083-.705-1.939-1.727-2.568-3.068s-.943-2.97-.943-4.887c0-1.939.318-3.575.955-4.909.644-1.341 1.511-2.352 2.602-3.034 1.091-.689 2.307-1.034 3.648-1.034 1.022 0 1.863.174 2.522.523.659.341 1.182.754 1.569 1.239.386.477.685.928.897 1.352h.171v-8.705h4.125V372h-4.046v-2.75h-.25c-.212.424-.519.875-.92 1.352-.402.47-.932.871-1.591 1.205-.659.333-1.489.5-2.489.5zm1.148-3.375c.871 0 1.614-.235 2.227-.705.614-.477 1.08-1.14 1.398-1.988.318-.849.477-1.837.477-2.966 0-1.129-.159-2.11-.477-2.943-.311-.834-.773-1.482-1.386-1.944-.606-.462-1.353-.693-2.239-.693-.917 0-1.682.239-2.295.716-.614.477-1.076 1.136-1.387 1.977-.31.841-.466 1.803-.466 2.887 0 1.091.156 2.064.466 2.92.318.849.784 1.519 1.398 2.012.621.484 1.382.727 2.284.727zm23.336-4.273v-10.114h4.114V372h-3.989v-3.102h-.182c-.393.977-1.041 1.776-1.943 2.397-.894.622-1.996.932-3.307.932-1.143 0-2.155-.254-3.034-.761-.871-.515-1.553-1.261-2.045-2.239-.493-.985-.739-2.174-.739-3.568v-11.114h4.114v10.478c0 1.106.303 1.985.909 2.636.606.652 1.402.977 2.386.977.606 0 1.194-.147 1.762-.443a3.576 3.576 0 0 0 1.397-1.318c.372-.591.557-1.33.557-2.216zm15.638 7.682c-1.743 0-3.239-.383-4.489-1.148-1.242-.765-2.201-1.822-2.875-3.17-.667-1.356-1-2.917-1-4.682 0-1.773.341-3.337 1.023-4.693.682-1.364 1.644-2.425 2.886-3.182 1.25-.765 2.727-1.148 4.432-1.148 1.417 0 2.67.262 3.761.784 1.099.515 1.974 1.246 2.625 2.193.652.94 1.023 2.038 1.114 3.296h-3.932c-.159-.841-.538-1.542-1.136-2.102-.591-.569-1.383-.853-2.375-.853-.841 0-1.58.228-2.216.682-.637.447-1.133 1.091-1.489 1.932-.348.841-.523 1.848-.523 3.023 0 1.189.175 2.212.523 3.068.349.848.837 1.504 1.466 1.966.636.454 1.383.682 2.239.682.606 0 1.147-.114 1.625-.341.485-.235.89-.572 1.216-1.012.325-.439.549-.973.67-1.602h3.932c-.099 1.235-.462 2.33-1.091 3.284-.629.947-1.485 1.69-2.568 2.227-1.083.531-2.356.796-3.818.796zm19.251-17.796v3.182h-10.034v-3.182h10.034zm-7.557-4.181h4.113v16.386c0 .553.084.977.25 1.273.175.288.402.485.682.591.281.106.591.159.932.159.258 0 .493-.019.705-.057.219-.038.386-.072.5-.102l.693 3.216c-.22.075-.534.159-.943.25-.402.09-.894.143-1.478.159-1.03.03-1.958-.125-2.784-.466a4.341 4.341 0 0 1-1.966-1.614c-.477-.727-.712-1.636-.704-2.727v-17.068zm33.147-1.637h4.216v15.205c0 1.666-.394 3.132-1.182 4.398-.78 1.265-1.879 2.253-3.296 2.965-1.416.705-3.072 1.057-4.965 1.057-1.902 0-3.561-.352-4.978-1.057-1.416-.712-2.515-1.7-3.295-2.965-.781-1.266-1.171-2.732-1.171-4.398v-15.205h4.216v14.853c0 .969.212 1.833.637 2.59a4.618 4.618 0 0 0 1.818 1.785c.78.424 1.704.636 2.773.636 1.068 0 1.992-.212 2.772-.636a4.528 4.528 0 0 0 1.818-1.785c.425-.757.637-1.621.637-2.59v-14.853zm22.092 10.432-3.75.409a3.01 3.01 0 0 0-.557-1.068 2.774 2.774 0 0 0-1.046-.807c-.439-.204-.977-.307-1.613-.307-.856 0-1.576.186-2.159.557-.576.371-.86.852-.853 1.443-.007.508.178.921.557 1.239.387.318 1.023.58 1.909.784l2.978.636c1.651.357 2.878.921 3.681 1.694.811.772 1.22 1.784 1.228 3.034-.008 1.098-.33 2.068-.966 2.909-.629.833-1.504 1.485-2.625 1.954-1.121.47-2.409.705-3.864.705-2.136 0-3.856-.447-5.159-1.341-1.303-.902-2.079-2.155-2.329-3.761l4.011-.387c.182.788.568 1.383 1.159 1.784.591.402 1.36.603 2.307.603.977 0 1.761-.201 2.352-.603.599-.401.898-.897.898-1.488 0-.5-.193-.913-.58-1.239-.379-.326-.969-.576-1.772-.75l-2.978-.625c-1.674-.348-2.913-.936-3.716-1.761-.803-.834-1.2-1.887-1.193-3.159-.007-1.076.284-2.008.875-2.796.599-.795 1.428-1.409 2.489-1.841 1.068-.439 2.299-.659 3.693-.659 2.045 0 3.655.436 4.83 1.307 1.181.871 1.912 2.049 2.193 3.534zm8.469 13.193c-1.106 0-2.102-.197-2.988-.591a4.872 4.872 0 0 1-2.091-1.772c-.508-.781-.761-1.743-.761-2.887 0-.985.181-1.799.545-2.443a4.219 4.219 0 0 1 1.489-1.545 7.48 7.48 0 0 1 2.125-.875 17.208 17.208 0 0 1 2.466-.444c1.022-.106 1.852-.2 2.488-.284.637-.091 1.099-.227 1.387-.409.295-.189.443-.481.443-.875v-.068c0-.856-.254-1.519-.762-1.989-.507-.469-1.238-.704-2.193-.704-1.007 0-1.807.22-2.398.659-.583.439-.977.958-1.181 1.557l-3.841-.546c.303-1.06.803-1.947 1.5-2.659.697-.719 1.549-1.257 2.557-1.613 1.007-.364 2.121-.546 3.34-.546.841 0 1.679.099 2.512.296a7.055 7.055 0 0 1 2.284.977c.689.447 1.242 1.057 1.659 1.829.424.773.636 1.739.636 2.898V372h-3.954v-2.398h-.137c-.25.485-.602.94-1.056 1.364-.447.417-1.012.754-1.694 1.011-.674.25-1.465.375-2.375.375zm1.069-3.022c.825 0 1.541-.163 2.147-.489.606-.333 1.072-.773 1.398-1.318.333-.546.5-1.14.5-1.784v-2.057c-.129.106-.348.204-.659.295a9.255 9.255 0 0 1-1.023.239 31.26 31.26 0 0 1-1.125.182l-.966.136a7.19 7.19 0 0 0-1.647.409c-.485.19-.868.455-1.148.796-.28.333-.421.765-.421 1.295 0 .758.277 1.33.83 1.716.553.386 1.258.58 2.114.58zm19.555 9.579c-1.478 0-2.747-.201-3.807-.602-1.061-.394-1.913-.924-2.557-1.591-.644-.667-1.091-1.405-1.341-2.216l3.705-.898c.166.341.409.678.727 1.012.318.341.746.621 1.284.841.545.227 1.231.34 2.057.34 1.167 0 2.132-.284 2.898-.852.765-.56 1.147-1.485 1.147-2.773v-3.306h-.204c-.212.424-.523.859-.932 1.306-.402.447-.936.822-1.602 1.125-.659.303-1.489.455-2.489.455-1.341 0-2.557-.314-3.648-.943-1.083-.637-1.947-1.584-2.591-2.841-.636-1.265-.954-2.849-.954-4.75 0-1.917.318-3.534.954-4.852.644-1.326 1.512-2.33 2.603-3.012 1.091-.689 2.306-1.034 3.647-1.034 1.023 0 1.864.174 2.523.523.667.341 1.197.754 1.591 1.239.394.477.693.928.898 1.352h.227v-2.887h4.057v17.739c0 1.493-.356 2.727-1.068 3.705-.712.977-1.686 1.708-2.921 2.193-1.235.485-2.636.727-4.204.727zm.034-10.386c.871 0 1.613-.212 2.227-.637.614-.424 1.08-1.034 1.398-1.829.318-.796.477-1.75.477-2.864 0-1.098-.159-2.06-.477-2.886-.311-.826-.773-1.466-1.387-1.921-.606-.462-1.352-.693-2.238-.693-.917 0-1.682.239-2.296.716-.613.477-1.075 1.133-1.386 1.966-.311.826-.466 1.765-.466 2.818 0 1.068.155 2.004.466 2.807.318.795.784 1.417 1.398 1.864.621.439 1.382.659 2.284.659zm19.782 3.818c-1.75 0-3.261-.364-4.534-1.091-1.265-.735-2.239-1.773-2.92-3.114-.682-1.348-1.023-2.935-1.023-4.761 0-1.795.341-3.371 1.023-4.727.689-1.364 1.651-2.425 2.886-3.182 1.235-.765 2.685-1.148 4.352-1.148 1.076 0 2.091.174 3.046.523.962.341 1.81.871 2.545 1.591.742.72 1.326 1.636 1.75 2.75.424 1.106.636 2.424.636 3.954v1.262h-14.306v-2.773h10.363c-.007-.788-.178-1.489-.511-2.102a3.714 3.714 0 0 0-1.398-1.466c-.591-.356-1.28-.534-2.068-.534-.841 0-1.58.204-2.216.613a4.236 4.236 0 0 0-1.489 1.591 4.592 4.592 0 0 0-.534 2.148v2.42c0 1.016.186 1.887.557 2.614.371.72.89 1.273 1.557 1.659.667.379 1.447.568 2.341.568a4.97 4.97 0 0 0 1.625-.25 3.603 3.603 0 0 0 1.261-.761c.356-.333.625-.746.807-1.239l3.841.432a5.989 5.989 0 0 1-1.386 2.659c-.675.75-1.538 1.334-2.591 1.75-1.053.409-2.258.614-3.614.614z"/><path fill="#fff" d="M452 642H211c-39.765 0-72 32.235-72 72s32.235 72 72 72h241c39.764 0 72-32.235 72-72s-32.236-72-72-72z"/><path fill="#050520" d="M298.147 702.727h5.159l6.909 16.864h.273l6.909-16.864h5.159V726h-4.046v-15.989h-.216l-6.431 15.921h-3.023l-6.432-15.955h-.216V726h-4.045v-23.273zm37.35 15.455h3.818l2.262 2.932 1.613 1.909 3.875 4.977h-4.091l-2.636-3.341-1.125-1.591-3.716-4.886zm12.125-3.818c0 2.507-.47 4.655-1.409 6.443-.932 1.78-2.204 3.144-3.818 4.091-1.606.947-3.428 1.42-5.466 1.42-2.038 0-3.864-.473-5.477-1.42-1.606-.955-2.879-2.322-3.818-4.103-.932-1.787-1.398-3.931-1.398-6.431 0-2.508.466-4.652 1.398-6.432.939-1.788 2.212-3.155 3.818-4.102 1.613-.947 3.439-1.421 5.477-1.421 2.038 0 3.86.474 5.466 1.421 1.614.947 2.886 2.314 3.818 4.102.939 1.78 1.409 3.924 1.409 6.432zm-4.238 0c0-1.766-.277-3.254-.83-4.466-.545-1.22-1.303-2.14-2.273-2.762-.969-.628-2.087-.943-3.352-.943-1.265 0-2.383.315-3.352.943-.97.622-1.731 1.542-2.284 2.762-.546 1.212-.819 2.7-.819 4.466 0 1.765.273 3.257.819 4.477.553 1.212 1.314 2.132 2.284 2.761.969.621 2.087.932 3.352.932 1.265 0 2.383-.311 3.352-.932.97-.629 1.728-1.549 2.273-2.761.553-1.22.83-2.712.83-4.477zM351.319 726v-23.273h4.216v19.739h10.25V726h-14.466z"/><path fill="#fff" d="M452 819H211c-39.765 0-72 32.235-72 72s32.235 72 72 72h241c39.764 0 72-32.235 72-72s-32.236-72-72-72z"/><path fill="#050520" d="M314.904 886.125c-.106-.992-.553-1.765-1.341-2.318-.78-.553-1.796-.83-3.046-.83-.878 0-1.632.133-2.261.398-.629.265-1.11.625-1.443 1.08a2.62 2.62 0 0 0-.511 1.556c0 .485.109.906.329 1.262.227.356.534.659.921.909.386.242.814.447 1.284.613.469.167.943.307 1.42.421l2.182.545c.879.205 1.723.481 2.534.83a8.928 8.928 0 0 1 2.193 1.318 5.846 5.846 0 0 1 1.546 1.921c.378.75.568 1.628.568 2.636 0 1.364-.349 2.564-1.046 3.602-.697 1.03-1.704 1.837-3.022 2.421-1.311.575-2.898.863-4.762.863-1.81 0-3.382-.28-4.716-.841-1.325-.56-2.363-1.378-3.113-2.454-.743-1.076-1.144-2.387-1.205-3.932h4.148c.061.811.311 1.485.75 2.023s1.011.939 1.716 1.204c.712.265 1.507.398 2.386.398.917 0 1.72-.136 2.409-.409.697-.28 1.243-.667 1.637-1.159.394-.5.594-1.084.602-1.75-.008-.606-.186-1.106-.534-1.5-.349-.402-.837-.735-1.466-1a14.093 14.093 0 0 0-2.182-.727l-2.648-.682c-1.916-.493-3.431-1.239-4.545-2.239-1.106-1.007-1.659-2.345-1.659-4.011 0-1.371.371-2.572 1.113-3.603.75-1.03 1.769-1.829 3.057-2.397 1.288-.576 2.746-.864 4.375-.864 1.652 0 3.099.288 4.341.864 1.25.568 2.231 1.36 2.943 2.375.712 1.007 1.08 2.166 1.103 3.477h-4.057zm16.484 9.057h3.818l2.261 2.932 1.614 1.909 3.875 4.977h-4.091l-2.636-3.341-1.125-1.591-3.716-4.886zm12.125-3.818c0 2.507-.47 4.655-1.409 6.443-.932 1.78-2.205 3.144-3.818 4.091-1.607.947-3.429 1.42-5.466 1.42-2.038 0-3.864-.473-5.478-1.42-1.606-.955-2.878-2.322-3.818-4.103-.932-1.787-1.398-3.931-1.398-6.431 0-2.508.466-4.652 1.398-6.432.94-1.788 2.212-3.155 3.818-4.102 1.614-.947 3.44-1.421 5.478-1.421 2.037 0 3.859.474 5.466 1.421 1.613.947 2.886 2.314 3.818 4.102.939 1.78 1.409 3.924 1.409 6.432zm-4.239 0c0-1.766-.276-3.254-.829-4.466-.546-1.22-1.303-2.14-2.273-2.762-.97-.628-2.087-.943-3.352-.943-1.266 0-2.383.315-3.353.943-.969.622-1.731 1.542-2.284 2.762-.545 1.212-.818 2.7-.818 4.466 0 1.765.273 3.257.818 4.477.553 1.212 1.315 2.132 2.284 2.761.97.621 2.087.932 3.353.932 1.265 0 2.382-.311 3.352-.932.97-.629 1.727-1.549 2.273-2.761.553-1.22.829-2.712.829-4.477zM347.21 903v-23.273h4.216v19.739h10.25V903H347.21z"/><path fill="#fff" d="M624.086 335.64h3.162v11.403c0 1.25-.296 2.35-.887 3.298-.585.949-1.409 1.691-2.471 2.225-1.063.528-2.304.792-3.725.792-1.426 0-2.67-.264-3.733-.792-1.062-.534-1.886-1.276-2.471-2.225-.585-.948-.878-2.048-.878-3.298V335.64h3.162v11.139c0 .727.159 1.375.477 1.943a3.476 3.476 0 0 0 1.364 1.338c.585.318 1.278.477 2.079.477.801 0 1.495-.159 2.08-.477a3.396 3.396 0 0 0 1.363-1.338c.319-.568.478-1.216.478-1.943V335.64zm16.569 7.824-2.813.306a2.264 2.264 0 0 0-.417-.801 2.09 2.09 0 0 0-.784-.605c-.33-.153-.733-.23-1.211-.23-.642 0-1.182.139-1.619.418-.432.278-.645.639-.639 1.082-.006.381.133.69.417.929.29.239.767.435 1.432.588l2.233.477c1.239.267 2.159.691 2.762 1.27.607.58.914 1.338.92 2.276-.006.824-.247 1.551-.724 2.182-.472.625-1.128 1.113-1.969 1.466-.841.352-1.807.528-2.898.528-1.602 0-2.892-.335-3.869-1.006-.978-.676-1.56-1.616-1.747-2.821l3.008-.29c.136.591.426 1.037.869 1.339.444.301 1.02.451 1.731.451.732 0 1.321-.15 1.764-.451.449-.302.673-.674.673-1.117 0-.375-.145-.685-.435-.929-.284-.244-.727-.432-1.329-.562l-2.233-.469c-1.256-.262-2.185-.702-2.787-1.321-.602-.625-.901-1.415-.895-2.37-.006-.806.213-1.505.656-2.096.449-.597 1.071-1.057 1.867-1.381.801-.329 1.724-.494 2.77-.494 1.534 0 2.741.327 3.622.98.886.653 1.434 1.537 1.645 2.651zm8.38 9.886c-1.312 0-2.446-.273-3.4-.818a5.54 5.54 0 0 1-2.19-2.335c-.512-1.012-.767-2.202-.767-3.572 0-1.346.255-2.528.767-3.545.517-1.023 1.238-1.818 2.164-2.386.926-.574 2.015-.861 3.265-.861a6.62 6.62 0 0 1 2.284.392 5.166 5.166 0 0 1 1.909 1.193c.557.54.994 1.227 1.312 2.063.318.829.477 1.818.477 2.966v.946h-10.73v-2.08h7.773c-.006-.591-.133-1.116-.383-1.577-.25-.466-.6-.832-1.049-1.099-.443-.267-.96-.401-1.551-.401-.631 0-1.185.154-1.662.461a3.165 3.165 0 0 0-1.116 1.193 3.426 3.426 0 0 0-.401 1.61v1.816c0 .761.139 1.415.418 1.96.278.54.667.955 1.167 1.244.5.284 1.086.427 1.756.427.449 0 .855-.063 1.219-.188.363-.131.679-.321.946-.571.267-.25.469-.56.605-.929l2.881.324a4.497 4.497 0 0 1-1.04 1.994c-.506.563-1.154 1-1.943 1.313-.79.307-1.693.46-2.711.46zm8.192-.256v-13.091h2.991v2.182h.136c.239-.756.648-1.338 1.228-1.747a3.376 3.376 0 0 1 2.003-.622c.17 0 .36.008.571.025.215.012.394.032.536.06v2.838a3.267 3.267 0 0 0-.622-.119 5.683 5.683 0 0 0-.809-.06 3.11 3.11 0 0 0-1.517.367 2.676 2.676 0 0 0-1.049.997c-.255.426-.383.917-.383 1.474v7.696h-3.085zm25.335-9.63-2.813.306a2.248 2.248 0 0 0-.417-.801 2.082 2.082 0 0 0-.784-.605c-.33-.153-.733-.23-1.211-.23-.642 0-1.181.139-1.619.418-.432.278-.645.639-.639 1.082-.006.381.133.69.418.929.289.239.767.435 1.431.588l2.233.477c1.239.267 2.159.691 2.762 1.27.608.58.914 1.338.92 2.276-.006.824-.247 1.551-.724 2.182-.472.625-1.128 1.113-1.969 1.466-.841.352-1.807.528-2.898.528-1.602 0-2.892-.335-3.869-1.006-.977-.676-1.56-1.616-1.747-2.821l3.008-.29c.137.591.426 1.037.87 1.339.443.301 1.019.451 1.73.451.733 0 1.321-.15 1.764-.451.449-.302.673-.674.673-1.117 0-.375-.145-.685-.434-.929-.285-.244-.728-.432-1.33-.562l-2.233-.469c-1.256-.262-2.185-.702-2.787-1.321-.602-.625-.9-1.415-.895-2.37-.005-.806.213-1.505.656-2.096.449-.597 1.072-1.057 1.867-1.381.801-.329 1.724-.494 2.77-.494 1.534 0 2.741.327 3.622.98.886.653 1.435 1.537 1.645 2.651zm9.122-3.461v2.387h-7.525v-2.387h7.525zm-5.667-3.136h3.085v12.29c0 .415.062.733.187.954.131.216.301.364.512.443.21.08.443.12.698.12.194 0 .37-.014.529-.043.165-.028.29-.054.375-.077l.52 2.412c-.165.057-.401.12-.708.188-.301.068-.67.108-1.108.119-.772.023-1.468-.094-2.088-.349a3.257 3.257 0 0 1-1.474-1.21c-.358-.546-.534-1.228-.528-2.046v-12.801zm11.774 16.491c-.829 0-1.576-.147-2.241-.443a3.655 3.655 0 0 1-1.568-1.329c-.381-.586-.571-1.307-.571-2.165 0-.739.136-1.349.409-1.832.273-.483.645-.87 1.116-1.16a5.667 5.667 0 0 1 1.594-.656 13.006 13.006 0 0 1 1.849-.332c.768-.08 1.39-.151 1.867-.213.477-.068.824-.171 1.04-.307.221-.142.332-.361.332-.656v-.051c0-.642-.19-1.14-.571-1.492-.381-.352-.929-.528-1.645-.528-.755 0-1.355.164-1.798.494-.438.33-.733.719-.886 1.168l-2.881-.409c.227-.796.602-1.461 1.125-1.995a4.895 4.895 0 0 1 1.917-1.21c.756-.273 1.591-.409 2.506-.409.631 0 1.259.074 1.884.221a5.325 5.325 0 0 1 1.713.733c.517.336.932.793 1.244 1.373.318.579.477 1.304.477 2.173v8.761h-2.966v-1.798h-.102a3.78 3.78 0 0 1-.792 1.023c-.336.312-.759.565-1.27.758-.506.188-1.1.281-1.782.281zm.802-2.267c.619 0 1.156-.122 1.61-.366.455-.25.804-.58 1.049-.989.25-.409.375-.855.375-1.338v-1.542c-.097.079-.262.153-.495.221a6.996 6.996 0 0 1-.767.179c-.284.051-.565.097-.843.137l-.725.102c-.46.062-.872.165-1.236.307-.363.142-.65.341-.86.596-.211.25-.316.574-.316.972 0 .568.208.997.622 1.287.415.29.944.434 1.586.434zm8.973 2.003v-13.091h2.991v2.182h.136c.239-.756.648-1.338 1.228-1.747a3.376 3.376 0 0 1 2.003-.622c.17 0 .36.008.571.025.216.012.394.032.537.06v2.838a3.298 3.298 0 0 0-.623-.119 5.683 5.683 0 0 0-.809-.06c-.563 0-1.068.122-1.517.367a2.676 2.676 0 0 0-1.049.997c-.255.426-.383.917-.383 1.474v7.696h-3.085zm16.515-13.091v2.387h-7.525v-2.387h7.525zm-5.667-3.136h3.085v12.29c0 .415.062.733.187.954.131.216.302.364.512.443.21.08.443.12.699.12.193 0 .369-.014.528-.043.165-.028.29-.054.375-.077l.52 2.412a6.83 6.83 0 0 1-.707.188 5.793 5.793 0 0 1-1.108.119c-.773.023-1.469-.094-2.088-.349a3.254 3.254 0 0 1-1.475-1.21c-.358-.546-.534-1.228-.528-2.046v-12.801zm18.167 6.597-2.813.306a2.264 2.264 0 0 0-.417-.801 2.086 2.086 0 0 0-.785-.605c-.329-.153-.733-.23-1.21-.23-.642 0-1.182.139-1.619.418-.432.278-.645.639-.639 1.082-.006.381.133.69.417.929.29.239.767.435 1.432.588l2.233.477c1.239.267 2.159.691 2.761 1.27.608.58.915 1.338.921 2.276-.006.824-.247 1.551-.725 2.182-.471.625-1.127 1.113-1.968 1.466-.841.352-1.807.528-2.898.528-1.602 0-2.892-.335-3.869-1.006-.978-.676-1.56-1.616-1.747-2.821l3.008-.29c.136.591.426 1.037.869 1.339.444.301 1.02.451 1.73.451.733 0 1.321-.15 1.765-.451.449-.302.673-.674.673-1.117 0-.375-.145-.685-.435-.929-.284-.244-.727-.432-1.329-.562l-2.233-.469c-1.256-.262-2.185-.702-2.787-1.321-.602-.625-.901-1.415-.895-2.37-.006-.806.213-1.505.656-2.096.449-.597 1.071-1.057 1.867-1.381.801-.329 1.724-.494 2.77-.494 1.534 0 2.741.327 3.622.98.886.653 1.434 1.537 1.645 2.651zm14.008 9.886c-1.278 0-2.386-.281-3.324-.844-.937-.562-1.664-1.349-2.181-2.361-.512-1.011-.767-2.193-.767-3.545 0-1.352.255-2.537.767-3.554.517-1.017 1.244-1.807 2.181-2.369.938-.563 2.046-.844 3.324-.844 1.279 0 2.387.281 3.324.844.938.562 1.662 1.352 2.173 2.369.517 1.017.776 2.202.776 3.554 0 1.352-.259 2.534-.776 3.545-.511 1.012-1.235 1.799-2.173 2.361-.937.563-2.045.844-3.324.844zm.017-2.472c.694 0 1.273-.19 1.739-.571.466-.386.812-.903 1.04-1.551.233-.648.349-1.369.349-2.165 0-.801-.116-1.525-.349-2.173-.228-.653-.574-1.173-1.04-1.56-.466-.386-1.045-.579-1.739-.579-.71 0-1.301.193-1.772.579-.466.387-.816.907-1.049 1.56-.227.648-.341 1.372-.341 2.173 0 .796.114 1.517.341 2.165.233.648.583 1.165 1.049 1.551.471.381 1.062.571 1.772.571zm15.265-10.875v2.387h-7.738v-2.387h7.738zm-5.804 13.091v-14.326c0-.881.182-1.614.546-2.199a3.443 3.443 0 0 1 1.483-1.313c.619-.29 1.307-.434 2.062-.434.534 0 1.009.042 1.424.127.414.086.721.162.92.23l-.614 2.387c-.13-.04-.295-.08-.494-.119a2.954 2.954 0 0 0-.665-.069c-.574 0-.98.14-1.218.418-.233.273-.35.665-.35 1.176v14.122h-3.094zm14.611-13.091v2.387h-7.738v-2.387h7.738zm-5.804 13.091v-14.326c0-.881.182-1.614.546-2.199a3.443 3.443 0 0 1 1.483-1.313c.619-.29 1.306-.434 2.062-.434a7.13 7.13 0 0 1 1.423.127c.415.086.722.162.921.23l-.614 2.387c-.13-.04-.295-.08-.494-.119a2.96 2.96 0 0 0-.665-.069c-.574 0-.98.14-1.219.418-.233.273-.349.665-.349 1.176v14.122h-3.094zm-131.944 32v-13.091h3.085v13.091h-3.085zm1.551-14.949c-.489 0-.909-.162-1.262-.485-.352-.33-.528-.725-.528-1.185 0-.466.176-.861.528-1.185a1.787 1.787 0 0 1 1.262-.494c.494 0 .915.165 1.261.494.352.324.529.719.529 1.185 0 .46-.177.855-.529 1.185a1.782 1.782 0 0 1-1.261.485zm7.552 7.279v7.67h-3.085v-13.091h2.948v2.225h.154a3.736 3.736 0 0 1 1.44-1.747c.665-.432 1.486-.648 2.463-.648.904 0 1.691.193 2.361.579a3.906 3.906 0 0 1 1.568 1.679c.375.733.56 1.623.554 2.668v8.335h-3.085v-7.858c0-.875-.227-1.559-.682-2.054-.449-.494-1.071-.741-1.866-.741-.54 0-1.02.119-1.441.358a2.49 2.49 0 0 0-.98 1.014c-.233.443-.349.98-.349 1.611zm17.013 12.579v-18h3.034v2.165h.179c.159-.318.383-.656.673-1.014.29-.364.682-.673 1.176-.929.494-.261 1.125-.392 1.892-.392 1.012 0 1.923.258 2.736.775.818.512 1.466 1.27 1.943 2.276.483 1 .725 2.227.725 3.682 0 1.437-.236 2.659-.708 3.665-.471 1.005-1.113 1.772-1.926 2.301-.812.528-1.733.792-2.761.792-.75 0-1.372-.125-1.867-.375-.494-.25-.892-.551-1.193-.903a5.835 5.835 0 0 1-.69-1.014h-.128v6.971h-3.085zm3.025-11.454c0 .846.12 1.588.358 2.224.244.637.594 1.134 1.048 1.492.461.352 1.017.528 1.671.528.682 0 1.253-.182 1.713-.545.46-.37.807-.873 1.04-1.509.238-.642.358-1.372.358-2.19 0-.813-.117-1.534-.35-2.165-.233-.631-.579-1.125-1.04-1.483-.46-.358-1.034-.537-1.721-.537-.659 0-1.219.173-1.679.52-.46.347-.81.832-1.048 1.457-.233.625-.35 1.361-.35 2.208zm11.735 6.545v-13.091h2.991v2.182h.136c.239-.756.648-1.338 1.228-1.747a3.376 3.376 0 0 1 2.003-.622c.17 0 .36.008.571.025.216.012.394.032.537.06v2.838a3.298 3.298 0 0 0-.623-.119 5.683 5.683 0 0 0-.809-.06c-.563 0-1.068.122-1.517.367a2.676 2.676 0 0 0-1.049.997c-.255.426-.383.917-.383 1.474v7.696h-3.085zm14.446.256c-1.278 0-2.386-.281-3.323-.844-.938-.562-1.665-1.349-2.182-2.361-.512-1.011-.767-2.193-.767-3.545 0-1.352.255-2.537.767-3.554.517-1.017 1.244-1.807 2.182-2.369.937-.563 2.045-.844 3.323-.844 1.279 0 2.387.281 3.324.844.938.562 1.662 1.352 2.174 2.369.517 1.017.775 2.202.775 3.554 0 1.352-.258 2.534-.775 3.545-.512 1.012-1.236 1.799-2.174 2.361-.937.563-2.045.844-3.324.844zm.017-2.472c.694 0 1.273-.19 1.739-.571.466-.386.813-.903 1.04-1.551.233-.648.349-1.369.349-2.165 0-.801-.116-1.525-.349-2.173-.227-.653-.574-1.173-1.04-1.56-.466-.386-1.045-.579-1.739-.579-.71 0-1.301.193-1.772.579-.466.387-.816.907-1.049 1.56-.227.648-.34 1.372-.34 2.173 0 .796.113 1.517.34 2.165.233.648.583 1.165 1.049 1.551.471.381 1.062.571 1.772.571zm13.493 2.446c-1.029 0-1.949-.264-2.762-.792-.812-.529-1.454-1.296-1.926-2.301-.471-1.006-.707-2.228-.707-3.665 0-1.455.238-2.682.716-3.682.483-1.006 1.133-1.764 1.951-2.276a5.02 5.02 0 0 1 2.736-.775c.767 0 1.398.131 1.892.392.495.256.887.565 1.176.929.29.358.515.696.674 1.014h.128v-6.528h3.093v17.454h-3.034v-2.062h-.187a5.24 5.24 0 0 1-.691 1.014c-.301.352-.698.653-1.193.903-.494.25-1.116.375-1.866.375zm.861-2.531c.653 0 1.21-.176 1.67-.528.46-.358.81-.855 1.048-1.492.239-.636.358-1.378.358-2.224 0-.847-.119-1.583-.358-2.208-.233-.625-.579-1.11-1.04-1.457-.454-.347-1.014-.52-1.678-.52-.688 0-1.262.179-1.722.537-.46.358-.807.852-1.04 1.483-.233.631-.349 1.352-.349 2.165 0 .818.116 1.548.349 2.19.239.636.588 1.139 1.048 1.509.466.363 1.037.545 1.714.545zm17.502-3.204v-7.586h3.085v13.091h-2.992v-2.326h-.136a3.938 3.938 0 0 1-1.457 1.798c-.671.466-1.497.699-2.48.699-.858 0-1.617-.191-2.276-.571-.653-.387-1.165-.946-1.534-1.679-.369-.739-.554-1.631-.554-2.676v-8.336h3.085v7.858c0 .83.227 1.489.682 1.978.455.488 1.051.733 1.79.733.454 0 .895-.111 1.321-.333a2.682 2.682 0 0 0 1.048-.989c.278-.443.418-.997.418-1.661zm11.728 5.761c-1.307 0-2.429-.287-3.367-.861a5.746 5.746 0 0 1-2.156-2.378c-.5-1.017-.75-2.187-.75-3.511 0-1.33.256-2.503.767-3.52.511-1.023 1.233-1.818 2.165-2.386.937-.574 2.045-.861 3.324-.861 1.062 0 2.003.196 2.821.588.824.386 1.48.935 1.968 1.645.489.704.768 1.528.836 2.471h-2.949a2.821 2.821 0 0 0-.852-1.576c-.444-.426-1.037-.639-1.782-.639-.63 0-1.184.17-1.662.511-.477.335-.849.818-1.116 1.449-.261.63-.392 1.386-.392 2.267 0 .892.131 1.659.392 2.301.261.636.628 1.128 1.099 1.474.478.341 1.037.512 1.679.512.455 0 .861-.086 1.219-.256.364-.176.668-.429.912-.758.244-.33.412-.731.503-1.202h2.949c-.074.926-.347 1.747-.818 2.463-.472.71-1.114 1.267-1.927 1.67-.812.398-1.767.597-2.863.597zm14.438-13.347v2.387h-7.526v-2.387h7.526zm-5.668-3.136h3.086v12.29c0 .415.062.733.187.954.131.216.301.364.511.443.211.08.444.12.699.12.194 0 .37-.014.529-.043.165-.028.29-.054.375-.077l.52 2.412c-.165.057-.401.12-.708.188-.301.068-.67.108-1.108.119-.772.023-1.468-.094-2.088-.349a3.252 3.252 0 0 1-1.474-1.21c-.358-.546-.534-1.228-.529-2.046v-12.801z"/><path fill="#fff" fill-opacity=".1" d="M799 314H586a6 6 0 0 0-6 6v80a6 6 0 0 0 6 6h213a6 6 0 0 0 6-6v-80a6 6 0 0 0-6-6z"/><path fill="#fff" d="M613.338 530.094V512.64h6.545c1.341 0 2.466.25 3.375.75.915.5 1.605 1.187 2.071 2.062.472.87.708 1.858.708 2.966 0 1.119-.236 2.114-.708 2.983-.471.869-1.167 1.554-2.088 2.054-.92.494-2.054.742-3.4.742h-4.338v-2.6h3.912c.784 0 1.426-.136 1.926-.409.5-.273.869-.648 1.108-1.125.244-.477.366-1.026.366-1.645s-.122-1.165-.366-1.636c-.239-.472-.611-.838-1.117-1.1-.5-.267-1.145-.4-1.934-.4H616.5v14.812h-3.162zm15.069 0v-13.091h2.991v2.182h.137c.238-.756.647-1.338 1.227-1.747a3.376 3.376 0 0 1 2.003-.622c.17 0 .361.008.571.025a4 4 0 0 1 .537.06v2.838a3.283 3.283 0 0 0-.622-.119 5.708 5.708 0 0 0-.81-.06c-.563 0-1.068.122-1.517.367a2.674 2.674 0 0 0-1.048.997c-.256.426-.384.917-.384 1.474v7.696h-3.085zm14.447.256c-1.279 0-2.387-.281-3.324-.844-.938-.562-1.665-1.349-2.182-2.361-.511-1.011-.767-2.193-.767-3.545 0-1.352.256-2.537.767-3.554.517-1.017 1.244-1.807 2.182-2.369.937-.563 2.045-.844 3.324-.844 1.278 0 2.386.281 3.324.844.937.562 1.661 1.352 2.173 2.369.517 1.017.775 2.202.775 3.554 0 1.352-.258 2.534-.775 3.545-.512 1.012-1.236 1.799-2.173 2.361-.938.563-2.046.844-3.324.844zm.017-2.472c.693 0 1.272-.19 1.738-.571.466-.386.813-.903 1.04-1.551.233-.648.35-1.369.35-2.165 0-.801-.117-1.525-.35-2.173-.227-.653-.574-1.173-1.04-1.56-.466-.386-1.045-.579-1.738-.579-.711 0-1.301.193-1.773.579-.466.387-.815.907-1.048 1.56-.228.648-.341 1.372-.341 2.173 0 .796.113 1.517.341 2.165.233.648.582 1.165 1.048 1.551.472.381 1.062.571 1.773.571zm13.492 2.446c-1.028 0-1.949-.264-2.761-.792-.813-.529-1.455-1.296-1.927-2.301-.471-1.006-.707-2.228-.707-3.665 0-1.455.239-2.682.716-3.682.483-1.006 1.133-1.764 1.952-2.276a5.014 5.014 0 0 1 2.735-.775c.768 0 1.398.131 1.893.392.494.256.886.565 1.176.929.289.358.514.696.673 1.014h.128v-6.528h3.094v17.454H660.3v-2.062h-.187a5.277 5.277 0 0 1-.69 1.014c-.302.352-.699.653-1.194.903-.494.25-1.116.375-1.866.375zm.861-2.531c.653 0 1.21-.176 1.67-.528.46-.358.81-.855 1.048-1.492.239-.636.358-1.378.358-2.224 0-.847-.119-1.583-.358-2.208-.232-.625-.579-1.11-1.039-1.457-.455-.347-1.014-.52-1.679-.52-.688 0-1.262.179-1.722.537-.46.358-.807.852-1.04 1.483-.233.631-.349 1.352-.349 2.165 0 .818.116 1.548.349 2.19.239.636.588 1.139 1.049 1.509.466.363 1.037.545 1.713.545zm17.502-3.204v-7.586h3.085v13.091h-2.991v-2.326h-.137a3.938 3.938 0 0 1-1.457 1.798c-.671.466-1.497.699-2.48.699-.858 0-1.617-.191-2.276-.571-.653-.387-1.165-.946-1.534-1.679-.369-.739-.554-1.631-.554-2.676v-8.336h3.085v7.858c0 .83.228 1.489.682 1.978.455.488 1.051.733 1.79.733.455 0 .895-.111 1.321-.333a2.675 2.675 0 0 0 1.048-.989c.279-.443.418-.997.418-1.661zm11.728 5.761c-1.307 0-2.429-.287-3.366-.861a5.748 5.748 0 0 1-2.157-2.378c-.5-1.017-.75-2.187-.75-3.511 0-1.33.256-2.503.767-3.52.512-1.023 1.233-1.818 2.165-2.386.938-.574 2.046-.861 3.324-.861 1.062 0 2.003.196 2.821.588a4.82 4.82 0 0 1 1.969 1.645c.488.704.767 1.528.835 2.471h-2.949a2.815 2.815 0 0 0-.852-1.576c-.443-.426-1.037-.639-1.781-.639-.631 0-1.185.17-1.662.511-.478.335-.85.818-1.117 1.449-.261.63-.392 1.386-.392 2.267 0 .892.131 1.659.392 2.301.262.636.628 1.128 1.1 1.474.477.341 1.037.512 1.679.512.454 0 .86-.086 1.218-.256.364-.176.668-.429.912-.758.245-.33.412-.731.503-1.202h2.949c-.074.926-.347 1.747-.818 2.463-.472.71-1.114 1.267-1.926 1.67-.813.398-1.767.597-2.864.597zm14.438-13.347v2.387h-7.525v-2.387h7.525zm-5.667-3.136h3.085v12.29c0 .415.062.733.187.954.131.216.301.364.512.443.21.08.443.12.699.12.193 0 .369-.014.528-.043.165-.028.29-.054.375-.077l.52 2.412c-.165.057-.401.12-.708.188-.301.068-.67.108-1.107.119-.773.023-1.469-.094-2.089-.349a3.257 3.257 0 0 1-1.474-1.21c-.358-.546-.534-1.228-.528-2.046v-12.801zm24.067 6.597-2.812.306a2.266 2.266 0 0 0-.418-.801 2.074 2.074 0 0 0-.784-.605c-.33-.153-.733-.23-1.21-.23-.642 0-1.182.139-1.62.418-.431.278-.644.639-.639 1.082-.005.381.134.69.418.929.29.239.767.435 1.432.588l2.233.477c1.238.267 2.159.691 2.761 1.27.608.58.915 1.338.92 2.276a3.558 3.558 0 0 1-.724 2.182c-.472.625-1.128 1.113-1.969 1.466-.841.352-1.807.528-2.897.528-1.603 0-2.892-.335-3.87-1.006-.977-.676-1.559-1.616-1.747-2.821l3.009-.29c.136.591.426 1.037.869 1.339.443.301 1.02.451 1.73.451.733 0 1.321-.15 1.764-.451.449-.302.674-.674.674-1.117 0-.375-.145-.685-.435-.929-.284-.244-.727-.432-1.33-.562l-2.233-.469c-1.255-.262-2.184-.702-2.787-1.321-.602-.625-.9-1.415-.894-2.37-.006-.806.213-1.505.656-2.096.449-.597 1.071-1.057 1.866-1.381.801-.329 1.725-.494 2.77-.494 1.534 0 2.742.327 3.622.98.887.653 1.435 1.537 1.645 2.651zm2.585 9.63v-13.091h3.086v13.091h-3.086zm1.552-14.949c-.489 0-.909-.162-1.262-.485-.352-.33-.528-.725-.528-1.185 0-.466.176-.861.528-1.185a1.787 1.787 0 0 1 1.262-.494c.494 0 .914.165 1.261.494.352.324.528.719.528 1.185 0 .46-.176.855-.528 1.185a1.784 1.784 0 0 1-1.261.485zm10.159 20.131c-1.107 0-2.059-.151-2.855-.452-.795-.295-1.434-.693-1.917-1.193a4.136 4.136 0 0 1-1.006-1.662l2.778-.673c.125.256.307.508.546.758.239.256.56.466.963.631.409.171.923.256 1.543.256.875 0 1.599-.213 2.173-.639.574-.421.861-1.114.861-2.08v-2.48h-.154a4.37 4.37 0 0 1-.699.98c-.301.335-.701.617-1.201.844-.495.227-1.117.341-1.867.341-1.005 0-1.917-.236-2.736-.708-.812-.477-1.46-1.187-1.943-2.13-.477-.949-.716-2.137-.716-3.563 0-1.437.239-2.65.716-3.639.483-.994 1.134-1.747 1.952-2.259a5.015 5.015 0 0 1 2.736-.775c.767 0 1.398.131 1.892.392.5.256.898.565 1.193.929.295.358.52.696.673 1.014h.171v-2.165h3.042v13.304c0 1.12-.267 2.046-.801 2.779-.534.733-1.264 1.281-2.19 1.645-.926.363-1.977.545-3.154.545zm.026-7.79c.653 0 1.21-.159 1.671-.477.46-.318.809-.776 1.048-1.372.238-.597.358-1.313.358-2.148 0-.824-.12-1.545-.358-2.165-.233-.619-.58-1.099-1.04-1.44-.455-.347-1.014-.52-1.679-.52-.687 0-1.261.179-1.722.537-.46.358-.806.849-1.039 1.474-.233.62-.35 1.324-.35 2.114 0 .801.117 1.503.35 2.105.238.597.588 1.063 1.048 1.398.466.33 1.037.494 1.713.494zm12.127-5.062v7.67h-3.086v-13.091h2.949v2.225h.154a3.736 3.736 0 0 1 1.44-1.747c.665-.432 1.486-.648 2.463-.648.903 0 1.69.193 2.361.579a3.906 3.906 0 0 1 1.568 1.679c.375.733.56 1.623.554 2.668v8.335h-3.085v-7.858c0-.875-.228-1.559-.682-2.054-.449-.494-1.071-.741-1.867-.741-.539 0-1.019.119-1.44.358a2.483 2.483 0 0 0-.98 1.014c-.233.443-.349.98-.349 1.611zm15.066 7.934c-.829 0-1.576-.147-2.241-.443a3.655 3.655 0 0 1-1.568-1.329c-.381-.586-.571-1.307-.571-2.165 0-.739.136-1.349.409-1.832.272-.483.645-.87 1.116-1.16a5.667 5.667 0 0 1 1.594-.656 13.006 13.006 0 0 1 1.849-.332 77.48 77.48 0 0 0 1.867-.213c.477-.068.824-.171 1.04-.307.221-.142.332-.361.332-.656v-.051c0-.642-.19-1.14-.571-1.492-.381-.352-.929-.528-1.645-.528-.756 0-1.355.164-1.798.494-.438.33-.733.719-.887 1.168l-2.88-.409c.227-.796.602-1.461 1.125-1.995a4.895 4.895 0 0 1 1.917-1.21c.756-.273 1.591-.409 2.506-.409.631 0 1.259.074 1.884.221a5.325 5.325 0 0 1 1.713.733c.517.336.932.793 1.244 1.373.318.579.477 1.304.477 2.173v8.761h-2.966v-1.798h-.102a3.765 3.765 0 0 1-.793 1.023c-.335.312-.758.565-1.269.758-.506.188-1.1.281-1.782.281zm.801-2.267c.62 0 1.157-.122 1.611-.366.455-.25.804-.58 1.049-.989.25-.409.375-.855.375-1.338v-1.542c-.097.079-.262.153-.495.221a6.996 6.996 0 0 1-.767.179c-.284.051-.565.097-.844.137l-.724.102c-.46.062-.872.165-1.236.307-.363.142-.65.341-.861.596-.21.25-.315.574-.315.972 0 .568.207.997.622 1.287.415.29.943.434 1.585.434zm12.059-15.451v17.454h-3.085V512.64h3.085zm-118.831 46.659v-11.796h2.676v11.796h-2.676zm-4.559-4.56v-2.676h11.795v2.676h-11.795zm24.331-10.099v17.454h-3.161V544.64h3.161zm18.125 5.889h-3.188a3.95 3.95 0 0 0-.503-1.389 3.74 3.74 0 0 0-.911-1.04 3.807 3.807 0 0 0-1.245-.639 4.842 4.842 0 0 0-1.491-.222c-.949 0-1.79.239-2.523.716-.733.472-1.307 1.165-1.722 2.08-.414.909-.622 2.019-.622 3.332 0 1.335.208 2.46.622 3.375.421.909.995 1.597 1.722 2.062.733.461 1.571.691 2.514.691.523 0 1.012-.068 1.466-.205.46-.142.872-.349 1.236-.622.369-.273.679-.608.929-1.006.256-.397.432-.852.528-1.363l3.188.017a6.874 6.874 0 0 1-.776 2.335 6.894 6.894 0 0 1-1.542 1.926 7.138 7.138 0 0 1-2.233 1.296c-.853.306-1.799.46-2.838.46-1.535 0-2.904-.355-4.108-1.065-1.205-.711-2.154-1.736-2.847-3.077-.693-1.341-1.04-2.949-1.04-4.824 0-1.881.35-3.489 1.049-4.824.698-1.341 1.65-2.366 2.855-3.077 1.204-.71 2.568-1.065 4.091-1.065.971 0 1.875.136 2.71.409a6.946 6.946 0 0 1 2.233 1.202 6.417 6.417 0 0 1 1.611 1.926c.426.756.704 1.619.835 2.591zm2.655 11.565V544.64h6.546c1.341 0 2.466.25 3.375.75.915.5 1.605 1.187 2.071 2.062.471.87.707 1.858.707 2.966 0 1.119-.236 2.114-.707 2.983-.472.869-1.168 1.554-2.088 2.054-.921.494-2.054.742-3.401.742h-4.338v-2.6h3.912c.784 0 1.426-.136 1.926-.409.5-.273.87-.648 1.108-1.125.245-.477.367-1.026.367-1.645s-.122-1.165-.367-1.636c-.238-.472-.611-.838-1.116-1.1-.5-.267-1.145-.4-1.935-.4h-2.898v14.812h-3.162zm27.413-13.091v2.387h-7.738v-2.387h7.738zm-5.804 13.091v-14.326c0-.881.182-1.614.546-2.199a3.443 3.443 0 0 1 1.483-1.313c.619-.29 1.306-.434 2.062-.434a7.13 7.13 0 0 1 1.423.127c.415.086.722.162.921.23l-.614 2.387c-.13-.04-.295-.08-.494-.119a2.96 2.96 0 0 0-.665-.069c-.574 0-.98.14-1.219.418-.233.273-.349.665-.349 1.176v14.122h-3.094zm7.98 0v-13.091h3.086v13.091h-3.086zm1.551-14.949c-.488 0-.909-.162-1.261-.485-.352-.33-.528-.725-.528-1.185 0-.466.176-.861.528-1.185a1.784 1.784 0 0 1 1.261-.494c.495 0 .915.165 1.262.494.352.324.528.719.528 1.185 0 .46-.176.855-.528 1.185a1.785 1.785 0 0 1-1.262.485zm11.004 1.858v2.387h-7.525v-2.387h7.525zm-5.668-3.136h3.086v12.29c0 .415.062.733.187.954.131.216.301.364.512.443.21.08.443.12.698.12.194 0 .37-.014.529-.043.165-.028.29-.054.375-.077l.52 2.412c-.165.057-.401.12-.708.188-.301.068-.67.108-1.108.119-.772.023-1.468-.094-2.088-.349a3.257 3.257 0 0 1-1.474-1.21c-.358-.546-.534-1.228-.529-2.046v-12.801z"/><path fill="#fff" fill-opacity=".1" d="M799 491H586a6 6 0 0 0-6 6v80a6 6 0 0 0 6 6h213a6 6 0 0 0 6-6v-80a6 6 0 0 0-6-6z"/><path fill="#fff" d="M637.418 689.64h3.869l5.182 12.647h.204l5.182-12.647h3.869v17.454h-3.034v-11.991h-.162l-4.823 11.94h-2.268l-4.823-11.966h-.162v12.017h-3.034V689.64zm25.14 17.718c-.829 0-1.576-.147-2.241-.443a3.655 3.655 0 0 1-1.568-1.329c-.381-.586-.571-1.307-.571-2.165 0-.739.136-1.349.409-1.832.272-.483.645-.87 1.116-1.16a5.667 5.667 0 0 1 1.594-.656 13.006 13.006 0 0 1 1.849-.332 77.48 77.48 0 0 0 1.867-.213c.477-.068.824-.171 1.04-.307.221-.142.332-.361.332-.656v-.051c0-.642-.19-1.14-.571-1.492-.381-.352-.929-.528-1.645-.528-.756 0-1.355.164-1.798.494-.438.33-.733.719-.887 1.168l-2.88-.409c.227-.796.602-1.461 1.125-1.995a4.888 4.888 0 0 1 1.917-1.21c.756-.273 1.591-.409 2.506-.409.631 0 1.259.074 1.884.221a5.325 5.325 0 0 1 1.713.733 3.69 3.69 0 0 1 1.244 1.373c.318.579.477 1.304.477 2.173v8.761h-2.966v-1.798h-.102a3.765 3.765 0 0 1-.793 1.023c-.335.312-.758.565-1.269.758-.506.188-1.1.281-1.782.281zm.801-2.267c.62 0 1.157-.122 1.611-.366.455-.25.804-.58 1.049-.989.25-.409.375-.855.375-1.338v-1.542c-.097.079-.262.153-.495.221a6.996 6.996 0 0 1-.767.179c-.284.051-.565.097-.844.137l-.724.102c-.46.062-.872.165-1.236.307-.363.142-.65.341-.861.596-.21.25-.315.574-.315.972 0 .568.207.997.622 1.287.415.29.943.434 1.585.434zm8.973 2.003v-13.091h2.992v2.182h.136c.239-.756.648-1.338 1.228-1.747a3.373 3.373 0 0 1 2.002-.622c.171 0 .361.008.571.025a4 4 0 0 1 .537.06v2.838a3.267 3.267 0 0 0-.622-.119 5.683 5.683 0 0 0-.809-.06 3.11 3.11 0 0 0-1.517.367 2.676 2.676 0 0 0-1.049.997c-.255.426-.383.917-.383 1.474v7.696h-3.086zm12.089-4.108-.009-3.724h.494l4.705-5.259h3.605l-5.787 6.444h-.639l-2.369 2.539zm-2.813 4.108V689.64h3.085v17.454h-3.085zm8.216 0-4.261-5.957 2.079-2.173 5.872 8.13h-3.69zm10.465.256c-1.313 0-2.446-.273-3.401-.818a5.54 5.54 0 0 1-2.19-2.335c-.512-1.012-.767-2.202-.767-3.572 0-1.346.255-2.528.767-3.545.517-1.023 1.238-1.818 2.164-2.386.927-.574 2.015-.861 3.265-.861a6.62 6.62 0 0 1 2.284.392 5.166 5.166 0 0 1 1.909 1.193c.557.54.994 1.227 1.312 2.063.319.829.478 1.818.478 2.966v.946h-10.731v-2.08h7.773c-.005-.591-.133-1.116-.383-1.577-.25-.466-.6-.832-1.049-1.099-.443-.267-.96-.401-1.551-.401-.63 0-1.184.154-1.662.461a3.165 3.165 0 0 0-1.116 1.193 3.426 3.426 0 0 0-.401 1.61v1.816c0 .761.139 1.415.418 1.96.278.54.668.955 1.168 1.244.5.284 1.085.427 1.755.427.449 0 .855-.063 1.219-.188.364-.131.679-.321.946-.571.267-.25.469-.56.605-.929l2.881.324a4.497 4.497 0 0 1-1.04 1.994c-.506.563-1.153 1-1.943 1.313-.79.307-1.693.46-2.71.46zm14.728-13.347v2.387h-7.526v-2.387h7.526zm-5.668-3.136h3.085v12.29c0 .415.063.733.188.954.13.216.301.364.511.443.21.08.443.12.699.12.193 0 .369-.014.528-.043.165-.028.29-.054.375-.077l.52 2.412c-.165.057-.4.12-.707.188a5.784 5.784 0 0 1-1.108.119c-.773.023-1.469-.094-2.088-.349a3.26 3.26 0 0 1-1.475-1.21c-.358-.546-.534-1.228-.528-2.046v-12.801zm8.008 16.227v-13.091h3.085v13.091h-3.085zm1.551-14.949a1.8 1.8 0 0 1-1.261-.485c-.353-.33-.529-.725-.529-1.185 0-.466.176-.861.529-1.185a1.783 1.783 0 0 1 1.261-.494c.494 0 .915.165 1.261.494.353.324.529.719.529 1.185 0 .46-.176.855-.529 1.185a1.782 1.782 0 0 1-1.261.485zm7.552 7.279v7.67h-3.085v-13.091h2.949v2.225h.153a3.736 3.736 0 0 1 1.44-1.747c.665-.432 1.486-.648 2.463-.648.904 0 1.691.193 2.361.579a3.906 3.906 0 0 1 1.568 1.679c.375.733.56 1.623.554 2.668v8.335h-3.085v-7.858c0-.875-.227-1.559-.682-2.054-.449-.494-1.071-.741-1.866-.741-.54 0-1.02.119-1.441.358a2.49 2.49 0 0 0-.98 1.014c-.233.443-.349.98-.349 1.611zm16.993 12.852c-1.108 0-2.06-.151-2.855-.452-.796-.295-1.435-.693-1.918-1.193a4.136 4.136 0 0 1-1.006-1.662l2.779-.673c.125.256.307.508.545.758.239.256.56.466.963.631.409.171.924.256 1.543.256.875 0 1.599-.213 2.173-.639.574-.421.861-1.114.861-2.08v-2.48h-.153a4.37 4.37 0 0 1-.699.98c-.301.335-.702.617-1.202.844-.494.227-1.116.341-1.866.341-1.006 0-1.918-.236-2.736-.708-.813-.477-1.46-1.187-1.943-2.13-.478-.949-.716-2.137-.716-3.563 0-1.437.238-2.65.716-3.639.483-.994 1.133-1.747 1.951-2.259a5.017 5.017 0 0 1 2.736-.775c.767 0 1.398.131 1.892.392.5.256.898.565 1.193.929.296.358.52.696.674 1.014h.17v-2.165h3.043v13.304c0 1.12-.267 2.046-.801 2.779-.534.733-1.265 1.281-2.191 1.645-.926.363-1.977.545-3.153.545zm.025-7.79c.654 0 1.211-.159 1.671-.477.46-.318.81-.776 1.048-1.372.239-.597.358-1.313.358-2.148 0-.824-.119-1.545-.358-2.165-.233-.619-.579-1.099-1.04-1.44-.454-.347-1.014-.52-1.679-.52-.687 0-1.261.179-1.721.537-.46.358-.807.849-1.04 1.474-.233.62-.349 1.324-.349 2.114 0 .801.116 1.503.349 2.105.239.597.588 1.063 1.048 1.398.466.33 1.037.494 1.713.494zm-106.255 21.517v2.387h-7.738v-2.387h7.738zm-5.804 13.091v-14.326c0-.881.182-1.614.546-2.199a3.443 3.443 0 0 1 1.483-1.313c.619-.29 1.307-.434 2.062-.434.534 0 1.009.042 1.424.127.414.086.721.162.92.23l-.614 2.387c-.13-.04-.295-.08-.494-.119a2.954 2.954 0 0 0-.665-.069c-.574 0-.98.14-1.218.418-.233.273-.35.665-.35 1.176v14.122h-3.094zm7.981 0v-13.091h3.085v13.091H639.4zm1.551-14.949c-.489 0-.909-.162-1.262-.485-.352-.33-.528-.725-.528-1.185 0-.466.176-.861.528-1.185a1.787 1.787 0 0 1 1.262-.494c.494 0 .914.165 1.261.494.352.324.528.719.528 1.185 0 .46-.176.855-.528 1.185a1.784 1.784 0 0 1-1.261.485zm7.552 7.279v7.67h-3.086v-13.091h2.949v2.225h.154a3.736 3.736 0 0 1 1.44-1.747c.665-.432 1.486-.648 2.463-.648.903 0 1.69.193 2.361.579a3.906 3.906 0 0 1 1.568 1.679c.375.733.56 1.623.554 2.668v8.335h-3.085v-7.858c0-.875-.228-1.559-.682-2.054-.449-.494-1.071-.741-1.867-.741-.539 0-1.019.119-1.44.358a2.483 2.483 0 0 0-.98 1.014c-.233.443-.349.98-.349 1.611zm16.157 7.9c-1.028 0-1.949-.264-2.761-.792-.813-.529-1.455-1.296-1.926-2.301-.472-1.006-.708-2.228-.708-3.665 0-1.455.239-2.682.716-3.682.483-1.006 1.134-1.764 1.952-2.276a5.015 5.015 0 0 1 2.736-.775c.767 0 1.398.131 1.892.392.494.256.886.565 1.176.929.29.358.514.696.673 1.014h.128v-6.528h3.094v17.454h-3.034v-2.062h-.188a5.277 5.277 0 0 1-.69 1.014c-.301.352-.699.653-1.193.903-.495.25-1.117.375-1.867.375zm.861-2.531c.653 0 1.21-.176 1.671-.528.46-.358.809-.855 1.048-1.492.238-.636.358-1.378.358-2.224 0-.847-.12-1.583-.358-2.208-.233-.625-.58-1.11-1.04-1.457-.454-.347-1.014-.52-1.679-.52-.687 0-1.261.179-1.722.537-.46.358-.806.852-1.039 1.483-.233.631-.35 1.352-.35 2.165 0 .818.117 1.548.35 2.19.238.636.588 1.139 1.048 1.509.466.363 1.037.545 1.713.545zm19.505-7.329-2.812.306a2.266 2.266 0 0 0-.418-.801 2.082 2.082 0 0 0-.784-.605c-.33-.153-.733-.23-1.21-.23-.642 0-1.182.139-1.62.418-.431.278-.645.639-.639 1.082-.006.381.134.69.418.929.29.239.767.435 1.432.588l2.233.477c1.238.267 2.159.691 2.761 1.27.608.58.915 1.338.92 2.276a3.558 3.558 0 0 1-.724 2.182c-.472.625-1.128 1.113-1.969 1.466-.841.352-1.807.528-2.898.528-1.602 0-2.892-.335-3.869-1.006-.977-.676-1.56-1.616-1.747-2.821l3.009-.29c.136.591.426 1.037.869 1.339.443.301 1.02.451 1.73.451.733 0 1.321-.15 1.764-.451.449-.302.673-.674.673-1.117 0-.375-.144-.685-.434-.929-.284-.244-.727-.432-1.33-.562l-2.233-.469c-1.255-.262-2.184-.702-2.787-1.321-.602-.625-.9-1.415-.895-2.37-.005-.806.214-1.505.657-2.096.449-.597 1.071-1.057 1.866-1.381.801-.329 1.725-.494 2.77-.494 1.534 0 2.742.327 3.622.98.887.653 1.435 1.537 1.645 2.651zm8.435 9.63V721.64h3.085v6.528h.128c.159-.318.383-.656.673-1.014.29-.364.682-.673 1.176-.929.495-.261 1.125-.392 1.892-.392 1.012 0 1.924.258 2.736.775.818.512 1.466 1.27 1.943 2.276.483 1 .725 2.227.725 3.682 0 1.437-.236 2.659-.708 3.665-.471 1.005-1.113 1.772-1.926 2.301-.812.528-1.733.792-2.761.792-.75 0-1.372-.125-1.867-.375-.494-.25-.892-.551-1.193-.903a5.892 5.892 0 0 1-.69-1.014h-.179v2.062h-3.034zm3.025-6.545c0 .846.12 1.588.358 2.224.245.637.594 1.134 1.049 1.492.46.352 1.017.528 1.67.528.682 0 1.253-.182 1.713-.545.46-.37.807-.873 1.04-1.509.239-.642.358-1.372.358-2.19 0-.813-.117-1.534-.349-2.165-.233-.631-.58-1.125-1.04-1.483-.46-.358-1.034-.537-1.722-.537-.659 0-1.219.173-1.679.52-.46.347-.809.832-1.048 1.457-.233.625-.35 1.361-.35 2.208zm20.059 1.04v-7.586h3.086v13.091h-2.992v-2.326h-.136a3.94 3.94 0 0 1-1.458 1.798c-.67.466-1.497.699-2.48.699-.858 0-1.616-.191-2.275-.571-.654-.387-1.165-.946-1.534-1.679-.37-.739-.554-1.631-.554-2.676v-8.336h3.085v7.858c0 .83.227 1.489.682 1.978.454.488 1.051.733 1.79.733a2.83 2.83 0 0 0 1.321-.333 2.682 2.682 0 0 0 1.048-.989c.278-.443.417-.997.417-1.661zm7.936 10.414c-.421 0-.81-.034-1.168-.102a4.224 4.224 0 0 1-.843-.222l.715-2.403c.449.131.85.193 1.202.188.352-.006.662-.117.929-.333.273-.21.503-.562.69-1.057l.265-.707-4.747-13.364h3.272l3.017 9.887h.137l3.025-9.887h3.281l-5.241 14.676a5.862 5.862 0 0 1-.972 1.782c-.403.5-.897.88-1.483 1.142-.579.267-1.272.4-2.079.4zm17.021-4.653c-1.313 0-2.446-.273-3.401-.818a5.54 5.54 0 0 1-2.19-2.335c-.512-1.012-.767-2.202-.767-3.572 0-1.346.255-2.528.767-3.545.517-1.023 1.238-1.818 2.164-2.386.927-.574 2.015-.861 3.265-.861a6.62 6.62 0 0 1 2.284.392 5.166 5.166 0 0 1 1.909 1.193c.557.54.994 1.227 1.312 2.063.318.829.478 1.818.478 2.966v.946h-10.731v-2.08h7.773c-.006-.591-.133-1.116-.383-1.577-.25-.466-.6-.832-1.049-1.099-.443-.267-.96-.401-1.551-.401-.63 0-1.184.154-1.662.461a3.165 3.165 0 0 0-1.116 1.193 3.426 3.426 0 0 0-.401 1.61v1.816c0 .761.139 1.415.418 1.96.278.54.667.955 1.167 1.244.5.284 1.086.427 1.756.427.449 0 .855-.063 1.219-.188.364-.131.679-.321.946-.571.267-.25.469-.56.605-.929l2.881.324a4.497 4.497 0 0 1-1.04 1.994c-.506.563-1.153 1-1.943 1.313-.79.307-1.693.46-2.71.46zm8.191-.256v-13.091h2.991v2.182h.136c.239-.756.648-1.338 1.228-1.747a3.376 3.376 0 0 1 2.003-.622c.17 0 .36.008.571.025a4 4 0 0 1 .537.06v2.838a3.298 3.298 0 0 0-.623-.119 5.683 5.683 0 0 0-.809-.06c-.563 0-1.068.122-1.517.367a2.683 2.683 0 0 0-1.049.997c-.255.426-.383.917-.383 1.474v7.696h-3.085z"/><path fill="#fff" fill-opacity=".1" d="M799 668H586a6 6 0 0 0-6 6v80a6 6 0 0 0 6 6h213a6 6 0 0 0 6-6v-80a6 6 0 0 0-6-6z"/><path fill="#fff" d="M640.18 887.438c-.08-.744-.415-1.324-1.006-1.739-.585-.414-1.347-.622-2.284-.622-.659 0-1.225.1-1.696.298-.472.199-.833.469-1.083.81a1.97 1.97 0 0 0-.383 1.168c0 .363.082.679.247.946.171.267.401.494.69.682.29.181.611.335.964.46.352.125.707.23 1.065.315l1.636.409c.659.154 1.293.361 1.901.622a6.724 6.724 0 0 1 1.645.989 4.4 4.4 0 0 1 1.159 1.44c.284.563.426 1.222.426 1.978 0 1.022-.261 1.923-.784 2.701-.523.773-1.279 1.378-2.267 1.816-.983.432-2.174.647-3.571.647-1.358 0-2.537-.21-3.537-.63-.995-.421-1.773-1.034-2.335-1.841-.557-.807-.858-1.79-.904-2.949h3.111c.045.608.233 1.114.562 1.517.33.403.759.705 1.287.903a5.096 5.096 0 0 0 1.79.299c.688 0 1.29-.103 1.807-.307.523-.21.932-.5 1.227-.869a2.1 2.1 0 0 0 .452-1.313c-.006-.454-.139-.829-.401-1.125-.261-.301-.627-.551-1.099-.75a10.644 10.644 0 0 0-1.636-.545l-1.986-.512c-1.438-.369-2.574-.929-3.409-1.679-.83-.755-1.245-1.758-1.245-3.008 0-1.029.279-1.929.836-2.702.562-.773 1.326-1.372 2.292-1.798.966-.432 2.06-.648 3.281-.648 1.239 0 2.324.216 3.256.648.938.426 1.673 1.02 2.208 1.781.534.756.809 1.625.826 2.608h-3.042zm9.49 12.92c-.829 0-1.576-.147-2.241-.443a3.655 3.655 0 0 1-1.568-1.329c-.381-.586-.571-1.307-.571-2.165 0-.739.136-1.349.409-1.832.273-.483.645-.87 1.116-1.16a5.667 5.667 0 0 1 1.594-.656 12.995 12.995 0 0 1 1.85-.332c.767-.08 1.389-.151 1.866-.213.477-.068.824-.171 1.04-.307.221-.142.332-.361.332-.656v-.051c0-.642-.19-1.14-.571-1.492-.381-.352-.929-.528-1.645-.528-.755 0-1.355.164-1.798.494-.438.33-.733.719-.886 1.168l-2.881-.409c.227-.796.602-1.461 1.125-1.995a4.891 4.891 0 0 1 1.918-1.21c.755-.273 1.59-.409 2.505-.409.631 0 1.259.074 1.884.221a5.325 5.325 0 0 1 1.713.733c.517.336.932.793 1.244 1.373.318.579.477 1.304.477 2.173v8.761h-2.965v-1.798h-.103a3.76 3.76 0 0 1-.792 1.023c-.336.312-.759.565-1.27.758-.506.188-1.1.281-1.782.281zm.802-2.267c.619 0 1.156-.122 1.61-.366.455-.25.804-.58 1.049-.989.25-.409.375-.855.375-1.338v-1.542c-.097.079-.262.153-.495.221a6.996 6.996 0 0 1-.767.179c-.284.051-.565.097-.843.137l-.725.102c-.46.062-.872.165-1.236.307-.363.142-.65.341-.86.596-.211.25-.316.574-.316.972 0 .568.208.997.622 1.287.415.29.944.434 1.586.434zm12.058-15.451v17.454h-3.085V882.64h3.085zm8.728 17.71c-1.313 0-2.446-.273-3.401-.818a5.546 5.546 0 0 1-2.19-2.335c-.511-1.012-.767-2.202-.767-3.572 0-1.346.256-2.528.767-3.545.517-1.023 1.239-1.818 2.165-2.386.926-.574 2.014-.861 3.264-.861.807 0 1.568.131 2.284.392a5.158 5.158 0 0 1 1.909 1.193c.557.54.995 1.227 1.313 2.063.318.829.477 1.818.477 2.966v.946h-10.73v-2.08h7.773c-.006-.591-.134-1.116-.384-1.577a2.785 2.785 0 0 0-1.048-1.099c-.443-.267-.96-.401-1.551-.401-.631 0-1.185.154-1.662.461a3.16 3.16 0 0 0-1.117 1.193 3.425 3.425 0 0 0-.4 1.61v1.816c0 .761.139 1.415.417 1.96.279.54.668.955 1.168 1.244.5.284 1.085.427 1.756.427.448 0 .855-.063 1.218-.188.364-.131.679-.321.946-.571.267-.25.469-.56.605-.929l2.881.324a4.487 4.487 0 0 1-1.04 1.994c-.505.563-1.153 1-1.943 1.313-.79.307-1.693.46-2.71.46zm18.538-9.886-2.813.306a2.264 2.264 0 0 0-.417-.801 2.086 2.086 0 0 0-.785-.605c-.329-.153-.733-.23-1.21-.23-.642 0-1.182.139-1.619.418-.432.278-.645.639-.639 1.082-.006.381.133.69.417.929.29.239.767.435 1.432.588l2.233.477c1.239.267 2.159.691 2.761 1.27.608.58.915 1.338.921 2.276-.006.824-.247 1.551-.725 2.182-.471.625-1.127 1.113-1.968 1.466-.841.352-1.807.528-2.898.528-1.602 0-2.892-.335-3.869-1.006-.978-.676-1.56-1.616-1.747-2.821l3.008-.29c.136.591.426 1.037.869 1.339.444.301 1.02.451 1.73.451.733 0 1.321-.15 1.765-.451.449-.302.673-.674.673-1.117 0-.375-.145-.685-.435-.929-.284-.244-.727-.432-1.329-.562l-2.233-.469c-1.256-.262-2.185-.702-2.787-1.321-.602-.625-.901-1.415-.895-2.37-.006-.806.213-1.505.656-2.096.449-.597 1.071-1.057 1.867-1.381.801-.329 1.724-.494 2.77-.494 1.534 0 2.741.327 3.622.98.886.653 1.434 1.537 1.645 2.651zm14.008 9.886c-1.307 0-2.429-.287-3.366-.861a5.74 5.74 0 0 1-2.156-2.378c-.5-1.017-.75-2.187-.75-3.511 0-1.33.255-2.503.767-3.52.511-1.023 1.233-1.818 2.164-2.386.938-.574 2.046-.861 3.324-.861 1.063 0 2.003.196 2.821.588a4.82 4.82 0 0 1 1.969 1.645c.489.704.767 1.528.835 2.471h-2.949a2.815 2.815 0 0 0-.852-1.576c-.443-.426-1.037-.639-1.781-.639-.631 0-1.185.17-1.662.511-.477.335-.85.818-1.117 1.449-.261.63-.392 1.386-.392 2.267 0 .892.131 1.659.392 2.301.262.636.628 1.128 1.1 1.474.477.341 1.037.512 1.679.512a2.81 2.81 0 0 0 1.219-.256c.363-.176.667-.429.912-.758.244-.33.411-.731.502-1.202h2.949c-.074.926-.346 1.747-.818 2.463-.472.71-1.114 1.267-1.926 1.67-.813.398-1.767.597-2.864.597zm10.987-17.71v17.454h-3.085V882.64h3.085zm8.643 17.71c-1.279 0-2.387-.281-3.324-.844-.938-.562-1.665-1.349-2.182-2.361-.511-1.011-.767-2.193-.767-3.545 0-1.352.256-2.537.767-3.554.517-1.017 1.244-1.807 2.182-2.369.937-.563 2.045-.844 3.324-.844 1.278 0 2.386.281 3.324.844.937.562 1.661 1.352 2.173 2.369.517 1.017.775 2.202.775 3.554 0 1.352-.258 2.534-.775 3.545-.512 1.012-1.236 1.799-2.173 2.361-.938.563-2.046.844-3.324.844zm.017-2.472c.693 0 1.272-.19 1.738-.571.466-.386.813-.903 1.04-1.551.233-.648.35-1.369.35-2.165 0-.801-.117-1.525-.35-2.173-.227-.653-.574-1.173-1.04-1.56-.466-.386-1.045-.579-1.738-.579-.711 0-1.301.193-1.773.579-.466.387-.815.907-1.048 1.56-.228.648-.341 1.372-.341 2.173 0 .796.113 1.517.341 2.165.233.648.582 1.165 1.048 1.551.472.381 1.062.571 1.773.571zm18.981-7.414-2.813.306a2.25 2.25 0 0 0-.418-.801 2.074 2.074 0 0 0-.784-.605c-.329-.153-.733-.23-1.21-.23-.642 0-1.182.139-1.619.418-.432.278-.645.639-.639 1.082-.006.381.133.69.417.929.29.239.767.435 1.432.588l2.233.477c1.239.267 2.159.691 2.761 1.27.608.58.915 1.338.921 2.276-.006.824-.247 1.551-.725 2.182-.471.625-1.127 1.113-1.968 1.466-.841.352-1.807.528-2.898.528-1.602 0-2.892-.335-3.869-1.006-.978-.676-1.56-1.616-1.748-2.821l3.009-.29c.136.591.426 1.037.869 1.339.443.301 1.02.451 1.73.451.733 0 1.321-.15 1.765-.451.448-.302.673-.674.673-1.117 0-.375-.145-.685-.435-.929-.284-.244-.727-.432-1.329-.562l-2.233-.469c-1.256-.262-2.185-.702-2.787-1.321-.602-.625-.901-1.415-.895-2.37-.006-.806.213-1.505.656-2.096.449-.597 1.071-1.057 1.867-1.381.801-.329 1.724-.494 2.77-.494 1.534 0 2.741.327 3.622.98.886.653 1.434 1.537 1.645 2.651zm8.38 9.886c-1.312 0-2.446-.273-3.4-.818a5.548 5.548 0 0 1-2.191-2.335c-.511-1.012-.767-2.202-.767-3.572 0-1.346.256-2.528.767-3.545.517-1.023 1.239-1.818 2.165-2.386.926-.574 2.014-.861 3.264-.861.807 0 1.569.131 2.284.392a5.17 5.17 0 0 1 1.91 1.193c.556.54.994 1.227 1.312 2.063.318.829.477 1.818.477 2.966v.946h-10.73v-2.08h7.773c-.006-.591-.134-1.116-.384-1.577a2.785 2.785 0 0 0-1.048-1.099c-.443-.267-.96-.401-1.551-.401-.631 0-1.185.154-1.662.461a3.165 3.165 0 0 0-1.116 1.193 3.426 3.426 0 0 0-.401 1.61v1.816c0 .761.139 1.415.418 1.96.278.54.667.955 1.167 1.244.5.284 1.085.427 1.756.427.449 0 .855-.063 1.219-.188.363-.131.679-.321.946-.571.267-.25.468-.56.605-.929l2.881.324a4.497 4.497 0 0 1-1.04 1.994c-.506.563-1.154 1-1.943 1.313-.79.307-1.694.46-2.711.46z"/><path fill="#fff" fill-opacity=".1" d="M799 845H586a6 6 0 0 0-6 6v80a6 6 0 0 0 6 6h213a6 6 0 0 0 6-6v-80a6 6 0 0 0-6-6z"/><defs><linearGradient id="a" x1="0" x2="1067.02" y1="0" y2="920.382" gradientUnits="userSpaceOnUse"><stop stop-color="#23377A"/><stop offset="1" stop-color="#28037E"/></linearGradient></defs></svg>