<svg xmlns="http://www.w3.org/2000/svg" width="944" height="890" fill="none"><path fill="#fff" d="M944 0H0v890h944V0z"/><path fill="url(#a)" d="M944 0H0v890h944V0z"/><path fill="#fff" d="M361.192 121.176v-6.085h28.671v6.085h-10.688V150h-7.295v-28.824h-10.688zM390.769 150v-26.182h7.04v4.568h.272c.478-1.625 1.279-2.852 2.404-3.681 1.125-.841 2.42-1.262 3.886-1.262.364 0 .756.023 1.176.068.421.046.79.108 1.108.188v6.443c-.341-.102-.812-.193-1.414-.273a12.82 12.82 0 0 0-1.654-.119c-1.068 0-2.023.233-2.863.699a5.144 5.144 0 0 0-1.978 1.909c-.477.818-.716 1.761-.716 2.83V150h-7.261zm25.397.494c-1.671 0-3.16-.289-4.466-.869-1.307-.591-2.341-1.46-3.103-2.608-.75-1.159-1.125-2.602-1.125-4.329 0-1.455.267-2.677.801-3.665a6.503 6.503 0 0 1 2.182-2.387c.921-.602 1.966-1.056 3.137-1.363a23.858 23.858 0 0 1 3.716-.648 94.542 94.542 0 0 0 3.681-.443c.932-.148 1.608-.364 2.029-.648.42-.284.63-.704.63-1.261v-.103c0-1.079-.34-1.914-1.022-2.505-.671-.591-1.625-.887-2.864-.887-1.307 0-2.346.29-3.119.87-.773.568-1.284 1.284-1.534 2.147l-6.716-.545c.341-1.591 1.011-2.966 2.011-4.125 1-1.17 2.29-2.068 3.869-2.693 1.591-.637 3.432-.955 5.523-.955 1.455 0 2.847.171 4.176.512 1.341.341 2.529.869 3.563 1.585a7.704 7.704 0 0 1 2.471 2.761c.603 1.114.904 2.449.904 4.006V150h-6.887v-3.631h-.204a7.383 7.383 0 0 1-1.688 2.165c-.704.614-1.551 1.097-2.539 1.449-.989.341-2.131.511-3.426.511zm2.079-5.011c1.068 0 2.011-.21 2.83-.631.818-.432 1.46-1.011 1.926-1.738.466-.728.699-1.552.699-2.472v-2.778c-.228.147-.54.284-.938.409-.386.113-.824.221-1.312.324a69.2 69.2 0 0 1-1.466.255c-.489.068-.932.131-1.33.188-.852.125-1.596.324-2.233.596-.636.273-1.13.642-1.483 1.108-.352.455-.528 1.023-.528 1.705 0 .989.358 1.744 1.074 2.267.727.511 1.647.767 2.761.767zm26.986 4.943c-1.989 0-3.79-.511-5.403-1.534-1.603-1.034-2.875-2.551-3.818-4.551-.932-2.011-1.398-4.477-1.398-7.398 0-3 .483-5.494 1.449-7.483.966-2 2.25-3.494 3.852-4.483 1.614-1 3.381-1.5 5.301-1.5 1.466 0 2.688.25 3.665.75.988.489 1.784 1.103 2.386 1.841.614.727 1.08 1.443 1.398 2.148h.222v-13.125h7.244V150h-7.159v-4.193h-.307c-.341.727-.824 1.449-1.449 2.165-.614.704-1.415 1.289-2.403 1.755-.978.466-2.171.699-3.58.699zm2.301-5.778c1.171 0 2.159-.318 2.966-.955.818-.648 1.443-1.551 1.875-2.71.443-1.159.665-2.517.665-4.074s-.216-2.909-.648-4.057c-.432-1.147-1.057-2.034-1.875-2.659-.818-.625-1.812-.937-2.983-.937-1.193 0-2.199.324-3.017.971-.818.648-1.437 1.546-1.858 2.693-.42 1.148-.63 2.478-.63 3.989 0 1.523.21 2.869.63 4.04.432 1.159 1.051 2.068 1.858 2.727.818.648 1.824.972 3.017.972zM465.139 150v-26.182h7.261V150h-7.261zm3.648-29.557c-1.08 0-2.006-.358-2.779-1.074-.761-.727-1.142-1.596-1.142-2.608 0-1 .381-1.858 1.142-2.573.773-.728 1.699-1.091 2.779-1.091 1.079 0 2 .363 2.761 1.091.773.715 1.159 1.573 1.159 2.573 0 1.012-.386 1.881-1.159 2.608-.761.716-1.682 1.074-2.761 1.074zm22.396 3.375v5.455h-15.767v-5.455h15.767zm-12.187-6.273h7.261v24.41c0 .67.102 1.193.307 1.568.204.363.489.619.852.767.375.147.807.221 1.296.221.341 0 .681-.028 1.022-.085.341-.068.603-.119.784-.153l1.143 5.403c-.364.114-.875.244-1.535.392-.659.159-1.46.256-2.403.29-1.75.068-3.284-.165-4.602-.699-1.307-.534-2.324-1.364-3.051-2.489-.728-1.125-1.086-2.545-1.074-4.261v-25.364zM494.953 150v-26.182h7.262V150h-7.262zm3.648-29.557c-1.079 0-2.006-.358-2.778-1.074-.762-.727-1.142-1.596-1.142-2.608 0-1 .38-1.858 1.142-2.573.772-.728 1.699-1.091 2.778-1.091 1.08 0 2 .363 2.761 1.091.773.715 1.16 1.573 1.16 2.573 0 1.012-.387 1.881-1.16 2.608-.761.716-1.681 1.074-2.761 1.074zm20.3 30.068c-2.648 0-4.937-.562-6.869-1.687-1.921-1.137-3.404-2.716-4.449-4.739-1.046-2.034-1.568-4.392-1.568-7.074 0-2.704.522-5.068 1.568-7.091 1.045-2.034 2.528-3.613 4.449-4.738 1.932-1.137 4.221-1.705 6.869-1.705 2.648 0 4.932.568 6.852 1.705 1.932 1.125 3.421 2.704 4.466 4.738 1.046 2.023 1.568 4.387 1.568 7.091 0 2.682-.522 5.04-1.568 7.074-1.045 2.023-2.534 3.602-4.466 4.739-1.92 1.125-4.204 1.687-6.852 1.687zm.034-5.625c1.205 0 2.21-.341 3.017-1.022.807-.694 1.415-1.637 1.824-2.83.42-1.193.631-2.551.631-4.074 0-1.522-.211-2.88-.631-4.074-.409-1.193-1.017-2.136-1.824-2.829-.807-.693-1.812-1.04-3.017-1.04-1.216 0-2.239.347-3.068 1.04-.818.693-1.438 1.636-1.858 2.829-.409 1.194-.614 2.552-.614 4.074 0 1.523.205 2.881.614 4.074.42 1.193 1.04 2.136 1.858 2.83.829.681 1.852 1.022 3.068 1.022zm23.875-10.022V150h-7.261v-26.182h6.92v4.62h.307a7.303 7.303 0 0 1 2.915-3.614c1.364-.898 3.017-1.347 4.96-1.347 1.818 0 3.404.398 4.756 1.193 1.352.796 2.403 1.932 3.153 3.41.75 1.465 1.125 3.215 1.125 5.25V150h-7.261v-15.375c.011-1.602-.398-2.852-1.227-3.75-.83-.909-1.972-1.364-3.426-1.364-.978 0-1.841.211-2.591.631-.739.42-1.319 1.034-1.739 1.841-.409.795-.619 1.756-.631 2.881zm29.104 15.63c-1.67 0-3.159-.289-4.466-.869-1.306-.591-2.341-1.46-3.102-2.608-.75-1.159-1.125-2.602-1.125-4.329 0-1.455.267-2.677.801-3.665a6.495 6.495 0 0 1 2.182-2.387c.92-.602 1.966-1.056 3.136-1.363a23.9 23.9 0 0 1 3.716-.648 94.63 94.63 0 0 0 3.682-.443c.932-.148 1.608-.364 2.029-.648.42-.284.63-.704.63-1.261v-.103c0-1.079-.341-1.914-1.023-2.505-.67-.591-1.625-.887-2.863-.887-1.307 0-2.347.29-3.119.87-.773.568-1.285 1.284-1.535 2.147l-6.715-.545c.34-1.591 1.011-2.966 2.011-4.125 1-1.17 2.29-2.068 3.869-2.693 1.591-.637 3.432-.955 5.523-.955 1.454 0 2.847.171 4.176.512 1.341.341 2.528.869 3.563 1.585a7.704 7.704 0 0 1 2.471 2.761c.602 1.114.904 2.449.904 4.006V150h-6.887v-3.631h-.204a7.383 7.383 0 0 1-1.688 2.165c-.704.614-1.551 1.097-2.54 1.449-.988.341-2.13.511-3.426.511zm2.08-5.011c1.068 0 2.011-.21 2.829-.631.819-.432 1.461-1.011 1.926-1.738.466-.728.699-1.552.699-2.472v-2.778c-.227.147-.539.284-.937.409a17.81 17.81 0 0 1-1.313.324c-.488.09-.977.176-1.466.255-.488.068-.931.131-1.329.188-.852.125-1.597.324-2.233.596-.636.273-1.131.642-1.483 1.108-.352.455-.528 1.023-.528 1.705 0 .989.358 1.744 1.073 2.267.728.511 1.648.767 2.762.767zm24.599-30.392V150h-7.261v-34.909h7.261zM318.3 208.511c-2.694 0-5.012-.545-6.955-1.636-1.932-1.102-3.42-2.659-4.466-4.67-1.045-2.023-1.568-4.415-1.568-7.177 0-2.693.523-5.056 1.568-7.09 1.046-2.035 2.517-3.62 4.415-4.756 1.909-1.137 4.148-1.705 6.716-1.705 1.727 0 3.335.279 4.824.835 1.5.546 2.806 1.37 3.92 2.472 1.125 1.102 2 2.489 2.625 4.159.625 1.659.938 3.602.938 5.83v1.994h-22.108v-4.5h15.272c0-1.045-.227-1.972-.681-2.778a4.883 4.883 0 0 0-1.893-1.892c-.795-.466-1.721-.699-2.778-.699-1.102 0-2.079.255-2.932.767-.841.5-1.5 1.176-1.977 2.028-.477.841-.722 1.779-.733 2.813v4.278c0 1.296.239 2.415.716 3.358.489.943 1.176 1.67 2.062 2.182.887.511 1.938.767 3.154.767.807 0 1.545-.114 2.216-.341a4.589 4.589 0 0 0 1.721-1.023 4.433 4.433 0 0 0 1.091-1.67l6.716.443c-.341 1.614-1.04 3.023-2.096 4.227-1.046 1.193-2.398 2.125-4.057 2.796-1.648.659-3.551.988-5.71.988zm23.057-15.647V208h-7.262v-26.182h6.921v4.62h.306a7.309 7.309 0 0 1 2.915-3.614c1.364-.898 3.017-1.347 4.96-1.347 1.819 0 3.404.398 4.756 1.193 1.352.796 2.404 1.932 3.154 3.41.75 1.465 1.125 3.215 1.125 5.25V208h-7.262v-15.375c.012-1.602-.398-2.852-1.227-3.75-.83-.909-1.972-1.364-3.426-1.364-.977 0-1.841.211-2.591.631-.739.42-1.318 1.034-1.739 1.841-.409.795-.619 1.756-.63 2.881zm35.564-11.046v5.455h-15.767v-5.455h15.767zm-12.188-6.273h7.262v24.41c0 .67.102 1.193.306 1.568.205.363.489.619.853.767.375.147.806.221 1.295.221.341 0 .682-.028 1.023-.085.341-.068.602-.119.784-.153l1.142 5.403c-.364.114-.875.244-1.534.392-.659.159-1.46.256-2.404.29-1.75.068-3.284-.165-4.602-.699-1.307-.534-2.324-1.364-3.051-2.489-.727-1.125-1.085-2.545-1.074-4.261v-25.364zm27.608 32.966c-2.693 0-5.011-.545-6.954-1.636-1.932-1.102-3.421-2.659-4.466-4.67-1.045-2.023-1.568-4.415-1.568-7.177 0-2.693.523-5.056 1.568-7.09 1.045-2.035 2.517-3.62 4.415-4.756 1.909-1.137 4.147-1.705 6.716-1.705 1.727 0 3.335.279 4.824.835 1.5.546 2.806 1.37 3.92 2.472 1.125 1.102 2 2.489 2.625 4.159.625 1.659.937 3.602.937 5.83v1.994h-22.107v-4.5h15.272c0-1.045-.227-1.972-.682-2.778a4.874 4.874 0 0 0-1.892-1.892c-.795-.466-1.721-.699-2.778-.699-1.102 0-2.08.255-2.932.767-.841.5-1.5 1.176-1.977 2.028-.477.841-.722 1.779-.733 2.813v4.278c0 1.296.239 2.415.716 3.358a5.242 5.242 0 0 0 2.062 2.182c.887.511 1.938.767 3.154.767.807 0 1.545-.114 2.216-.341a4.589 4.589 0 0 0 1.721-1.023 4.433 4.433 0 0 0 1.091-1.67l6.716.443c-.341 1.614-1.04 3.023-2.097 4.227-1.045 1.193-2.397 2.125-4.056 2.796-1.648.659-3.551.988-5.711.988zm15.796-.511v-26.182h7.04v4.568h.273c.477-1.625 1.278-2.852 2.403-3.681 1.125-.841 2.42-1.262 3.886-1.262.364 0 .756.023 1.177.068.42.046.789.108 1.107.188v6.443c-.34-.102-.812-.193-1.414-.273a12.82 12.82 0 0 0-1.654-.119c-1.068 0-2.022.233-2.863.699a5.144 5.144 0 0 0-1.978 1.909c-.477.818-.716 1.761-.716 2.83V208h-7.261zm18.681 9.818v-36h7.159v4.398h.324c.318-.705.778-1.421 1.38-2.148.614-.738 1.409-1.352 2.387-1.841.988-.5 2.216-.75 3.682-.75 1.909 0 3.67.5 5.284 1.5 1.613.989 2.903 2.483 3.869 4.483.966 1.989 1.449 4.483 1.449 7.483 0 2.921-.472 5.387-1.415 7.398-.932 2-2.205 3.517-3.818 4.551-1.602 1.023-3.398 1.534-5.387 1.534-1.409 0-2.607-.233-3.596-.699-.977-.466-1.779-1.051-2.404-1.755-.625-.716-1.102-1.438-1.431-2.165h-.222v14.011h-7.261zm7.108-22.909c0 1.557.216 2.915.647 4.074.432 1.159 1.057 2.062 1.875 2.71.819.637 1.813.955 2.983.955 1.182 0 2.182-.324 3-.972.819-.659 1.438-1.568 1.858-2.727.432-1.171.648-2.517.648-4.04 0-1.511-.21-2.841-.631-3.989-.42-1.147-1.039-2.045-1.858-2.693-.818-.647-1.823-.971-3.017-.971-1.181 0-2.181.312-3 .937-.806.625-1.426 1.512-1.858 2.659-.431 1.148-.647 2.5-.647 4.057zM456.233 208v-26.182h7.039v4.568h.273c.477-1.625 1.279-2.852 2.404-3.681 1.125-.841 2.42-1.262 3.886-1.262.364 0 .756.023 1.176.068.421.046.79.108 1.108.188v6.443c-.341-.102-.812-.193-1.415-.273a12.793 12.793 0 0 0-1.653-.119c-1.068 0-2.023.233-2.864.699a5.149 5.149 0 0 0-1.977 1.909c-.477.818-.716 1.761-.716 2.83V208h-7.261zm18.68 0v-26.182h7.262V208h-7.262zm3.648-29.557c-1.079 0-2.006-.358-2.778-1.074-.762-.727-1.142-1.596-1.142-2.608 0-1 .38-1.858 1.142-2.573.772-.728 1.699-1.091 2.778-1.091 1.08 0 2 .363 2.761 1.091.773.715 1.16 1.573 1.16 2.573 0 1.012-.387 1.881-1.16 2.608-.761.716-1.681 1.074-2.761 1.074zm30.255 10.841-6.648.409a3.443 3.443 0 0 0-.733-1.534c-.375-.466-.869-.835-1.483-1.108-.602-.284-1.324-.426-2.165-.426-1.125 0-2.074.239-2.846.716-.773.466-1.16 1.091-1.16 1.875 0 .625.25 1.153.75 1.585.5.432 1.358.779 2.574 1.04l4.739.954c2.545.523 4.443 1.364 5.693 2.523s1.875 2.682 1.875 4.568c0 1.716-.506 3.222-1.517 4.517-1 1.296-2.375 2.307-4.125 3.035-1.739.715-3.744 1.073-6.017 1.073-3.466 0-6.227-.721-8.284-2.164-2.045-1.455-3.244-3.432-3.597-5.932l7.142-.375c.216 1.057.739 1.863 1.569 2.42.829.546 1.892.818 3.187.818 1.273 0 2.296-.244 3.068-.733.784-.5 1.182-1.142 1.193-1.926-.011-.659-.289-1.199-.835-1.619-.545-.432-1.386-.761-2.522-.989l-4.535-.903c-2.556-.511-4.46-1.398-5.71-2.659-1.238-1.262-1.858-2.869-1.858-4.824 0-1.682.455-3.131 1.364-4.347.92-1.216 2.21-2.153 3.869-2.812 1.671-.659 3.625-.989 5.864-.989 3.307 0 5.909.699 7.807 2.097 1.909 1.398 3.022 3.301 3.341 5.71zm16.14 19.227c-2.693 0-5.011-.545-6.954-1.636-1.932-1.102-3.421-2.659-4.466-4.67-1.046-2.023-1.568-4.415-1.568-7.177 0-2.693.522-5.056 1.568-7.09 1.045-2.035 2.517-3.62 4.415-4.756 1.909-1.137 4.147-1.705 6.716-1.705 1.727 0 3.335.279 4.823.835 1.5.546 2.807 1.37 3.921 2.472 1.125 1.102 2 2.489 2.625 4.159.625 1.659.937 3.602.937 5.83v1.994h-22.108v-4.5h15.273c0-1.045-.227-1.972-.682-2.778a4.874 4.874 0 0 0-1.892-1.892c-.795-.466-1.721-.699-2.778-.699-1.102 0-2.08.255-2.932.767-.841.5-1.5 1.176-1.977 2.028-.477.841-.722 1.779-.733 2.813v4.278c0 1.296.239 2.415.716 3.358a5.242 5.242 0 0 0 2.062 2.182c.887.511 1.938.767 3.154.767.807 0 1.545-.114 2.216-.341a4.589 4.589 0 0 0 1.721-1.023 4.445 4.445 0 0 0 1.091-1.67l6.716.443c-.341 1.614-1.04 3.023-2.097 4.227-1.045 1.193-2.397 2.125-4.056 2.796-1.648.659-3.552.988-5.711.988zm47.73-19.227-6.648.409a3.443 3.443 0 0 0-.733-1.534c-.375-.466-.869-.835-1.483-1.108-.602-.284-1.324-.426-2.165-.426-1.125 0-2.074.239-2.846.716-.773.466-1.16 1.091-1.16 1.875 0 .625.25 1.153.75 1.585.5.432 1.358.779 2.574 1.04l4.739.954c2.545.523 4.443 1.364 5.693 2.523s1.875 2.682 1.875 4.568c0 1.716-.506 3.222-1.517 4.517-1 1.296-2.375 2.307-4.125 3.035-1.739.715-3.744 1.073-6.017 1.073-3.466 0-6.227-.721-8.284-2.164-2.046-1.455-3.244-3.432-3.597-5.932l7.142-.375c.216 1.057.739 1.863 1.569 2.42.829.546 1.892.818 3.187.818 1.273 0 2.296-.244 3.068-.733.784-.5 1.182-1.142 1.193-1.926-.011-.659-.289-1.199-.835-1.619-.545-.432-1.386-.761-2.523-.989l-4.534-.903c-2.556-.511-4.46-1.398-5.71-2.659-1.238-1.262-1.858-2.869-1.858-4.824 0-1.682.455-3.131 1.364-4.347.92-1.216 2.21-2.153 3.869-2.812 1.671-.659 3.625-.989 5.864-.989 3.307 0 5.909.699 7.807 2.097 1.909 1.398 3.022 3.301 3.341 5.71zm11.674 19.21c-1.67 0-3.159-.289-4.465-.869-1.307-.591-2.341-1.46-3.103-2.608-.75-1.159-1.125-2.602-1.125-4.329 0-1.455.267-2.677.801-3.665a6.503 6.503 0 0 1 2.182-2.387c.921-.602 1.966-1.056 3.137-1.363a23.858 23.858 0 0 1 3.716-.648 94.542 94.542 0 0 0 3.681-.443c.932-.148 1.608-.364 2.029-.648.42-.284.63-.704.63-1.261v-.103c0-1.079-.34-1.914-1.022-2.505-.671-.591-1.625-.887-2.864-.887-1.307 0-2.347.29-3.119.87-.773.568-1.284 1.284-1.534 2.147l-6.716-.545c.341-1.591 1.011-2.966 2.011-4.125 1-1.17 2.29-2.068 3.869-2.693 1.591-.637 3.432-.955 5.523-.955 1.455 0 2.847.171 4.176.512 1.341.341 2.529.869 3.563 1.585a7.704 7.704 0 0 1 2.471 2.761c.603 1.114.904 2.449.904 4.006V208h-6.887v-3.631h-.204a7.383 7.383 0 0 1-1.688 2.165c-.704.614-1.551 1.097-2.539 1.449-.989.341-2.131.511-3.427.511zm2.08-5.011c1.068 0 2.011-.21 2.83-.631.818-.432 1.46-1.011 1.926-1.738.466-.728.699-1.552.699-2.472v-2.778c-.228.147-.54.284-.938.409-.386.113-.824.221-1.312.324a69.2 69.2 0 0 1-1.466.255c-.489.068-.932.131-1.33.188-.852.125-1.596.324-2.233.596-.636.273-1.131.642-1.483 1.108-.352.455-.528 1.023-.528 1.705 0 .989.358 1.744 1.074 2.267.727.511 1.647.767 2.761.767zm24.6-30.392V208h-7.262v-34.909h7.262zm16.788 35.42c-2.693 0-5.011-.545-6.954-1.636-1.932-1.102-3.421-2.659-4.466-4.67-1.046-2.023-1.568-4.415-1.568-7.177 0-2.693.522-5.056 1.568-7.09 1.045-2.035 2.517-3.62 4.415-4.756 1.909-1.137 4.147-1.705 6.716-1.705 1.727 0 3.335.279 4.823.835 1.5.546 2.807 1.37 3.921 2.472 1.125 1.102 2 2.489 2.625 4.159.625 1.659.937 3.602.937 5.83v1.994h-22.108v-4.5h15.273c0-1.045-.227-1.972-.682-2.778a4.874 4.874 0 0 0-1.892-1.892c-.795-.466-1.721-.699-2.778-.699-1.102 0-2.08.255-2.932.767-.841.5-1.5 1.176-1.977 2.028-.478.841-.722 1.779-.733 2.813v4.278c0 1.296.238 2.415.716 3.358a5.242 5.242 0 0 0 2.062 2.182c.887.511 1.938.767 3.154.767a6.88 6.88 0 0 0 2.216-.341 4.589 4.589 0 0 0 1.721-1.023 4.445 4.445 0 0 0 1.091-1.67l6.716.443c-.341 1.614-1.04 3.023-2.097 4.227-1.045 1.193-2.397 2.125-4.056 2.796-1.648.659-3.552.988-5.711.988zm37.58-19.227-6.648.409a3.433 3.433 0 0 0-.733-1.534c-.375-.466-.869-.835-1.483-1.108-.602-.284-1.323-.426-2.164-.426-1.125 0-2.074.239-2.847.716-.773.466-1.159 1.091-1.159 1.875 0 .625.25 1.153.75 1.585.5.432 1.358.779 2.574 1.04l4.738.954c2.546.523 4.444 1.364 5.694 2.523s1.875 2.682 1.875 4.568c0 1.716-.506 3.222-1.517 4.517-1 1.296-2.375 2.307-4.125 3.035-1.739.715-3.745 1.073-6.017 1.073-3.466 0-6.228-.721-8.285-2.164-2.045-1.455-3.244-3.432-3.596-5.932l7.142-.375c.216 1.057.739 1.863 1.568 2.42.83.546 1.892.818 3.188.818 1.272 0 2.295-.244 3.068-.733.784-.5 1.182-1.142 1.193-1.926-.011-.659-.29-1.199-.835-1.619-.546-.432-1.387-.761-2.523-.989l-4.534-.903c-2.557-.511-4.46-1.398-5.71-2.659-1.239-1.262-1.858-2.869-1.858-4.824 0-1.682.454-3.131 1.363-4.347.921-1.216 2.211-2.153 3.87-2.812 1.67-.659 3.625-.989 5.863-.989 3.307 0 5.909.699 7.807 2.097 1.909 1.398 3.023 3.301 3.341 5.71z"/><path fill="#EDF5FE" d="M619.859 457.141c.63.63 1.652.63 2.282 0l10.267-10.267a1.614 1.614 0 0 0-2.282-2.282L621 453.718l-9.126-9.126a1.614 1.614 0 0 0-2.282 2.282l10.267 10.267zM619.387 425v15.759h3.226V425h-3.226zm0 15.759v10.999h3.226v-10.999h-3.226zm0 10.999V456h3.226v-4.242h-3.226zm.472 182.383c.63.63 1.652.63 2.282 0l10.267-10.267a1.614 1.614 0 0 0-2.282-2.282L621 630.718l-9.126-9.126a1.614 1.614 0 0 0-2.282 2.282l10.267 10.267zM619.387 602v15.759h3.226V602h-3.226zm0 15.759v10.999h3.226v-10.999h-3.226zm0 10.999V633h3.226v-4.242h-3.226z"/><path fill="#050520" d="M745 464H497c-39.765 0-72 32.235-72 72s32.235 72 72 72h248c39.764 0 72-32.235 72-72s-32.236-72-72-72z"/><path fill="#fff" d="M604.404 531.125c-.106-.992-.553-1.765-1.341-2.318-.78-.553-1.796-.83-3.046-.83-.878 0-1.632.133-2.261.398-.629.265-1.11.625-1.443 1.08a2.62 2.62 0 0 0-.511 1.556c0 .485.109.906.329 1.262.227.356.534.659.921.909.386.242.814.447 1.284.613.469.167.943.307 1.42.421l2.182.545c.879.205 1.723.481 2.534.83a8.928 8.928 0 0 1 2.193 1.318 5.846 5.846 0 0 1 1.546 1.921c.378.75.568 1.628.568 2.636 0 1.364-.349 2.564-1.046 3.602-.697 1.03-1.704 1.837-3.022 2.421-1.311.575-2.898.863-4.762.863-1.81 0-3.382-.28-4.716-.841-1.325-.56-2.363-1.378-3.113-2.454-.743-1.076-1.144-2.387-1.205-3.932h4.148c.061.811.311 1.485.75 2.023s1.011.939 1.716 1.204c.712.265 1.507.398 2.386.398.917 0 1.72-.136 2.409-.409.697-.28 1.243-.667 1.637-1.159.394-.5.594-1.084.602-1.75-.008-.606-.186-1.106-.534-1.5-.349-.402-.837-.735-1.466-1a14.093 14.093 0 0 0-2.182-.727l-2.648-.682c-1.916-.493-3.431-1.239-4.545-2.239-1.106-1.007-1.659-2.345-1.659-4.011 0-1.371.371-2.572 1.113-3.603.75-1.03 1.769-1.829 3.057-2.397 1.288-.576 2.746-.864 4.375-.864 1.652 0 3.099.288 4.341.864 1.25.568 2.231 1.36 2.943 2.375.712 1.007 1.08 2.166 1.103 3.477h-4.057zm16.484 9.057h3.818l2.261 2.932 1.614 1.909 3.875 4.977h-4.091l-2.636-3.341-1.125-1.591-3.716-4.886zm12.125-3.818c0 2.507-.47 4.655-1.409 6.443-.932 1.78-2.205 3.144-3.818 4.091-1.607.947-3.429 1.42-5.466 1.42-2.038 0-3.864-.473-5.478-1.42-1.606-.955-2.878-2.322-3.818-4.103-.932-1.787-1.398-3.931-1.398-6.431 0-2.508.466-4.652 1.398-6.432.94-1.788 2.212-3.155 3.818-4.102 1.614-.947 3.44-1.421 5.478-1.421 2.037 0 3.859.474 5.466 1.421 1.613.947 2.886 2.314 3.818 4.102.939 1.78 1.409 3.924 1.409 6.432zm-4.239 0c0-1.766-.276-3.254-.829-4.466-.546-1.22-1.303-2.14-2.273-2.762-.97-.628-2.087-.943-3.352-.943-1.266 0-2.383.315-3.353.943-.969.622-1.731 1.542-2.284 2.762-.545 1.212-.818 2.7-.818 4.466 0 1.765.273 3.257.818 4.477.553 1.212 1.315 2.132 2.284 2.761.97.621 2.087.932 3.353.932 1.265 0 2.382-.311 3.352-.932.97-.629 1.727-1.549 2.273-2.761.553-1.22.829-2.712.829-4.477zM636.71 548v-23.273h4.216v19.739h10.25V548H636.71z"/><path fill="#050520" d="M745 287H497c-39.765 0-72 32.235-72 72s32.235 72 72 72h248c39.764 0 72-32.235 72-72s-32.236-72-72-72z"/><path fill="#fff" d="M587.647 347.727h5.159l6.909 16.864h.273l6.909-16.864h5.159V371h-4.046v-15.989h-.216l-6.431 15.921h-3.023l-6.432-15.955h-.216V371h-4.045v-23.273zm37.35 15.455h3.818l2.262 2.932 1.613 1.909 3.875 4.977h-4.091l-2.636-3.341-1.125-1.591-3.716-4.886zm12.125-3.818c0 2.507-.47 4.655-1.409 6.443-.932 1.78-2.204 3.144-3.818 4.091-1.606.947-3.428 1.42-5.466 1.42-2.038 0-3.864-.473-5.477-1.42-1.606-.955-2.879-2.322-3.818-4.103-.932-1.787-1.398-3.931-1.398-6.431 0-2.508.466-4.652 1.398-6.432.939-1.788 2.212-3.155 3.818-4.102 1.613-.947 3.439-1.421 5.477-1.421 2.038 0 3.86.474 5.466 1.421 1.614.947 2.886 2.314 3.818 4.102.939 1.78 1.409 3.924 1.409 6.432zm-4.238 0c0-1.766-.277-3.254-.83-4.466-.545-1.22-1.303-2.14-2.273-2.762-.969-.628-2.087-.943-3.352-.943-1.265 0-2.383.315-3.352.943-.97.622-1.731 1.542-2.284 2.762-.546 1.212-.819 2.7-.819 4.466 0 1.765.273 3.257.819 4.477.553 1.212 1.314 2.132 2.284 2.761.969.621 2.087.932 3.352.932 1.265 0 2.383-.311 3.352-.932.97-.629 1.728-1.549 2.273-2.761.553-1.22.83-2.712.83-4.477zM640.819 371v-23.273h4.216v19.739h10.25V371h-14.466z"/><path fill="#050520" d="M745 641H497c-39.765 0-72 32.235-72 72s32.235 72 72 72h248c39.764 0 72-32.235 72-72s-32.236-72-72-72z"/><path fill="#fff" d="M510.919 725v-23.273h8.727c1.788 0 3.288.334 4.5 1 1.22.667 2.14 1.584 2.761 2.75.629 1.159.943 2.478.943 3.955 0 1.492-.314 2.818-.943 3.977-.629 1.159-1.557 2.072-2.784 2.739-1.227.659-2.739.988-4.534.988h-5.784v-3.466h5.216c1.045 0 1.901-.181 2.568-.545.667-.364 1.159-.864 1.477-1.5.326-.636.489-1.367.489-2.193 0-.826-.163-1.553-.489-2.182-.318-.629-.814-1.117-1.488-1.466-.667-.356-1.527-.534-2.58-.534h-3.864V725h-4.215zm20.092 0v-17.455h3.988v2.91h.182c.318-1.008.864-1.785 1.636-2.33.781-.553 1.671-.83 2.671-.83.227 0 .481.012.761.035.288.015.527.041.716.079v3.784c-.174-.06-.451-.113-.829-.159a7.655 7.655 0 0 0-1.08-.079c-.75 0-1.424.162-2.023.488a3.568 3.568 0 0 0-1.397 1.33c-.341.568-.512 1.223-.512 1.966V725h-4.113zm19.262.341c-1.705 0-3.182-.375-4.432-1.125-1.25-.75-2.22-1.799-2.909-3.148-.682-1.348-1.023-2.924-1.023-4.727 0-1.803.341-3.383 1.023-4.739.689-1.356 1.659-2.409 2.909-3.159 1.25-.75 2.727-1.125 4.432-1.125 1.704 0 3.182.375 4.432 1.125 1.25.75 2.216 1.803 2.897 3.159.69 1.356 1.035 2.936 1.035 4.739s-.345 3.379-1.035 4.727c-.681 1.349-1.647 2.398-2.897 3.148-1.25.75-2.728 1.125-4.432 1.125zm.023-3.296c.924 0 1.697-.253 2.318-.761.621-.515 1.083-1.204 1.386-2.068.311-.864.466-1.826.466-2.886 0-1.069-.155-2.035-.466-2.898-.303-.871-.765-1.565-1.386-2.08-.621-.515-1.394-.772-2.318-.772-.947 0-1.735.257-2.364.772-.621.515-1.087 1.209-1.398 2.08-.303.863-.454 1.829-.454 2.898 0 1.06.151 2.022.454 2.886.311.864.777 1.553 1.398 2.068.629.508 1.417.761 2.364.761zm17.989 3.262c-1.371 0-2.598-.352-3.682-1.057-1.083-.705-1.939-1.727-2.568-3.068s-.943-2.97-.943-4.887c0-1.939.318-3.575.955-4.909.644-1.341 1.511-2.352 2.602-3.034 1.091-.689 2.307-1.034 3.648-1.034 1.022 0 1.863.174 2.522.523.659.341 1.182.754 1.569 1.239.386.477.685.928.897 1.352h.171v-8.705h4.125V725h-4.046v-2.75h-.25c-.212.424-.519.875-.92 1.352-.402.47-.932.871-1.591 1.205-.659.333-1.489.5-2.489.5zm1.148-3.375c.871 0 1.614-.235 2.227-.705.614-.477 1.08-1.14 1.398-1.988.318-.849.477-1.837.477-2.966 0-1.129-.159-2.11-.477-2.943-.311-.834-.773-1.482-1.386-1.944-.606-.462-1.353-.693-2.239-.693-.917 0-1.682.239-2.295.716-.614.477-1.076 1.136-1.387 1.977-.31.841-.466 1.803-.466 2.887 0 1.091.156 2.064.466 2.92.318.849.784 1.519 1.398 2.012.621.484 1.382.727 2.284.727zm23.336-4.273v-10.114h4.114V725h-3.989v-3.102h-.182c-.393.977-1.041 1.776-1.943 2.397-.894.622-1.996.932-3.307.932-1.143 0-2.155-.254-3.034-.761-.871-.515-1.553-1.261-2.045-2.239-.493-.985-.739-2.174-.739-3.568v-11.114h4.114v10.478c0 1.106.303 1.985.909 2.636.606.652 1.402.977 2.386.977.606 0 1.194-.147 1.762-.443a3.576 3.576 0 0 0 1.397-1.318c.372-.591.557-1.33.557-2.216zm15.638 7.682c-1.743 0-3.239-.383-4.489-1.148-1.242-.765-2.201-1.822-2.875-3.17-.667-1.356-1-2.917-1-4.682 0-1.773.341-3.337 1.023-4.693.682-1.364 1.644-2.425 2.886-3.182 1.25-.765 2.727-1.148 4.432-1.148 1.417 0 2.67.262 3.761.784 1.099.515 1.974 1.246 2.625 2.193.652.94 1.023 2.038 1.114 3.296h-3.932c-.159-.841-.538-1.542-1.136-2.102-.591-.569-1.383-.853-2.375-.853-.841 0-1.58.228-2.216.682-.637.447-1.133 1.091-1.489 1.932-.348.841-.523 1.848-.523 3.023 0 1.189.175 2.212.523 3.068.349.848.837 1.504 1.466 1.966.636.454 1.383.682 2.239.682.606 0 1.147-.114 1.625-.341.485-.235.89-.572 1.216-1.012.325-.439.549-.973.67-1.602h3.932c-.099 1.235-.462 2.33-1.091 3.284-.629.947-1.485 1.69-2.568 2.227-1.083.531-2.356.796-3.818.796zm19.251-17.796v3.182h-10.034v-3.182h10.034zm-7.557-4.181h4.113v16.386c0 .553.084.977.25 1.273.175.288.402.485.682.591.281.106.591.159.932.159.258 0 .493-.019.705-.057.219-.038.386-.072.5-.102l.693 3.216c-.22.075-.534.159-.943.25-.402.09-.894.143-1.478.159-1.03.03-1.958-.125-2.784-.466a4.341 4.341 0 0 1-1.966-1.614c-.477-.727-.712-1.636-.704-2.727v-17.068zm33.147-1.637h4.216v15.205c0 1.666-.394 3.132-1.182 4.398-.78 1.265-1.879 2.253-3.296 2.965-1.416.705-3.072 1.057-4.965 1.057-1.902 0-3.561-.352-4.978-1.057-1.416-.712-2.515-1.7-3.295-2.965-.781-1.266-1.171-2.732-1.171-4.398v-15.205h4.216v14.853c0 .969.212 1.833.637 2.59a4.618 4.618 0 0 0 1.818 1.785c.78.424 1.704.636 2.773.636 1.068 0 1.992-.212 2.772-.636a4.528 4.528 0 0 0 1.818-1.785c.425-.757.637-1.621.637-2.59v-14.853zm22.092 10.432-3.75.409a3.01 3.01 0 0 0-.557-1.068 2.774 2.774 0 0 0-1.046-.807c-.439-.204-.977-.307-1.613-.307-.856 0-1.576.186-2.159.557-.576.371-.86.852-.853 1.443-.007.508.178.921.557 1.239.387.318 1.023.58 1.909.784l2.978.636c1.651.357 2.878.921 3.681 1.694.811.772 1.22 1.784 1.228 3.034-.008 1.098-.33 2.068-.966 2.909-.629.833-1.504 1.485-2.625 1.954-1.121.47-2.409.705-3.864.705-2.136 0-3.856-.447-5.159-1.341-1.303-.902-2.079-2.155-2.329-3.761l4.011-.387c.182.788.568 1.383 1.159 1.784.591.402 1.36.603 2.307.603.977 0 1.761-.201 2.352-.603.599-.401.898-.897.898-1.488 0-.5-.193-.913-.58-1.239-.379-.326-.969-.576-1.772-.75l-2.978-.625c-1.674-.348-2.913-.936-3.716-1.761-.803-.834-1.2-1.887-1.193-3.159-.007-1.076.284-2.008.875-2.796.599-.795 1.428-1.409 2.489-1.841 1.068-.439 2.299-.659 3.693-.659 2.045 0 3.655.436 4.83 1.307 1.181.871 1.912 2.049 2.193 3.534zm8.469 13.193c-1.106 0-2.102-.197-2.988-.591a4.872 4.872 0 0 1-2.091-1.772c-.508-.781-.761-1.743-.761-2.887 0-.985.181-1.799.545-2.443a4.219 4.219 0 0 1 1.489-1.545 7.48 7.48 0 0 1 2.125-.875 17.208 17.208 0 0 1 2.466-.444c1.022-.106 1.852-.2 2.488-.284.637-.091 1.099-.227 1.387-.409.295-.189.443-.481.443-.875v-.068c0-.856-.254-1.519-.762-1.989-.507-.469-1.238-.704-2.193-.704-1.007 0-1.807.22-2.398.659-.583.439-.977.958-1.181 1.557l-3.841-.546c.303-1.06.803-1.947 1.5-2.659.697-.719 1.549-1.257 2.557-1.613 1.007-.364 2.121-.546 3.34-.546.841 0 1.679.099 2.512.296a7.055 7.055 0 0 1 2.284.977c.689.447 1.242 1.057 1.659 1.829.424.773.636 1.739.636 2.898V725h-3.954v-2.398h-.137c-.25.485-.602.94-1.056 1.364-.447.417-1.012.754-1.694 1.011-.674.25-1.465.375-2.375.375zm1.069-3.022c.825 0 1.541-.163 2.147-.489.606-.333 1.072-.773 1.398-1.318.333-.546.5-1.14.5-1.784v-2.057c-.129.106-.348.204-.659.295a9.255 9.255 0 0 1-1.023.239 31.26 31.26 0 0 1-1.125.182l-.966.136a7.19 7.19 0 0 0-1.647.409c-.485.19-.868.455-1.148.796-.28.333-.421.765-.421 1.295 0 .758.277 1.33.83 1.716.553.386 1.258.58 2.114.58zm19.555 9.579c-1.478 0-2.747-.201-3.807-.602-1.061-.394-1.913-.924-2.557-1.591-.644-.667-1.091-1.405-1.341-2.216l3.705-.898c.166.341.409.678.727 1.012.318.341.746.621 1.284.841.545.227 1.231.34 2.057.34 1.167 0 2.132-.284 2.898-.852.765-.56 1.147-1.485 1.147-2.773v-3.306h-.204c-.212.424-.523.859-.932 1.306-.402.447-.936.822-1.602 1.125-.659.303-1.489.455-2.489.455-1.341 0-2.557-.314-3.648-.943-1.083-.637-1.947-1.584-2.591-2.841-.636-1.265-.954-2.849-.954-4.75 0-1.917.318-3.534.954-4.852.644-1.326 1.512-2.33 2.603-3.012 1.091-.689 2.306-1.034 3.647-1.034 1.023 0 1.864.174 2.523.523.667.341 1.197.754 1.591 1.239.394.477.693.928.898 1.352h.227v-2.887h4.057v17.739c0 1.493-.356 2.727-1.068 3.705-.712.977-1.686 1.708-2.921 2.193-1.235.485-2.636.727-4.204.727zm.034-10.386c.871 0 1.613-.212 2.227-.637.614-.424 1.08-1.034 1.398-1.829.318-.796.477-1.75.477-2.864 0-1.098-.159-2.06-.477-2.886-.311-.826-.773-1.466-1.387-1.921-.606-.462-1.352-.693-2.238-.693-.917 0-1.682.239-2.296.716-.613.477-1.075 1.133-1.386 1.966-.311.826-.466 1.765-.466 2.818 0 1.068.155 2.004.466 2.807.318.795.784 1.417 1.398 1.864.621.439 1.382.659 2.284.659zm19.782 3.818c-1.75 0-3.261-.364-4.534-1.091-1.265-.735-2.239-1.773-2.92-3.114-.682-1.348-1.023-2.935-1.023-4.761 0-1.795.341-3.371 1.023-4.727.689-1.364 1.651-2.425 2.886-3.182 1.235-.765 2.685-1.148 4.352-1.148 1.076 0 2.091.174 3.046.523.962.341 1.81.871 2.545 1.591.742.72 1.326 1.636 1.75 2.75.424 1.106.636 2.424.636 3.954v1.262h-14.306v-2.773h10.363c-.007-.788-.178-1.489-.511-2.102a3.714 3.714 0 0 0-1.398-1.466c-.591-.356-1.28-.534-2.068-.534-.841 0-1.58.204-2.216.613a4.236 4.236 0 0 0-1.489 1.591 4.592 4.592 0 0 0-.534 2.148v2.42c0 1.016.186 1.887.557 2.614.371.72.89 1.273 1.557 1.659.667.379 1.447.568 2.341.568a4.97 4.97 0 0 0 1.625-.25 3.603 3.603 0 0 0 1.261-.761c.356-.333.625-.746.807-1.239l3.841.432a5.989 5.989 0 0 1-1.386 2.659c-.675.75-1.538 1.334-2.591 1.75-1.053.409-2.258.614-3.614.614zM201.418 334.64h3.869l5.182 12.647h.204l5.182-12.647h3.869v17.454h-3.034v-11.991h-.162l-4.823 11.94h-2.268l-4.823-11.966h-.162v12.017h-3.034V334.64zm25.14 17.718c-.829 0-1.576-.147-2.241-.443a3.655 3.655 0 0 1-1.568-1.329c-.381-.586-.571-1.307-.571-2.165 0-.739.136-1.349.409-1.832.272-.483.645-.87 1.116-1.16a5.667 5.667 0 0 1 1.594-.656 13.006 13.006 0 0 1 1.849-.332 77.48 77.48 0 0 0 1.867-.213c.477-.068.824-.171 1.04-.307.221-.142.332-.361.332-.656v-.051c0-.642-.19-1.14-.571-1.492-.381-.352-.929-.528-1.645-.528-.756 0-1.355.164-1.798.494-.438.33-.733.719-.887 1.168l-2.88-.409c.227-.796.602-1.461 1.125-1.995a4.888 4.888 0 0 1 1.917-1.21c.756-.273 1.591-.409 2.506-.409.631 0 1.259.074 1.884.221a5.325 5.325 0 0 1 1.713.733 3.69 3.69 0 0 1 1.244 1.373c.318.579.477 1.304.477 2.173v8.761h-2.966v-1.798h-.102a3.765 3.765 0 0 1-.793 1.023c-.335.312-.758.565-1.269.758-.506.188-1.1.281-1.782.281zm.801-2.267c.62 0 1.157-.122 1.611-.366.455-.25.804-.58 1.049-.989.25-.409.375-.855.375-1.338v-1.542c-.097.079-.262.153-.495.221a6.996 6.996 0 0 1-.767.179c-.284.051-.565.097-.844.137l-.724.102c-.46.062-.872.165-1.236.307-.363.142-.65.341-.861.596-.21.25-.315.574-.315.972 0 .568.207.997.622 1.287.415.29.943.434 1.585.434zm8.973 2.003v-13.091h2.992v2.182h.136c.239-.756.648-1.338 1.228-1.747a3.373 3.373 0 0 1 2.002-.622c.171 0 .361.008.571.025a4 4 0 0 1 .537.06v2.838a3.267 3.267 0 0 0-.622-.119 5.683 5.683 0 0 0-.809-.06 3.11 3.11 0 0 0-1.517.367 2.676 2.676 0 0 0-1.049.997c-.255.426-.383.917-.383 1.474v7.696h-3.086zm12.089-4.108-.009-3.724h.494l4.705-5.259h3.605l-5.787 6.444h-.639l-2.369 2.539zm-2.813 4.108V334.64h3.085v17.454h-3.085zm8.216 0-4.261-5.957 2.079-2.173 5.872 8.13h-3.69zm10.465.256c-1.313 0-2.446-.273-3.401-.818a5.54 5.54 0 0 1-2.19-2.335c-.512-1.012-.767-2.202-.767-3.572 0-1.346.255-2.528.767-3.545.517-1.023 1.238-1.818 2.164-2.386.927-.574 2.015-.861 3.265-.861a6.62 6.62 0 0 1 2.284.392 5.166 5.166 0 0 1 1.909 1.193c.557.54.994 1.227 1.312 2.063.319.829.478 1.818.478 2.966v.946h-10.731v-2.08h7.773c-.005-.591-.133-1.116-.383-1.577-.25-.466-.6-.832-1.049-1.099-.443-.267-.96-.401-1.551-.401-.63 0-1.184.154-1.662.461a3.165 3.165 0 0 0-1.116 1.193 3.426 3.426 0 0 0-.401 1.61v1.816c0 .761.139 1.415.418 1.96.278.54.668.955 1.168 1.244.5.284 1.085.427 1.755.427.449 0 .855-.063 1.219-.188.364-.131.679-.321.946-.571.267-.25.469-.56.605-.929l2.881.324a4.497 4.497 0 0 1-1.04 1.994c-.506.563-1.153 1-1.943 1.313-.79.307-1.693.46-2.71.46zm14.728-13.347v2.387h-7.526v-2.387h7.526zm-5.668-3.136h3.085v12.29c0 .415.063.733.188.954.13.216.301.364.511.443.21.08.443.12.699.12.193 0 .369-.014.528-.043.165-.028.29-.054.375-.077l.52 2.412c-.165.057-.4.12-.707.188a5.784 5.784 0 0 1-1.108.119c-.773.023-1.469-.094-2.088-.349a3.26 3.26 0 0 1-1.475-1.21c-.358-.546-.534-1.228-.528-2.046v-12.801zm8.008 16.227v-13.091h3.085v13.091h-3.085zm1.551-14.949a1.8 1.8 0 0 1-1.261-.485c-.353-.33-.529-.725-.529-1.185 0-.466.176-.861.529-1.185a1.783 1.783 0 0 1 1.261-.494c.494 0 .915.165 1.261.494.353.324.529.719.529 1.185 0 .46-.176.855-.529 1.185a1.782 1.782 0 0 1-1.261.485zm7.552 7.279v7.67h-3.085v-13.091h2.949v2.225h.153a3.736 3.736 0 0 1 1.44-1.747c.665-.432 1.486-.648 2.463-.648.904 0 1.691.193 2.361.579a3.906 3.906 0 0 1 1.568 1.679c.375.733.56 1.623.554 2.668v8.335h-3.085v-7.858c0-.875-.227-1.559-.682-2.054-.449-.494-1.071-.741-1.866-.741-.54 0-1.02.119-1.441.358a2.49 2.49 0 0 0-.98 1.014c-.233.443-.349.98-.349 1.611zm16.993 12.852c-1.108 0-2.06-.151-2.855-.452-.796-.295-1.435-.693-1.918-1.193a4.136 4.136 0 0 1-1.006-1.662l2.779-.673c.125.256.307.508.545.758.239.256.56.466.963.631.409.171.924.256 1.543.256.875 0 1.599-.213 2.173-.639.574-.421.861-1.114.861-2.08v-2.48h-.153a4.37 4.37 0 0 1-.699.98c-.301.335-.702.617-1.202.844-.494.227-1.116.341-1.866.341-1.006 0-1.918-.236-2.736-.708-.813-.477-1.46-1.187-1.943-2.13-.478-.949-.716-2.137-.716-3.563 0-1.437.238-2.65.716-3.639.483-.994 1.133-1.747 1.951-2.259a5.017 5.017 0 0 1 2.736-.775c.767 0 1.398.131 1.892.392.5.256.898.565 1.193.929.296.358.52.696.674 1.014h.17v-2.165h3.043v13.304c0 1.12-.267 2.046-.801 2.779-.534.733-1.265 1.281-2.191 1.645-.926.363-1.977.545-3.153.545zm.025-7.79c.654 0 1.211-.159 1.671-.477.46-.318.81-.776 1.048-1.372.239-.597.358-1.313.358-2.148 0-.824-.119-1.545-.358-2.165-.233-.619-.579-1.099-1.04-1.44-.454-.347-1.014-.52-1.679-.52-.687 0-1.261.179-1.721.537-.46.358-.807.849-1.04 1.474-.233.62-.349 1.324-.349 2.114 0 .801.116 1.503.349 2.105.239.597.588 1.063 1.048 1.398.466.33 1.037.494 1.713.494zm-106.255 21.517v2.387h-7.738v-2.387h7.738zm-5.804 13.091v-14.326c0-.881.182-1.614.546-2.199a3.443 3.443 0 0 1 1.483-1.313c.619-.29 1.307-.434 2.062-.434.534 0 1.009.042 1.424.127.414.086.721.162.92.23l-.614 2.387c-.13-.04-.295-.08-.494-.119a2.954 2.954 0 0 0-.665-.069c-.574 0-.98.14-1.218.418-.233.273-.35.665-.35 1.176v14.122h-3.094zm7.981 0v-13.091h3.085v13.091H203.4zm1.551-14.949c-.489 0-.909-.162-1.262-.485-.352-.33-.528-.725-.528-1.185 0-.466.176-.861.528-1.185a1.787 1.787 0 0 1 1.262-.494c.494 0 .914.165 1.261.494.352.324.528.719.528 1.185 0 .46-.176.855-.528 1.185a1.784 1.784 0 0 1-1.261.485zm7.552 7.279v7.67h-3.086v-13.091h2.949v2.225h.154a3.736 3.736 0 0 1 1.44-1.747c.665-.432 1.486-.648 2.463-.648.903 0 1.69.193 2.361.579a3.906 3.906 0 0 1 1.568 1.679c.375.733.56 1.623.554 2.668v8.335h-3.085v-7.858c0-.875-.228-1.559-.682-2.054-.449-.494-1.071-.741-1.867-.741-.539 0-1.019.119-1.44.358a2.483 2.483 0 0 0-.98 1.014c-.233.443-.349.98-.349 1.611zm16.157 7.9c-1.028 0-1.949-.264-2.761-.792-.813-.529-1.455-1.296-1.926-2.301-.472-1.006-.708-2.228-.708-3.665 0-1.455.239-2.682.716-3.682.483-1.006 1.134-1.764 1.952-2.276a5.015 5.015 0 0 1 2.736-.775c.767 0 1.398.131 1.892.392.494.256.886.565 1.176.929.29.358.514.696.673 1.014h.128v-6.528h3.094v17.454h-3.034v-2.062h-.188a5.277 5.277 0 0 1-.69 1.014c-.301.352-.699.653-1.193.903-.495.25-1.117.375-1.867.375zm.861-2.531c.653 0 1.21-.176 1.671-.528.46-.358.809-.855 1.048-1.492.238-.636.358-1.378.358-2.224 0-.847-.12-1.583-.358-2.208-.233-.625-.58-1.11-1.04-1.457-.454-.347-1.014-.52-1.679-.52-.687 0-1.261.179-1.722.537-.46.358-.806.852-1.039 1.483-.233.631-.35 1.352-.35 2.165 0 .818.117 1.548.35 2.19.238.636.588 1.139 1.048 1.509.466.363 1.037.545 1.713.545zm19.505-7.329-2.812.306a2.266 2.266 0 0 0-.418-.801 2.082 2.082 0 0 0-.784-.605c-.33-.153-.733-.23-1.21-.23-.642 0-1.182.139-1.62.418-.431.278-.645.639-.639 1.082-.006.381.134.69.418.929.29.239.767.435 1.432.588l2.233.477c1.238.267 2.159.691 2.761 1.27.608.58.915 1.338.92 2.276a3.558 3.558 0 0 1-.724 2.182c-.472.625-1.128 1.113-1.969 1.466-.841.352-1.807.528-2.898.528-1.602 0-2.892-.335-3.869-1.006-.977-.676-1.56-1.616-1.747-2.821l3.009-.29c.136.591.426 1.037.869 1.339.443.301 1.02.451 1.73.451.733 0 1.321-.15 1.764-.451.449-.302.673-.674.673-1.117 0-.375-.144-.685-.434-.929-.284-.244-.727-.432-1.33-.562l-2.233-.469c-1.255-.262-2.184-.702-2.787-1.321-.602-.625-.9-1.415-.895-2.37-.005-.806.214-1.505.657-2.096.449-.597 1.071-1.057 1.866-1.381.801-.329 1.725-.494 2.77-.494 1.534 0 2.742.327 3.622.98.887.653 1.435 1.537 1.645 2.651zm8.435 9.63V366.64h3.085v6.528h.128c.159-.318.383-.656.673-1.014.29-.364.682-.673 1.176-.929.495-.261 1.125-.392 1.892-.392 1.012 0 1.924.258 2.736.775.818.512 1.466 1.27 1.943 2.276.483 1 .725 2.227.725 3.682 0 1.437-.236 2.659-.708 3.665-.471 1.005-1.113 1.772-1.926 2.301-.812.528-1.733.792-2.761.792-.75 0-1.372-.125-1.867-.375-.494-.25-.892-.551-1.193-.903a5.892 5.892 0 0 1-.69-1.014h-.179v2.062h-3.034zm3.025-6.545c0 .846.12 1.588.358 2.224.245.637.594 1.134 1.049 1.492.46.352 1.017.528 1.67.528.682 0 1.253-.182 1.713-.545.46-.37.807-.873 1.04-1.509.239-.642.358-1.372.358-2.19 0-.813-.117-1.534-.349-2.165-.233-.631-.58-1.125-1.04-1.483-.46-.358-1.034-.537-1.722-.537-.659 0-1.219.173-1.679.52-.46.347-.809.832-1.048 1.457-.233.625-.35 1.361-.35 2.208zm20.059 1.04v-7.586h3.086v13.091h-2.992v-2.326h-.136a3.94 3.94 0 0 1-1.458 1.798c-.67.466-1.497.699-2.48.699-.858 0-1.616-.191-2.275-.571-.654-.387-1.165-.946-1.534-1.679-.37-.739-.554-1.631-.554-2.676v-8.336h3.085v7.858c0 .83.227 1.489.682 1.978.454.488 1.051.733 1.79.733a2.83 2.83 0 0 0 1.321-.333 2.682 2.682 0 0 0 1.048-.989c.278-.443.417-.997.417-1.661zm7.936 10.414c-.421 0-.81-.034-1.168-.102a4.224 4.224 0 0 1-.843-.222l.715-2.403c.449.131.85.193 1.202.188.352-.006.662-.117.929-.333.273-.21.503-.562.69-1.057l.265-.707-4.747-13.364h3.272l3.017 9.887h.137l3.025-9.887h3.281l-5.241 14.676a5.862 5.862 0 0 1-.972 1.782c-.403.5-.897.88-1.483 1.142-.579.267-1.272.4-2.079.4zm17.021-4.653c-1.313 0-2.446-.273-3.401-.818a5.54 5.54 0 0 1-2.19-2.335c-.512-1.012-.767-2.202-.767-3.572 0-1.346.255-2.528.767-3.545.517-1.023 1.238-1.818 2.164-2.386.927-.574 2.015-.861 3.265-.861a6.62 6.62 0 0 1 2.284.392 5.166 5.166 0 0 1 1.909 1.193c.557.54.994 1.227 1.312 2.063.318.829.478 1.818.478 2.966v.946h-10.731v-2.08h7.773c-.006-.591-.133-1.116-.383-1.577-.25-.466-.6-.832-1.049-1.099-.443-.267-.96-.401-1.551-.401-.63 0-1.184.154-1.662.461a3.165 3.165 0 0 0-1.116 1.193 3.426 3.426 0 0 0-.401 1.61v1.816c0 .761.139 1.415.418 1.96.278.54.667.955 1.167 1.244.5.284 1.086.427 1.756.427.449 0 .855-.063 1.219-.188.364-.131.679-.321.946-.571.267-.25.469-.56.605-.929l2.881.324a4.497 4.497 0 0 1-1.04 1.994c-.506.563-1.153 1-1.943 1.313-.79.307-1.693.46-2.71.46zm8.191-.256v-13.091h2.991v2.182h.136c.239-.756.648-1.338 1.228-1.747a3.376 3.376 0 0 1 2.003-.622c.17 0 .36.008.571.025a4 4 0 0 1 .537.06v2.838a3.298 3.298 0 0 0-.623-.119 5.683 5.683 0 0 0-.809-.06c-.563 0-1.068.122-1.517.367a2.683 2.683 0 0 0-1.049.997c-.255.426-.383.917-.383 1.474v7.696h-3.085z"/><path fill="#fff" fill-opacity=".1" d="M363 313H150a6 6 0 0 0-6 6v80a6 6 0 0 0 6 6h213a6 6 0 0 0 6-6v-80a6 6 0 0 0-6-6z"/><path fill="#fff" d="M202.975 516.438c-.079-.744-.414-1.324-1.005-1.739-.585-.414-1.347-.622-2.284-.622-.659 0-1.225.1-1.696.298-.472.199-.833.469-1.083.81-.25.341-.378.73-.383 1.168 0 .363.082.679.247.946.17.267.4.494.69.682.29.181.611.335.963.46.353.125.708.23 1.066.315l1.636.409c.659.154 1.293.361 1.901.622a6.699 6.699 0 0 1 1.644.989c.489.398.875.878 1.16 1.44.284.563.426 1.222.426 1.978 0 1.022-.262 1.923-.784 2.701-.523.773-1.279 1.378-2.267 1.816-.983.432-2.174.647-3.571.647-1.358 0-2.537-.21-3.537-.63-.995-.421-1.773-1.034-2.336-1.841-.556-.807-.858-1.79-.903-2.949h3.111c.045.608.233 1.114.562 1.517.33.403.759.705 1.287.903a5.096 5.096 0 0 0 1.79.299c.687 0 1.29-.103 1.807-.307.523-.21.932-.5 1.227-.869a2.1 2.1 0 0 0 .452-1.313c-.006-.454-.139-.829-.401-1.125-.261-.301-.628-.551-1.099-.75a10.658 10.658 0 0 0-1.637-.545l-1.985-.512c-1.438-.369-2.574-.929-3.409-1.679-.83-.755-1.245-1.758-1.245-3.008 0-1.029.279-1.929.835-2.702.563-.773 1.327-1.372 2.293-1.798.966-.432 2.06-.648 3.281-.648 1.239 0 2.324.216 3.256.648.937.426 1.673 1.02 2.207 1.781.534.756.81 1.625.827 2.608h-3.043zm9.491 12.92c-.829 0-1.576-.147-2.241-.443a3.655 3.655 0 0 1-1.568-1.329c-.381-.586-.571-1.307-.571-2.165 0-.739.136-1.349.409-1.832.272-.483.645-.87 1.116-1.16a5.667 5.667 0 0 1 1.594-.656 12.98 12.98 0 0 1 1.849-.332 77.48 77.48 0 0 0 1.867-.213c.477-.068.824-.171 1.04-.307.221-.142.332-.361.332-.656v-.051c0-.642-.19-1.14-.571-1.492-.381-.352-.929-.528-1.645-.528-.756 0-1.355.164-1.798.494-.438.33-.733.719-.887 1.168l-2.88-.409c.227-.796.602-1.461 1.125-1.995a4.888 4.888 0 0 1 1.917-1.21c.756-.273 1.591-.409 2.506-.409.631 0 1.259.074 1.884.221a5.325 5.325 0 0 1 1.713.733 3.69 3.69 0 0 1 1.244 1.373c.318.579.477 1.304.477 2.173v8.761h-2.966v-1.798h-.102a3.765 3.765 0 0 1-.793 1.023c-.335.312-.758.565-1.269.758-.506.188-1.1.281-1.782.281zm.801-2.267c.62 0 1.157-.122 1.611-.366.455-.25.804-.58 1.048-.989.25-.409.375-.855.375-1.338v-1.542c-.096.079-.261.153-.494.221a6.996 6.996 0 0 1-.767.179c-.284.051-.565.097-.844.137l-.724.102c-.46.062-.872.165-1.236.307-.363.142-.65.341-.861.596-.21.25-.315.574-.315.972 0 .568.207.997.622 1.287.415.29.943.434 1.585.434zm12.059-15.451v17.454h-3.086V511.64h3.086zm8.728 17.71c-1.313 0-2.446-.273-3.401-.818a5.54 5.54 0 0 1-2.19-2.335c-.512-1.012-.767-2.202-.767-3.572 0-1.346.255-2.528.767-3.545.517-1.023 1.238-1.818 2.165-2.386.926-.574 2.014-.861 3.264-.861.807 0 1.568.131 2.284.392a5.166 5.166 0 0 1 1.909 1.193c.557.54.994 1.227 1.312 2.063.319.829.478 1.818.478 2.966v.946h-10.73v-2.08h7.772c-.005-.591-.133-1.116-.383-1.577-.25-.466-.6-.832-1.048-1.099-.444-.267-.961-.401-1.552-.401-.63 0-1.184.154-1.662.461a3.165 3.165 0 0 0-1.116 1.193 3.438 3.438 0 0 0-.401 1.61v1.816c0 .761.14 1.415.418 1.96.278.54.668.955 1.168 1.244.5.284 1.085.427 1.755.427.449 0 .855-.063 1.219-.188.364-.131.679-.321.946-.571.267-.25.469-.56.605-.929l2.881.324a4.487 4.487 0 0 1-1.04 1.994c-.506.563-1.153 1-1.943 1.313-.79.307-1.693.46-2.71.46zm18.537-9.886-2.812.306a2.266 2.266 0 0 0-.418-.801 2.074 2.074 0 0 0-.784-.605c-.329-.153-.733-.23-1.21-.23-.642 0-1.182.139-1.619.418-.432.278-.645.639-.64 1.082-.005.381.134.69.418.929.29.239.767.435 1.432.588l2.233.477c1.239.267 2.159.691 2.761 1.27.608.58.915 1.338.921 2.276-.006.824-.247 1.551-.725 2.182-.471.625-1.128 1.113-1.968 1.466-.841.352-1.807.528-2.898.528-1.602 0-2.892-.335-3.87-1.006-.977-.676-1.559-1.616-1.747-2.821l3.009-.29c.136.591.426 1.037.869 1.339.443.301 1.02.451 1.73.451.733 0 1.321-.15 1.764-.451.449-.302.674-.674.674-1.117 0-.375-.145-.685-.435-.929-.284-.244-.727-.432-1.329-.562l-2.233-.469c-1.256-.262-2.185-.702-2.787-1.321-.603-.625-.901-1.415-.895-2.37-.006-.806.213-1.505.656-2.096.449-.597 1.071-1.057 1.867-1.381.801-.329 1.724-.494 2.769-.494 1.534 0 2.742.327 3.623.98.886.653 1.434 1.537 1.644 2.651zm8.299 14.539v-18h3.034v2.165h.179c.159-.318.383-.656.673-1.014.29-.364.682-.673 1.176-.929.495-.261 1.125-.392 1.892-.392 1.012 0 1.924.258 2.736.775.818.512 1.466 1.27 1.943 2.276.483 1 .725 2.227.725 3.682 0 1.437-.236 2.659-.708 3.665-.471 1.005-1.113 1.772-1.926 2.301-.812.528-1.733.792-2.761.792-.75 0-1.372-.125-1.867-.375-.494-.25-.892-.551-1.193-.903a5.892 5.892 0 0 1-.69-1.014h-.128v6.971h-3.085zm3.025-11.454c0 .846.12 1.588.358 2.224.245.637.594 1.134 1.049 1.492.46.352 1.017.528 1.67.528.682 0 1.253-.182 1.713-.545.46-.37.807-.873 1.04-1.509.239-.642.358-1.372.358-2.19 0-.813-.117-1.534-.35-2.165-.232-.631-.579-1.125-1.039-1.483-.461-.358-1.034-.537-1.722-.537-.659 0-1.219.173-1.679.52-.46.347-.81.832-1.048 1.457-.233.625-.35 1.361-.35 2.208zm11.735 6.545v-13.091h3.085v13.091h-3.085zm1.551-14.949a1.8 1.8 0 0 1-1.261-.485c-.353-.33-.529-.725-.529-1.185 0-.466.176-.861.529-1.185a1.783 1.783 0 0 1 1.261-.494c.494 0 .915.165 1.261.494.353.324.529.719.529 1.185 0 .46-.176.855-.529 1.185a1.782 1.782 0 0 1-1.261.485zm11.004 1.858v2.387h-7.526v-2.387h7.526zm-5.668-3.136h3.085v12.29c0 .415.063.733.188.954.13.216.301.364.511.443.21.08.443.12.699.12.193 0 .369-.014.528-.043.165-.028.29-.054.375-.077l.52 2.412c-.165.057-.4.12-.707.188a5.784 5.784 0 0 1-1.108.119c-.773.023-1.469-.094-2.088-.349a3.254 3.254 0 0 1-1.475-1.21c-.358-.546-.534-1.228-.528-2.046v-12.801zm13.577 16.483c-1.306 0-2.429-.287-3.366-.861a5.74 5.74 0 0 1-2.156-2.378c-.5-1.017-.75-2.187-.75-3.511 0-1.33.255-2.503.767-3.52.511-1.023 1.233-1.818 2.165-2.386.937-.574 2.045-.861 3.323-.861 1.063 0 2.003.196 2.821.588a4.814 4.814 0 0 1 1.969 1.645c.489.704.767 1.528.835 2.471h-2.948a2.822 2.822 0 0 0-.853-1.576c-.443-.426-1.037-.639-1.781-.639-.631 0-1.185.17-1.662.511-.477.335-.849.818-1.116 1.449-.262.63-.392 1.386-.392 2.267 0 .892.13 1.659.392 2.301.261.636.627 1.128 1.099 1.474.477.341 1.037.512 1.679.512.455 0 .861-.086 1.219-.256.363-.176.667-.429.912-.758.244-.33.412-.731.503-1.202h2.948c-.073.926-.346 1.747-.818 2.463-.471.71-1.113 1.267-1.926 1.67-.812.398-1.767.597-2.864.597zm10.987-7.926v7.67h-3.085V511.64h3.017v6.588h.153a3.781 3.781 0 0 1 1.424-1.747c.647-.432 1.471-.648 2.471-.648.909 0 1.702.19 2.378.571.676.381 1.199.937 1.568 1.67.375.733.563 1.628.563 2.685v8.335h-3.086v-7.858c0-.88-.227-1.565-.681-2.054-.449-.494-1.08-.741-1.892-.741-.546 0-1.035.119-1.466.358a2.5 2.5 0 0 0-1.006 1.014c-.239.443-.358.98-.358 1.611zm-84.253 39.926c-1.193 0-2.219-.216-3.077-.648-.858-.432-1.519-1.014-1.985-1.747-.461-.739-.691-1.571-.691-2.497 0-.699.142-1.318.426-1.858.29-.54.688-1.04 1.194-1.5.511-.46 1.102-.918 1.772-1.372l3.094-2.105c.455-.296.798-.608 1.031-.938a1.92 1.92 0 0 0 .358-1.159c0-.375-.159-.73-.477-1.065-.313-.336-.744-.503-1.295-.503-.37 0-.696.088-.981.264a1.871 1.871 0 0 0-.656.673c-.153.279-.23.574-.23.887 0 .38.105.767.315 1.159.216.392.495.798.836 1.219.346.42.716.866 1.108 1.338l8.19 9.596h-3.341l-6.801-7.79c-.506-.59-.994-1.173-1.466-1.747a9.323 9.323 0 0 1-1.151-1.789 4.696 4.696 0 0 1-.443-2.029c0-.824.191-1.56.571-2.207a4.08 4.08 0 0 1 1.594-1.543c.687-.375 1.491-.562 2.412-.562.92 0 1.71.181 2.369.545.659.364 1.168.847 1.526 1.449.358.602.537 1.258.537 1.969 0 .824-.205 1.562-.614 2.216-.409.647-.977 1.235-1.704 1.764l-3.529 2.582c-.579.421-.994.847-1.244 1.279-.25.426-.375.789-.375 1.091 0 .46.116.877.349 1.252.233.375.56.676.98.904.427.221.924.332 1.492.332.625 0 1.241-.139 1.849-.417a5.553 5.553 0 0 0 1.662-1.211c.5-.522.898-1.147 1.193-1.875.296-.733.444-1.545.444-2.437h2.65c0 1.102-.122 2.062-.366 2.88-.245.813-.56 1.5-.946 2.063-.387.557-.796 1.003-1.228 1.338-.136.097-.267.193-.392.29-.125.096-.255.193-.392.29a5.753 5.753 0 0 1-2.156 1.227 7.907 7.907 0 0 1-2.412.392zm21.882 0c-1.307 0-2.429-.287-3.367-.861a5.746 5.746 0 0 1-2.156-2.378c-.5-1.017-.75-2.187-.75-3.511 0-1.33.256-2.503.767-3.52.511-1.023 1.233-1.818 2.165-2.386.937-.574 2.045-.861 3.324-.861 1.062 0 2.002.196 2.821.588.823.386 1.48.935 1.968 1.645.489.704.767 1.528.836 2.471h-2.949a2.822 2.822 0 0 0-.853-1.576c-.443-.426-1.037-.639-1.781-.639-.631 0-1.184.17-1.662.511-.477.335-.849.818-1.116 1.449-.262.63-.392 1.386-.392 2.267 0 .892.13 1.659.392 2.301.261.636.628 1.128 1.099 1.474.477.341 1.037.512 1.679.512.455 0 .861-.086 1.219-.256.364-.176.668-.429.912-.758.244-.33.412-.731.503-1.202h2.949c-.074.926-.347 1.747-.819 2.463-.471.71-1.113 1.267-1.926 1.67-.812.398-1.767.597-2.863.597zm10.986-17.71v17.454h-3.085V543.64h3.085zm8.643 17.71c-1.278 0-2.386-.281-3.324-.844-.937-.562-1.665-1.349-2.182-2.361-.511-1.011-.767-2.193-.767-3.545 0-1.352.256-2.537.767-3.554.517-1.017 1.245-1.807 2.182-2.369.938-.563 2.046-.844 3.324-.844s2.386.281 3.324.844c.937.562 1.662 1.352 2.173 2.369.517 1.017.776 2.202.776 3.554 0 1.352-.259 2.534-.776 3.545-.511 1.012-1.236 1.799-2.173 2.361-.938.563-2.046.844-3.324.844zm.017-2.472c.693 0 1.273-.19 1.739-.571.466-.386.812-.903 1.039-1.551.233-.648.35-1.369.35-2.165 0-.801-.117-1.525-.35-2.173-.227-.653-.573-1.173-1.039-1.56-.466-.386-1.046-.579-1.739-.579-.71 0-1.301.193-1.773.579-.466.387-.815.907-1.048 1.56-.227.648-.341 1.372-.341 2.173 0 .796.114 1.517.341 2.165.233.648.582 1.165 1.048 1.551.472.381 1.063.571 1.773.571zm18.981-7.414-2.813.306a2.248 2.248 0 0 0-.417-.801 2.082 2.082 0 0 0-.784-.605c-.33-.153-.733-.23-1.211-.23-.642 0-1.181.139-1.619.418-.432.278-.645.639-.639 1.082-.006.381.133.69.418.929.289.239.767.435 1.431.588l2.233.477c1.239.267 2.159.691 2.762 1.27.608.58.914 1.338.92 2.276-.006.824-.247 1.551-.724 2.182-.472.625-1.128 1.113-1.969 1.466-.841.352-1.807.528-2.898.528-1.602 0-2.892-.335-3.869-1.006-.977-.676-1.56-1.616-1.747-2.821l3.008-.29c.137.591.426 1.037.87 1.339.443.301 1.019.451 1.73.451.733 0 1.321-.15 1.764-.451.449-.302.673-.674.673-1.117 0-.375-.145-.685-.434-.929-.285-.244-.728-.432-1.33-.562l-2.233-.469c-1.256-.262-2.185-.702-2.787-1.321-.602-.625-.9-1.415-.895-2.37-.005-.806.213-1.505.656-2.096.449-.597 1.072-1.057 1.867-1.381.801-.329 1.724-.494 2.77-.494 1.534 0 2.741.327 3.622.98.886.653 1.435 1.537 1.645 2.651zm8.381 9.886c-1.313 0-2.446-.273-3.401-.818a5.54 5.54 0 0 1-2.19-2.335c-.512-1.012-.767-2.202-.767-3.572 0-1.346.255-2.528.767-3.545.517-1.023 1.238-1.818 2.165-2.386.926-.574 2.014-.861 3.264-.861.807 0 1.568.131 2.284.392a5.166 5.166 0 0 1 1.909 1.193c.557.54.994 1.227 1.312 2.063.319.829.478 1.818.478 2.966v.946h-10.73v-2.08h7.772c-.005-.591-.133-1.116-.383-1.577-.25-.466-.6-.832-1.049-1.099-.443-.267-.96-.401-1.551-.401-.63 0-1.184.154-1.662.461a3.165 3.165 0 0 0-1.116 1.193 3.438 3.438 0 0 0-.401 1.61v1.816c0 .761.14 1.415.418 1.96.278.54.668.955 1.168 1.244.5.284 1.085.427 1.755.427.449 0 .855-.063 1.219-.188.364-.131.679-.321.946-.571.267-.25.469-.56.605-.929l2.881.324a4.497 4.497 0 0 1-1.04 1.994c-.506.563-1.153 1-1.943 1.313-.79.307-1.693.46-2.71.46z"/><path fill="#fff" fill-opacity=".1" d="M363 490H150a6 6 0 0 0-6 6v80a6 6 0 0 0 6 6h213a6 6 0 0 0 6-6v-80a6 6 0 0 0-6-6z"/><path fill="#fff" d="M236.796 688.64h3.162v11.403c0 1.25-.296 2.35-.887 3.298-.585.949-1.409 1.691-2.471 2.225-1.063.528-2.304.792-3.725.792-1.426 0-2.67-.264-3.732-.792-1.063-.534-1.887-1.276-2.472-2.225-.585-.948-.878-2.048-.878-3.298V688.64h3.162v11.139c0 .727.159 1.375.477 1.943a3.476 3.476 0 0 0 1.364 1.338c.585.318 1.278.477 2.079.477.802 0 1.495-.159 2.08-.477a3.405 3.405 0 0 0 1.364-1.338c.318-.568.477-1.216.477-1.943V688.64zm16.569 7.824-2.813.306a2.248 2.248 0 0 0-.417-.801 2.082 2.082 0 0 0-.784-.605c-.33-.153-.733-.23-1.211-.23-.642 0-1.181.139-1.619.418-.432.278-.645.639-.639 1.082-.006.381.133.69.418.929.289.239.767.435 1.431.588l2.233.477c1.239.267 2.159.691 2.762 1.27.608.58.914 1.338.92 2.276-.006.824-.247 1.551-.724 2.182-.472.625-1.128 1.113-1.969 1.466-.841.352-1.807.528-2.898.528-1.602 0-2.892-.335-3.869-1.006-.977-.676-1.56-1.616-1.747-2.821l3.008-.29c.137.591.426 1.037.87 1.339.443.301 1.019.451 1.73.451.733 0 1.321-.15 1.764-.451.449-.302.673-.674.673-1.117 0-.375-.145-.685-.434-.929-.285-.244-.728-.432-1.33-.562l-2.233-.469c-1.256-.262-2.185-.702-2.787-1.321-.602-.625-.9-1.415-.895-2.37-.005-.806.213-1.505.656-2.096.449-.597 1.071-1.057 1.867-1.381.801-.329 1.724-.494 2.77-.494 1.534 0 2.741.327 3.622.98.886.653 1.435 1.537 1.645 2.651zm8.381 9.886c-1.313 0-2.446-.273-3.401-.818a5.54 5.54 0 0 1-2.19-2.335c-.512-1.012-.767-2.202-.767-3.572 0-1.346.255-2.528.767-3.545.517-1.023 1.238-1.818 2.164-2.386.927-.574 2.015-.861 3.265-.861a6.62 6.62 0 0 1 2.284.392 5.166 5.166 0 0 1 1.909 1.193c.557.54.994 1.227 1.312 2.063.319.829.478 1.818.478 2.966v.946h-10.73v-2.08h7.772c-.005-.591-.133-1.116-.383-1.577-.25-.466-.6-.832-1.049-1.099-.443-.267-.96-.401-1.551-.401-.63 0-1.184.154-1.662.461a3.165 3.165 0 0 0-1.116 1.193 3.438 3.438 0 0 0-.401 1.61v1.816c0 .761.14 1.415.418 1.96.278.54.668.955 1.168 1.244.5.284 1.085.427 1.755.427.449 0 .855-.063 1.219-.188.364-.131.679-.321.946-.571.267-.25.469-.56.605-.929l2.881.324a4.497 4.497 0 0 1-1.04 1.994c-.506.563-1.153 1-1.943 1.313-.79.307-1.693.46-2.71.46zm8.191-.256v-13.091h2.991v2.182h.137c.238-.756.647-1.338 1.227-1.747a3.376 3.376 0 0 1 2.003-.622c.17 0 .36.008.571.025a4 4 0 0 1 .537.06v2.838a3.28 3.28 0 0 0-.623-.119 5.683 5.683 0 0 0-.809-.06c-.563 0-1.068.122-1.517.367a2.683 2.683 0 0 0-1.049.997c-.255.426-.383.917-.383 1.474v7.696h-3.085zm19.622-9.63-2.813.306a2.248 2.248 0 0 0-.417-.801 2.082 2.082 0 0 0-.784-.605c-.33-.153-.733-.23-1.211-.23-.642 0-1.181.139-1.619.418-.432.278-.645.639-.639 1.082-.006.381.133.69.418.929.289.239.767.435 1.431.588l2.233.477c1.239.267 2.159.691 2.762 1.27.608.58.915 1.338.92 2.276a3.558 3.558 0 0 1-.724 2.182c-.472.625-1.128 1.113-1.969 1.466-.841.352-1.807.528-2.898.528-1.602 0-2.892-.335-3.869-1.006-.977-.676-1.56-1.616-1.747-2.821l3.008-.29c.137.591.426 1.037.87 1.339.443.301 1.02.451 1.73.451.733 0 1.321-.15 1.764-.451.449-.302.673-.674.673-1.117 0-.375-.145-.685-.434-.929-.284-.244-.728-.432-1.33-.562l-2.233-.469c-1.256-.262-2.185-.702-2.787-1.321-.602-.625-.9-1.415-.895-2.37-.005-.806.213-1.505.657-2.096.448-.597 1.071-1.057 1.866-1.381.801-.329 1.724-.494 2.77-.494 1.534 0 2.741.327 3.622.98.886.653 1.435 1.537 1.645 2.651zm-87.07 41.886c-1.279 0-2.387-.281-3.324-.844-.938-.562-1.665-1.349-2.182-2.361-.511-1.011-.767-2.193-.767-3.545 0-1.352.256-2.537.767-3.554.517-1.017 1.244-1.807 2.182-2.369.937-.563 2.045-.844 3.324-.844 1.278 0 2.386.281 3.324.844.937.562 1.661 1.352 2.173 2.369.517 1.017.775 2.202.775 3.554 0 1.352-.258 2.534-.775 3.545-.512 1.012-1.236 1.799-2.173 2.361-.938.563-2.046.844-3.324.844zm.017-2.472c.693 0 1.272-.19 1.738-.571.466-.386.813-.903 1.04-1.551.233-.648.35-1.369.35-2.165 0-.801-.117-1.525-.35-2.173-.227-.653-.574-1.173-1.04-1.56-.466-.386-1.045-.579-1.738-.579-.711 0-1.301.193-1.773.579-.466.387-.815.907-1.048 1.56-.228.648-.341 1.372-.341 2.173 0 .796.113 1.517.341 2.165.233.648.582 1.165 1.048 1.551.472.381 1.062.571 1.773.571zm11.719-5.454v7.67h-3.085v-13.091h2.949v2.225h.153a3.738 3.738 0 0 1 1.441-1.747c.664-.432 1.485-.648 2.463-.648.903 0 1.69.193 2.36.579.677.387 1.199.946 1.569 1.679.375.733.559 1.623.554 2.668v8.335h-3.086v-7.858c0-.875-.227-1.559-.681-2.054-.449-.494-1.071-.741-1.867-.741-.54 0-1.02.119-1.44.358a2.477 2.477 0 0 0-.98 1.014c-.233.443-.35.98-.35 1.611zm11.436 7.67V720.64h3.086v6.528h.127a5.73 5.73 0 0 1 .674-1.014c.289-.364.682-.673 1.176-.929.494-.261 1.125-.392 1.892-.392 1.011 0 1.923.258 2.736.775.818.512 1.466 1.27 1.943 2.276.483 1 .724 2.227.724 3.682 0 1.437-.235 2.659-.707 3.665-.472 1.005-1.114 1.772-1.926 2.301-.813.528-1.733.792-2.762.792-.75 0-1.372-.125-1.866-.375s-.892-.551-1.193-.903a5.846 5.846 0 0 1-.691-1.014h-.179v2.062h-3.034zm3.026-6.545c0 .846.119 1.588.358 2.224.244.637.594 1.134 1.048 1.492.46.352 1.017.528 1.671.528.681 0 1.252-.182 1.713-.545.46-.37.807-.873 1.039-1.509.239-.642.358-1.372.358-2.19 0-.813-.116-1.534-.349-2.165-.233-.631-.58-1.125-1.04-1.483-.46-.358-1.034-.537-1.721-.537-.659 0-1.219.173-1.679.52-.461.347-.81.832-1.049 1.457-.233.625-.349 1.361-.349 2.208zm17.425 6.801c-1.278 0-2.386-.281-3.323-.844-.938-.562-1.665-1.349-2.182-2.361-.512-1.011-.767-2.193-.767-3.545 0-1.352.255-2.537.767-3.554.517-1.017 1.244-1.807 2.182-2.369.937-.563 2.045-.844 3.323-.844 1.279 0 2.387.281 3.324.844.938.562 1.662 1.352 2.174 2.369.517 1.017.775 2.202.775 3.554 0 1.352-.258 2.534-.775 3.545-.512 1.012-1.236 1.799-2.174 2.361-.937.563-2.045.844-3.324.844zm.017-2.472c.694 0 1.273-.19 1.739-.571.466-.386.813-.903 1.04-1.551.233-.648.349-1.369.349-2.165 0-.801-.116-1.525-.349-2.173-.227-.653-.574-1.173-1.04-1.56-.466-.386-1.045-.579-1.739-.579-.71 0-1.301.193-1.772.579-.466.387-.816.907-1.049 1.56-.227.648-.34 1.372-.34 2.173 0 .796.113 1.517.34 2.165.233.648.583 1.165 1.049 1.551.471.381 1.062.571 1.772.571zm12.402 2.48c-.83 0-1.577-.147-2.242-.443a3.655 3.655 0 0 1-1.568-1.329c-.381-.586-.571-1.307-.571-2.165 0-.739.136-1.349.409-1.832a3.17 3.17 0 0 1 1.117-1.16 5.66 5.66 0 0 1 1.593-.656 12.995 12.995 0 0 1 1.85-.332c.767-.08 1.389-.151 1.866-.213.478-.068.824-.171 1.04-.307.222-.142.332-.361.332-.656v-.051c0-.642-.19-1.14-.571-1.492-.38-.352-.929-.528-1.644-.528-.756 0-1.356.164-1.799.494-.437.33-.733.719-.886 1.168l-2.881-.409c.228-.796.603-1.461 1.125-1.995a4.891 4.891 0 0 1 1.918-1.21c.756-.273 1.591-.409 2.506-.409.63 0 1.258.074 1.883.221a5.325 5.325 0 0 1 1.713.733c.517.336.932.793 1.244 1.373.319.579.478 1.304.478 2.173v8.761h-2.966v-1.798h-.102a3.784 3.784 0 0 1-.793 1.023c-.335.312-.759.565-1.27.758-.506.188-1.099.281-1.781.281zm.801-2.267c.619 0 1.156-.122 1.611-.366.454-.25.804-.58 1.048-.989.25-.409.375-.855.375-1.338v-1.542c-.097.079-.261.153-.494.221a7.05 7.05 0 0 1-.767.179c-.284.051-.566.097-.844.137l-.725.102c-.46.062-.872.165-1.235.307a2.054 2.054 0 0 0-.861.596c-.21.25-.315.574-.315.972 0 .568.207.997.622 1.287.414.29.943.434 1.585.434zm8.973 2.003v-13.091h2.991v2.182h.137c.238-.756.648-1.338 1.227-1.747a3.376 3.376 0 0 1 2.003-.622c.17 0 .361.008.571.025a4 4 0 0 1 .537.06v2.838a3.283 3.283 0 0 0-.622-.119 5.708 5.708 0 0 0-.81-.06c-.562 0-1.068.122-1.517.367a2.674 2.674 0 0 0-1.048.997c-.256.426-.384.917-.384 1.474v7.696h-3.085zm13.595.23c-1.029 0-1.949-.264-2.762-.792-.812-.529-1.454-1.296-1.926-2.301-.472-1.006-.707-2.228-.707-3.665 0-1.455.238-2.682.716-3.682.482-1.006 1.133-1.764 1.951-2.276a5.015 5.015 0 0 1 2.736-.775c.767 0 1.398.131 1.892.392.494.256.886.565 1.176.929.29.358.514.696.674 1.014h.127v-6.528h3.094v17.454h-3.034v-2.062h-.187c-.16.318-.39.656-.691 1.014-.301.352-.699.653-1.193.903-.494.25-1.116.375-1.866.375zm.86-2.531c.654 0 1.211-.176 1.671-.528.46-.358.809-.855 1.048-1.492.239-.636.358-1.378.358-2.224 0-.847-.119-1.583-.358-2.208-.233-.625-.579-1.11-1.04-1.457-.454-.347-1.014-.52-1.679-.52-.687 0-1.261.179-1.721.537-.461.358-.807.852-1.04 1.483-.233.631-.349 1.352-.349 2.165 0 .818.116 1.548.349 2.19.239.636.588 1.139 1.048 1.509.466.363 1.037.545 1.713.545zm14.954 2.557c-1.312 0-2.446-.273-3.4-.818a5.548 5.548 0 0 1-2.191-2.335c-.511-1.012-.767-2.202-.767-3.572 0-1.346.256-2.528.767-3.545.517-1.023 1.239-1.818 2.165-2.386.926-.574 2.014-.861 3.264-.861.807 0 1.568.131 2.284.392a5.158 5.158 0 0 1 1.909 1.193c.557.54.995 1.227 1.313 2.063.318.829.477 1.818.477 2.966v.946h-10.73v-2.08h7.773c-.006-.591-.134-1.116-.384-1.577a2.785 2.785 0 0 0-1.048-1.099c-.443-.267-.96-.401-1.551-.401-.631 0-1.185.154-1.662.461a3.176 3.176 0 0 0-1.117 1.193 3.437 3.437 0 0 0-.4 1.61v1.816c0 .761.139 1.415.418 1.96.278.54.667.955 1.167 1.244.5.284 1.085.427 1.756.427.449 0 .855-.063 1.219-.188.363-.131.679-.321.946-.571.267-.25.468-.56.605-.929l2.88.324a4.485 4.485 0 0 1-1.039 1.994c-.506.563-1.154 1-1.944 1.313-.789.307-1.693.46-2.71.46zm13.049-.026c-1.028 0-1.949-.264-2.761-.792-.813-.529-1.455-1.296-1.926-2.301-.472-1.006-.708-2.228-.708-3.665 0-1.455.239-2.682.716-3.682.483-1.006 1.134-1.764 1.952-2.276a5.015 5.015 0 0 1 2.736-.775c.767 0 1.398.131 1.892.392.494.256.886.565 1.176.929.29.358.514.696.673 1.014h.128v-6.528h3.094v17.454h-3.034v-2.062h-.188a5.277 5.277 0 0 1-.69 1.014c-.301.352-.699.653-1.193.903-.495.25-1.117.375-1.867.375zm.861-2.531c.653 0 1.21-.176 1.671-.528.46-.358.809-.855 1.048-1.492.238-.636.358-1.378.358-2.224 0-.847-.12-1.583-.358-2.208-.233-.625-.58-1.11-1.04-1.457-.455-.347-1.014-.52-1.679-.52-.687 0-1.261.179-1.722.537-.46.358-.806.852-1.039 1.483-.233.631-.35 1.352-.35 2.165 0 .818.117 1.548.35 2.19.238.636.588 1.139 1.048 1.509.466.363 1.037.545 1.713.545z"/><path fill="#fff" fill-opacity=".1" d="M363 667H150a6 6 0 0 0-6 6v80a6 6 0 0 0 6 6h213a6 6 0 0 0 6-6v-80a6 6 0 0 0-6-6z"/><defs><linearGradient id="a" x1="0" x2="903.669" y1="0" y2="929.222" gradientUnits="userSpaceOnUse"><stop stop-color="#23377A"/><stop offset="1" stop-color="#28037E"/></linearGradient></defs></svg>