<svg xmlns="http://www.w3.org/2000/svg" width="848" height="484" fill="none"><rect width="848" height="484" fill="#fff" rx="8"/><path stroke="#81839F" stroke-width="6" d="M59.999 64v359a1 1 0 0 0 1 1h723"/><path fill="#000" d="M178.307 455v-11.637h2.461v9.608h4.988V455h-7.449zm12.976.17c-.882 0-1.646-.187-2.29-.562a3.858 3.858 0 0 1-1.483-1.58c-.348-.678-.522-1.464-.522-2.358 0-.901.174-1.689.522-2.364a3.807 3.807 0 0 1 1.483-1.579c.644-.379 1.408-.568 2.29-.568.883 0 1.644.189 2.284.568.644.375 1.14.901 1.489 1.579.348.675.523 1.463.523 2.364 0 .894-.175 1.68-.523 2.358a3.846 3.846 0 0 1-1.489 1.58c-.64.375-1.401.562-2.284.562zm.012-1.875c.401 0 .736-.114 1.005-.341.269-.231.472-.545.608-.943.14-.398.21-.85.21-1.358 0-.508-.07-.96-.21-1.358-.136-.398-.339-.712-.608-.943-.269-.231-.604-.347-1.005-.347-.406 0-.747.116-1.023.347-.273.231-.479.545-.619.943-.137.398-.205.85-.205 1.358 0 .508.068.96.205 1.358.14.398.346.712.619.943.276.227.617.341 1.023.341zm7.36 1.705-2.375-8.728h2.449l1.353 5.864h.079l1.409-5.864h2.404l1.431 5.83h.074l1.33-5.83h2.443L206.883 455h-2.563l-1.5-5.489h-.108l-1.5 5.489h-2.557zm15.591 3.272v-12h2.387v1.466h.108a3.2 3.2 0 0 1 .46-.716c.204-.246.47-.45.795-.613.33-.167.739-.25 1.228-.25.636 0 1.223.166 1.761.5.538.329.968.827 1.29 1.494.322.663.483 1.494.483 2.494 0 .974-.158 1.796-.472 2.466-.311.667-.735 1.173-1.273 1.517a3.264 3.264 0 0 1-1.795.512c-.47 0-.869-.078-1.199-.233a2.495 2.495 0 0 1-.801-.585 2.972 2.972 0 0 1-.477-.722h-.074v4.67h-2.421zm2.37-7.636c0 .519.072.972.216 1.358.143.386.352.687.625.903.272.212.604.319.994.319.394 0 .727-.108 1-.324.273-.22.479-.523.619-.909a3.88 3.88 0 0 0 .216-1.347c0-.504-.07-.947-.21-1.33-.14-.382-.347-.681-.619-.897-.273-.216-.608-.324-1.006-.324-.394 0-.727.104-1 .312-.269.209-.476.504-.619.887-.144.382-.216.833-.216 1.352zm7.755 4.364v-8.728h2.347v1.523h.091c.159-.542.426-.951.801-1.227.375-.28.807-.421 1.295-.421a3.69 3.69 0 0 1 .762.086v2.147a4.316 4.316 0 0 0-1.023-.13c-.356 0-.674.077-.955.233a1.713 1.713 0 0 0-.659.636 1.838 1.838 0 0 0-.238.943V455h-2.421zm10.084.17c-.882 0-1.646-.187-2.29-.562a3.858 3.858 0 0 1-1.483-1.58c-.348-.678-.522-1.464-.522-2.358 0-.901.174-1.689.522-2.364a3.807 3.807 0 0 1 1.483-1.579c.644-.379 1.408-.568 2.29-.568.883 0 1.644.189 2.284.568.644.375 1.14.901 1.489 1.579.348.675.523 1.463.523 2.364 0 .894-.175 1.68-.523 2.358a3.846 3.846 0 0 1-1.489 1.58c-.64.375-1.401.562-2.284.562zm.011-1.875c.402 0 .737-.114 1.006-.341.269-.231.472-.545.608-.943.14-.398.21-.85.21-1.358 0-.508-.07-.96-.21-1.358-.136-.398-.339-.712-.608-.943-.269-.231-.604-.347-1.006-.347-.405 0-.746.116-1.022.347-.273.231-.479.545-.62.943-.136.398-.204.85-.204 1.358 0 .508.068.96.204 1.358.141.398.347.712.62.943.276.227.617.341 1.022.341zm9.074 1.847a3.294 3.294 0 0 1-1.801-.512c-.534-.344-.958-.85-1.273-1.517-.31-.67-.465-1.492-.465-2.466 0-1 .161-1.831.483-2.494.321-.667.75-1.165 1.284-1.494a3.28 3.28 0 0 1 1.767-.5c.488 0 .895.083 1.221.25.33.163.595.367.796.613.204.243.36.481.466.716h.073v-4.375h2.415V455h-2.386v-1.398h-.102a3.161 3.161 0 0 1-.483.722 2.43 2.43 0 0 1-.801.585c-.326.155-.724.233-1.194.233zm.767-1.926c.391 0 .72-.107.989-.319.273-.216.481-.517.625-.903.148-.386.222-.839.222-1.358 0-.519-.072-.97-.216-1.352-.144-.383-.353-.678-.625-.887-.273-.208-.604-.312-.995-.312-.397 0-.733.108-1.005.324-.273.216-.479.515-.62.897-.14.383-.21.826-.21 1.33 0 .508.07.956.21 1.347.144.386.351.689.62.909.272.216.608.324 1.005.324zm11.786-1.932v-5.012h2.42V455h-2.324v-1.586h-.09a2.574 2.574 0 0 1-.983 1.233c-.455.311-1.01.466-1.665.466-.583 0-1.097-.132-1.54-.397a2.74 2.74 0 0 1-1.04-1.131c-.246-.489-.371-1.074-.375-1.756v-5.557h2.421v5.125c.004.516.142.923.415 1.222.272.299.638.449 1.096.449.292 0 .565-.066.818-.199.254-.136.459-.337.614-.602.159-.265.237-.593.233-.983zm8.3 3.886c-.894 0-1.663-.189-2.307-.568a3.84 3.84 0 0 1-1.477-1.591c-.341-.678-.512-1.458-.512-2.341 0-.894.172-1.678.517-2.352a3.84 3.84 0 0 1 1.483-1.585c.64-.383 1.402-.574 2.284-.574.762 0 1.428.138 2 .415a3.335 3.335 0 0 1 1.358 1.164c.334.5.517 1.087.551 1.762h-2.284c-.064-.436-.235-.786-.511-1.051-.273-.269-.631-.404-1.074-.404a1.62 1.62 0 0 0-.983.307c-.276.201-.492.494-.648.881-.155.386-.233.854-.233 1.403 0 .557.076 1.03.228 1.42.155.391.373.688.653.893.28.204.608.306.983.306.277 0 .525-.056.744-.17.224-.114.408-.279.551-.494.148-.22.245-.483.29-.79h2.284c-.038.666-.219 1.254-.545 1.761a3.294 3.294 0 0 1-1.335 1.182c-.569.284-1.241.426-2.017.426zm10.089-8.898v1.819h-5.256v-1.819h5.256zm-4.062-2.091h2.42v8.137c0 .223.034.398.102.523a.562.562 0 0 0 .284.255c.125.049.269.074.432.074.114 0 .227-.009.341-.028l.261-.051.381 1.801a6.61 6.61 0 0 1-.511.13c-.22.053-.487.086-.801.097-.584.023-1.095-.055-1.534-.233a2.138 2.138 0 0 1-1.017-.83c-.243-.375-.362-.848-.358-1.42v-8.455zm14.939 7.103v-5.012h2.42V455h-2.324v-1.586h-.091a2.568 2.568 0 0 1-.983 1.233c-.454.311-1.009.466-1.665.466-.583 0-1.096-.132-1.539-.397a2.74 2.74 0 0 1-1.04-1.131c-.246-.489-.371-1.074-.375-1.756v-5.557h2.42v5.125c.004.516.142.923.415 1.222.273.299.638.449 1.097.449.291 0 .564-.066.818-.199.254-.136.458-.337.614-.602.159-.265.236-.593.233-.983zm11.617-2.523-2.216.136a1.139 1.139 0 0 0-.244-.511 1.303 1.303 0 0 0-.494-.369 1.675 1.675 0 0 0-.722-.142c-.375 0-.691.079-.949.238-.257.156-.386.364-.386.625 0 .209.083.385.25.529.167.144.453.259.858.346l1.58.318c.848.175 1.481.455 1.897.841.417.387.625.894.625 1.523 0 .572-.168 1.074-.505 1.506-.334.432-.792.769-1.375 1.011-.58.239-1.249.358-2.006.358-1.155 0-2.076-.24-2.761-.721a2.81 2.81 0 0 1-1.199-1.978l2.38-.125c.072.353.247.621.523.807.277.182.631.273 1.063.273.424 0 .765-.082 1.022-.245.262-.166.394-.38.398-.642a.67.67 0 0 0-.278-.539c-.182-.144-.462-.254-.841-.33l-1.512-.301c-.852-.17-1.486-.466-1.903-.886-.413-.421-.619-.957-.619-1.608 0-.561.151-1.044.454-1.449.307-.406.737-.718 1.29-.938.557-.219 1.208-.329 1.954-.329 1.103 0 1.97.233 2.603.699.636.466 1.007 1.1 1.113 1.903zm4.212 6.403c-.557 0-1.053-.096-1.489-.289a2.4 2.4 0 0 1-1.034-.87c-.25-.386-.375-.867-.375-1.443 0-.485.089-.892.267-1.221.178-.33.421-.595.728-.796a3.503 3.503 0 0 1 1.045-.454 7.81 7.81 0 0 1 1.239-.216c.507-.053.916-.103 1.227-.148.311-.049.536-.121.676-.216a.475.475 0 0 0 .21-.42v-.035c0-.359-.113-.638-.341-.835-.223-.197-.541-.295-.954-.295-.436 0-.782.096-1.04.29a1.333 1.333 0 0 0-.511.715l-2.239-.181c.114-.531.337-.989.671-1.375.333-.391.763-.69 1.289-.898.531-.212 1.144-.318 1.841-.318.485 0 .949.057 1.392.17.447.114.843.29 1.188.529.348.238.623.545.824.92.2.371.301.816.301 1.335V455h-2.296v-1.211h-.068a2.45 2.45 0 0 1-.562.722 2.587 2.587 0 0 1-.847.483c-.329.114-.71.17-1.142.17zm.693-1.67c.356 0 .671-.07.943-.21.273-.144.487-.337.642-.58.156-.242.233-.517.233-.824v-.926a1.31 1.31 0 0 1-.312.137 6.71 6.71 0 0 1-.438.108c-.162.03-.325.058-.488.085l-.443.062a3.01 3.01 0 0 0-.745.199 1.19 1.19 0 0 0-.494.369.904.904 0 0 0-.176.569c0 .329.119.581.358.755.242.171.549.256.92.256zm10.031 4.96c-.784 0-1.456-.108-2.017-.324-.556-.212-1-.502-1.329-.869a2.66 2.66 0 0 1-.642-1.239l2.238-.301a1.5 1.5 0 0 0 .324.489c.148.151.343.273.586.364.246.094.545.142.897.142.527 0 .961-.129 1.301-.387.345-.254.517-.68.517-1.278v-1.597h-.102a2.296 2.296 0 0 1-.477.688 2.399 2.399 0 0 1-.818.528c-.334.136-.731.205-1.193.205a3.583 3.583 0 0 1-1.79-.455c-.534-.307-.96-.775-1.279-1.403-.314-.633-.471-1.432-.471-2.398 0-.989.161-1.814.483-2.477.322-.663.75-1.159 1.284-1.489a3.323 3.323 0 0 1 1.767-.494c.489 0 .898.083 1.227.25.33.163.595.367.796.613.204.243.361.481.471.716h.091v-1.466h2.404v8.813c0 .742-.182 1.364-.546 1.864-.364.5-.867.875-1.511 1.125-.64.253-1.377.38-2.211.38zm.052-5.398c.39 0 .719-.096.988-.289.273-.197.481-.478.625-.841.148-.368.222-.807.222-1.318 0-.512-.072-.955-.216-1.33-.144-.379-.352-.672-.625-.881-.273-.208-.604-.312-.994-.312-.398 0-.733.108-1.006.324-.273.212-.479.507-.619.886-.141.379-.211.816-.211 1.313 0 .503.07.939.211 1.306.144.364.35.646.619.847.273.197.608.295 1.006.295zm10.119 2.114c-.898 0-1.671-.182-2.318-.545a3.746 3.746 0 0 1-1.489-1.557c-.348-.674-.523-1.472-.523-2.392 0-.898.175-1.686.523-2.364a3.866 3.866 0 0 1 1.472-1.585c.636-.379 1.382-.568 2.238-.568.576 0 1.112.093 1.608.278.5.182.936.457 1.307.824.375.367.667.83.875 1.386.208.553.313 1.201.313 1.944v.664h-7.37v-1.5h5.091a1.86 1.86 0 0 0-.227-.926 1.626 1.626 0 0 0-.631-.63 1.792 1.792 0 0 0-.926-.233c-.367 0-.693.085-.977.255-.28.167-.5.392-.659.676a1.916 1.916 0 0 0-.245.938v1.426c0 .432.08.805.239 1.119.163.315.392.557.688.728.295.17.645.255 1.051.255.269 0 .515-.038.738-.113.224-.076.415-.19.574-.341.159-.152.281-.337.364-.557l2.238.148a3.053 3.053 0 0 1-.698 1.409c-.349.397-.8.708-1.353.932-.549.219-1.183.329-1.903.329zm214.161-.17v-11.637h2.46v4.801h4.995v-4.801h2.454V455h-2.454v-4.807h-4.995V455h-2.46zm11.892 0v-8.728h2.421V455h-2.421zm1.216-9.853c-.36 0-.668-.119-.926-.358a1.159 1.159 0 0 1-.381-.869c0-.333.127-.619.381-.858.258-.242.566-.364.926-.364.36 0 .667.122.921.364.257.239.386.525.386.858 0 .337-.129.627-.386.869a1.295 1.295 0 0 1-.921.358zm7.075 13.307c-.784 0-1.456-.108-2.017-.324-.556-.212-1-.502-1.329-.869a2.66 2.66 0 0 1-.642-1.239l2.238-.301a1.5 1.5 0 0 0 .324.489c.148.151.343.273.585.363.247.095.546.143.898.143.527 0 .96-.129 1.301-.387.345-.254.517-.68.517-1.278v-1.597h-.102a2.296 2.296 0 0 1-.477.688 2.399 2.399 0 0 1-.818.528c-.334.136-.731.205-1.194.205a3.582 3.582 0 0 1-1.789-.455c-.534-.307-.961-.775-1.279-1.403-.314-.633-.471-1.432-.471-2.398 0-.989.161-1.814.483-2.477.322-.663.75-1.159 1.284-1.489a3.315 3.315 0 0 1 1.767-.494c.488 0 .898.083 1.227.25.33.163.595.367.796.613.204.243.361.481.471.716h.091v-1.466h2.403v8.813c0 .742-.181 1.363-.545 1.863-.364.5-.867.875-1.511 1.125-.641.254-1.377.381-2.211.381zm.052-5.398c.39 0 .719-.096.988-.289.273-.197.481-.478.625-.841.148-.368.222-.807.222-1.318 0-.512-.072-.955-.216-1.33-.144-.379-.352-.672-.625-.881-.273-.208-.604-.312-.994-.312-.398 0-.733.108-1.006.324-.273.212-.479.507-.619.886-.141.379-.211.816-.211 1.313 0 .503.07.939.211 1.306.143.364.35.646.619.847.273.197.608.295 1.006.295zm8.562-3.102V455h-2.42v-11.637h2.352v4.449h.102a2.47 2.47 0 0 1 .955-1.21c.439-.296.99-.443 1.653-.443.606 0 1.135.132 1.585.397a2.66 2.66 0 0 1 1.057 1.131c.254.489.379 1.074.375 1.756V455h-2.42v-5.125c.003-.538-.133-.957-.409-1.256-.273-.299-.656-.449-1.148-.449-.33 0-.621.07-.875.21a1.49 1.49 0 0 0-.591.614c-.14.265-.212.585-.216.96zm11.267 8.318v-12h2.386v1.466h.108c.106-.235.26-.473.461-.716a2.42 2.42 0 0 1 .795-.613c.33-.167.739-.25 1.227-.25.637 0 1.224.166 1.762.5.538.329.967.827 1.289 1.494.322.663.483 1.494.483 2.494 0 .974-.157 1.796-.471 2.466-.311.667-.735 1.173-1.273 1.517a3.264 3.264 0 0 1-1.795.512c-.47 0-.87-.078-1.199-.233a2.482 2.482 0 0 1-.801-.586 2.954 2.954 0 0 1-.478-.721h-.073v4.67h-2.421zm2.369-7.636c0 .519.072.972.216 1.358.144.386.353.687.625.903.273.212.604.319.995.319.394 0 .727-.108 1-.324.272-.22.479-.523.619-.909a3.88 3.88 0 0 0 .216-1.347c0-.504-.07-.947-.21-1.33-.141-.382-.347-.681-.62-.897-.272-.216-.608-.324-1.005-.324-.394 0-.728.104-1 .312-.269.209-.476.504-.62.887-.144.382-.216.833-.216 1.352zm7.756 4.364v-8.728h2.347v1.523h.091c.159-.542.426-.951.801-1.227.375-.28.807-.421 1.295-.421a3.705 3.705 0 0 1 .762.086v2.147a4.328 4.328 0 0 0-1.023-.13c-.356 0-.674.077-.955.233a1.713 1.713 0 0 0-.659.636 1.838 1.838 0 0 0-.238.943V455h-2.421zm10.084.17c-.883 0-1.646-.187-2.29-.562a3.858 3.858 0 0 1-1.483-1.58c-.348-.678-.523-1.464-.523-2.358 0-.901.175-1.689.523-2.364a3.807 3.807 0 0 1 1.483-1.579c.644-.379 1.407-.568 2.29-.568.882 0 1.644.189 2.284.568.644.375 1.14.901 1.489 1.579.348.675.522 1.463.522 2.364 0 .894-.174 1.68-.522 2.358a3.846 3.846 0 0 1-1.489 1.58c-.64.375-1.402.562-2.284.562zm.011-1.875c.402 0 .737-.114 1.006-.341.269-.231.472-.545.608-.943.14-.398.21-.85.21-1.358 0-.508-.07-.96-.21-1.358-.136-.398-.339-.712-.608-.943-.269-.231-.604-.347-1.006-.347-.405 0-.746.116-1.022.347-.273.231-.48.545-.62.943-.136.398-.204.85-.204 1.358 0 .508.068.96.204 1.358.14.398.347.712.62.943.276.227.617.341 1.022.341zm9.074 1.847a3.294 3.294 0 0 1-1.801-.512c-.534-.344-.958-.85-1.273-1.517-.31-.67-.466-1.492-.466-2.466 0-1 .161-1.831.483-2.494.322-.667.75-1.165 1.284-1.494a3.285 3.285 0 0 1 1.767-.5c.489 0 .896.083 1.222.25.33.163.595.367.795.613a3.1 3.1 0 0 1 .466.716h.074v-4.375h2.415V455h-2.386v-1.398h-.103a3.072 3.072 0 0 1-.483.721c-.204.235-.471.43-.801.586-.325.155-.723.233-1.193.233zm.767-1.926c.39 0 .72-.107.989-.319.273-.216.481-.517.625-.903.148-.386.221-.839.221-1.358 0-.519-.072-.97-.216-1.352-.143-.383-.352-.678-.625-.887-.272-.208-.604-.312-.994-.312-.398 0-.733.108-1.006.324-.272.216-.479.515-.619.897-.14.383-.21.826-.21 1.33 0 .508.07.956.21 1.347.144.386.351.689.619.909.273.216.608.324 1.006.324zm11.786-1.932v-5.012h2.42V455h-2.324v-1.586h-.091a2.568 2.568 0 0 1-.983 1.233c-.454.311-1.009.466-1.664.466-.584 0-1.097-.132-1.54-.397a2.746 2.746 0 0 1-1.04-1.131c-.246-.489-.371-1.074-.375-1.756v-5.557h2.421v5.125c.003.516.142.923.414 1.222.273.299.639.449 1.097.449.292 0 .564-.066.818-.199.254-.136.458-.337.614-.602.159-.265.236-.593.233-.983zm8.299 3.886c-.894 0-1.663-.189-2.306-.568a3.842 3.842 0 0 1-1.478-1.591c-.341-.678-.511-1.458-.511-2.341 0-.894.172-1.678.517-2.352a3.834 3.834 0 0 1 1.483-1.585c.64-.383 1.401-.574 2.284-.574.761 0 1.428.138 2 .414a3.345 3.345 0 0 1 1.358 1.165c.333.5.517 1.087.551 1.762h-2.284c-.064-.436-.235-.786-.511-1.052-.273-.268-.631-.403-1.074-.403a1.62 1.62 0 0 0-.983.307c-.277.201-.493.494-.648.881-.155.386-.233.854-.233 1.403 0 .557.076 1.03.227 1.42.156.391.374.688.654.892.28.205.608.307.983.307.276 0 .524-.057.744-.17.224-.114.407-.279.551-.494.148-.22.245-.483.29-.79h2.284c-.038.666-.22 1.254-.545 1.761a3.29 3.29 0 0 1-1.336 1.182c-.568.284-1.24.426-2.017.426zm10.09-8.898v1.819h-5.256v-1.819h5.256zm-4.063-2.091h2.421v8.137c0 .223.034.398.102.523a.562.562 0 0 0 .284.255c.125.049.269.074.432.074.114 0 .227-.009.341-.028l.261-.051.381 1.801a6.734 6.734 0 0 1-.511.13c-.22.053-.487.086-.802.097-.583.023-1.094-.055-1.534-.233a2.147 2.147 0 0 1-1.017-.83c-.242-.375-.361-.848-.358-1.42v-8.455zm14.939 7.103v-5.012h2.421V455h-2.324v-1.586h-.091a2.574 2.574 0 0 1-.983 1.233c-.455.311-1.009.466-1.665.466-.583 0-1.096-.132-1.54-.397a2.744 2.744 0 0 1-1.039-1.131c-.247-.489-.372-1.074-.375-1.756v-5.557h2.42v5.125c.004.516.142.923.415 1.222.273.299.638.449 1.097.449.291 0 .564-.066.818-.199a1.56 1.56 0 0 0 .613-.602c.159-.265.237-.593.233-.983zm11.618-2.523-2.216.136a1.15 1.15 0 0 0-.244-.511 1.303 1.303 0 0 0-.494-.369 1.678 1.678 0 0 0-.722-.142c-.375 0-.691.079-.949.238-.257.156-.386.364-.386.625 0 .209.083.385.25.529.166.144.452.259.858.346l1.579.318c.849.175 1.481.455 1.898.841.417.387.625.894.625 1.523a2.38 2.38 0 0 1-.506 1.506c-.333.432-.791.769-1.375 1.011-.579.239-1.248.358-2.005.358-1.156 0-2.076-.24-2.762-.722-.682-.484-1.081-1.143-1.199-1.977l2.381-.125c.072.352.246.621.523.807.276.182.631.273 1.062.273.425 0 .766-.082 1.023-.245.261-.166.394-.38.398-.642a.668.668 0 0 0-.279-.539c-.181-.144-.462-.254-.841-.33l-1.511-.301c-.852-.171-1.487-.466-1.903-.886-.413-.421-.62-.957-.62-1.608 0-.561.152-1.044.455-1.449.307-.406.737-.718 1.29-.938.557-.219 1.208-.329 1.954-.329 1.103 0 1.97.233 2.603.699.636.465 1.007 1.1 1.113 1.903zm4.212 6.403c-.557 0-1.053-.096-1.489-.289a2.4 2.4 0 0 1-1.034-.87c-.25-.386-.375-.867-.375-1.443 0-.485.089-.892.267-1.221.178-.33.421-.595.727-.796a3.52 3.52 0 0 1 1.046-.454 7.817 7.817 0 0 1 1.238-.216c.508-.053.917-.103 1.228-.148.31-.049.536-.121.676-.216a.475.475 0 0 0 .21-.42v-.035c0-.359-.114-.638-.341-.835-.223-.197-.541-.295-.954-.295-.436 0-.783.096-1.04.29a1.328 1.328 0 0 0-.511.715l-2.239-.181c.114-.531.337-.989.67-1.375.334-.391.764-.69 1.29-.898.53-.212 1.144-.318 1.841-.318.485 0 .949.057 1.392.17.447.114.843.29 1.188.529.348.238.623.545.823.92.201.371.302.816.302 1.335V455h-2.296v-1.211h-.068c-.14.273-.328.514-.563.722a2.582 2.582 0 0 1-.846.483c-.33.114-.71.17-1.142.17zm.693-1.67c.356 0 .67-.07.943-.21.273-.144.487-.337.642-.58.156-.242.233-.517.233-.824v-.926c-.076.049-.18.095-.312.137a6.154 6.154 0 0 1-.438.107c-.163.031-.326.059-.488.086l-.444.062a3.002 3.002 0 0 0-.744.199 1.19 1.19 0 0 0-.494.369.898.898 0 0 0-.176.569c0 .329.119.581.358.755.242.171.549.256.92.256zm10.031 4.96c-.784 0-1.456-.108-2.017-.324-.557-.212-1-.502-1.329-.869a2.66 2.66 0 0 1-.642-1.239l2.238-.301c.068.174.176.337.324.489.148.151.343.273.585.363.247.095.546.143.898.143.527 0 .96-.129 1.301-.387.345-.254.517-.68.517-1.278v-1.597h-.102a2.296 2.296 0 0 1-.477.688 2.399 2.399 0 0 1-.818.528c-.334.136-.732.205-1.194.205a3.58 3.58 0 0 1-1.789-.455c-.535-.307-.961-.775-1.279-1.403-.314-.633-.471-1.432-.471-2.398 0-.989.161-1.814.483-2.477.321-.663.75-1.159 1.284-1.489a3.312 3.312 0 0 1 1.767-.494c.488 0 .897.083 1.227.25.329.163.595.367.795.613.205.243.362.481.472.716h.091v-1.466h2.403v8.813c0 .742-.182 1.363-.545 1.863-.364.5-.868.875-1.512 1.125-.64.254-1.376.381-2.21.381zm.051-5.398c.391 0 .72-.096.989-.289.273-.197.481-.478.625-.841.148-.368.222-.807.222-1.318 0-.512-.072-.955-.216-1.33-.144-.379-.353-.672-.625-.881-.273-.208-.604-.312-.995-.312-.397 0-.733.108-1.005.324-.273.212-.479.507-.62.886-.14.379-.21.816-.21 1.313 0 .503.07.939.21 1.306.144.364.351.646.62.847.272.197.608.295 1.005.295zm10.12 2.114c-.898 0-1.671-.182-2.318-.545a3.74 3.74 0 0 1-1.489-1.557c-.349-.674-.523-1.472-.523-2.392 0-.898.174-1.686.523-2.364a3.864 3.864 0 0 1 1.471-1.585c.637-.379 1.383-.568 2.239-.568.576 0 1.112.093 1.608.278.5.182.936.457 1.307.824.375.367.667.83.875 1.386.208.553.312 1.201.312 1.944v.664h-7.369v-1.5h5.091a1.86 1.86 0 0 0-.227-.926 1.635 1.635 0 0 0-.631-.631 1.801 1.801 0 0 0-.926-.232c-.368 0-.693.085-.977.255a1.79 1.79 0 0 0-.659.676c-.16.281-.241.593-.245.938v1.426c0 .432.08.805.239 1.119.163.315.392.557.687.728.296.17.646.255 1.051.255.269 0 .516-.038.739-.113.224-.076.415-.19.574-.341.159-.152.28-.337.364-.557l2.238.148a3.045 3.045 0 0 1-.699 1.409c-.348.397-.799.708-1.352.932-.549.219-1.184.329-1.903.329zM38.999 195.8H27.362v-4.659c0-.856.127-1.57.38-2.142.255-.572.607-1.002 1.058-1.29.447-.287.962-.431 1.545-.431.455 0 .854.09 1.199.272.34.182.621.432.84.75.217.315.37.675.461 1.08h.114c.019-.443.144-.858.375-1.244.23-.391.555-.707.971-.949.413-.243.906-.364 1.478-.364.617 0 1.168.153 1.653.46.481.303.862.752 1.142 1.347.28.595.42 1.327.42 2.199v4.971zm-2.012-2.46v-2.006c0-.685-.13-1.185-.392-1.5-.265-.314-.617-.471-1.057-.471-.322 0-.606.077-.852.233a1.58 1.58 0 0 0-.58.665c-.14.284-.21.623-.21 1.017v2.062h3.091zm-4.756 0v-1.824c0-.337-.058-.636-.176-.898a1.498 1.498 0 0 0-.511-.625 1.334 1.334 0 0 0-.79-.232c-.42 0-.76.149-1.017.448-.257.296-.386.716-.386 1.262v1.869h2.88zm6.768-8.072H30.27v-2.421H39v2.421zm-9.853-1.216c0 .36-.119.668-.358.926a1.16 1.16 0 0 1-.869.381c-.333 0-.62-.127-.858-.381a1.304 1.304 0 0 1-.364-.926c0-.36.122-.667.364-.921a1.13 1.13 0 0 1 .858-.386c.337 0 .627.129.87.386.238.254.357.561.357.921zm13.307-7.076c0 .785-.108 1.457-.324 2.017-.212.557-.502 1-.87 1.33-.367.33-.78.544-1.238.642l-.3-2.239c.173-.068.336-.176.488-.323.151-.148.272-.343.363-.586.095-.246.142-.545.142-.897 0-.527-.128-.961-.386-1.302-.254-.344-.68-.517-1.278-.517h-1.597v.103c.243.106.472.265.688.477.215.212.392.485.528.818.136.333.205.731.205 1.193 0 .656-.152 1.252-.455 1.79-.307.534-.775.96-1.403 1.279-.633.314-1.432.471-2.398.471-.989 0-1.815-.161-2.477-.483-.663-.322-1.16-.75-1.489-1.284a3.318 3.318 0 0 1-.494-1.767c0-.489.083-.898.25-1.227a2.35 2.35 0 0 1 .613-.796c.243-.204.481-.361.716-.471v-.091h-1.466v-2.404h8.813c.742 0 1.363.182 1.863.546.5.363.875.867 1.125 1.511.254.64.381 1.377.381 2.21zm-5.398-.051c0-.39-.096-.719-.29-.988-.196-.273-.477-.481-.84-.625-.368-.148-.807-.222-1.319-.222-.51 0-.954.072-1.329.216-.379.144-.672.352-.88.625-.209.273-.313.604-.313.994 0 .398.108.733.324 1.006.212.273.507.479.886.619s.816.211 1.313.211c.503 0 .939-.071 1.306-.211.364-.144.646-.35.847-.619.197-.273.295-.608.295-1.006zm-5.619-20.157v2.488a2.448 2.448 0 0 0-.858.279c-.254.14-.47.32-.648.539-.178.22-.314.474-.409.762a2.912 2.912 0 0 0-.142.926c0 .602.15 1.127.45 1.574.295.447.726.793 1.295 1.04.564.246 1.25.369 2.056.369.83 0 1.527-.123 2.091-.369.565-.25.99-.599 1.279-1.046.288-.447.431-.964.431-1.551 0-.33-.043-.634-.13-.915a2.397 2.397 0 0 0-.38-.755 2.193 2.193 0 0 0-.62-.546 2.412 2.412 0 0 0-.83-.307l.012-2.488a4.481 4.481 0 0 1 1.545.483c.493.253.934.596 1.324 1.028.386.428.693.939.92 1.534.224.591.336 1.26.336 2.006 0 1.038-.235 1.966-.705 2.784-.47.814-1.15 1.458-2.04 1.932-.89.469-1.967.704-3.233.704-1.268 0-2.348-.238-3.238-.716-.89-.477-1.568-1.125-2.034-1.943-.47-.818-.705-1.739-.705-2.761 0-.674.095-1.299.284-1.875a4.75 4.75 0 0 1 .83-1.54c.36-.447.8-.811 1.324-1.091a4.926 4.926 0 0 1 1.795-.545zm7.733-5.662c0 .882-.188 1.646-.563 2.289a3.84 3.84 0 0 1-1.579 1.483c-.678.349-1.464.523-2.358.523-.901 0-1.69-.174-2.364-.523a3.795 3.795 0 0 1-1.58-1.483c-.378-.643-.567-1.407-.567-2.289 0-.883.19-1.644.568-2.284a3.79 3.79 0 0 1 1.58-1.489c.674-.349 1.462-.523 2.363-.523.894 0 1.68.174 2.358.523.674.348 1.2.845 1.58 1.489.374.64.562 1.401.562 2.284zm-1.875-.012c0-.401-.114-.736-.34-1.005-.232-.269-.546-.472-.944-.608a4.076 4.076 0 0 0-1.358-.211c-.508 0-.96.071-1.358.211-.398.136-.712.339-.943.608-.231.269-.347.604-.347 1.005 0 .406.116.747.347 1.023.23.273.545.479.943.619.398.137.85.205 1.358.205.508 0 .96-.068 1.358-.205.398-.14.712-.346.943-.619.227-.276.341-.617.341-1.023zm1.705-5.858H30.27v-2.306h1.54v-.103a2.423 2.423 0 0 1-1.21-.909c-.296-.424-.443-.932-.443-1.523 0-.598.15-1.107.448-1.528.296-.42.697-.701 1.205-.841v-.091c-.5-.178-.9-.5-1.199-.966-.303-.469-.454-1.024-.454-1.664 0-.815.26-1.476.778-1.983.515-.512 1.246-.767 2.193-.767H39v2.414h-5.393c-.484 0-.848.129-1.09.387-.243.257-.364.579-.364.966 0 .439.14.782.42 1.028.277.246.642.369 1.097.369H39v2.347h-5.444c-.428 0-.769.123-1.022.369-.254.243-.381.563-.381.96 0 .269.068.512.204.728.133.212.32.38.563.505.239.125.519.188.84.188H39v2.42zm3.272-14.593h-12v-2.387h1.466v-.108a3.19 3.19 0 0 1-.716-.46 2.427 2.427 0 0 1-.613-.795c-.167-.33-.25-.739-.25-1.228 0-.636.166-1.223.5-1.761.33-.538.827-.968 1.494-1.29.663-.322 1.494-.483 2.494-.483.974 0 1.796.157 2.466.472.667.31 1.173.735 1.517 1.273.341.534.512 1.132.512 1.795 0 .47-.078.869-.233 1.199-.156.326-.35.593-.586.801a2.978 2.978 0 0 1-.721.477v.074h4.67v2.421zm-7.636-2.37c.519 0 .971-.072 1.358-.216.386-.144.687-.352.903-.625.212-.272.319-.604.319-.994 0-.394-.109-.727-.324-1-.22-.273-.523-.479-.91-.619a3.876 3.876 0 0 0-1.346-.216c-.504 0-.947.07-1.33.21-.382.14-.681.347-.897.619-.216.273-.324.608-.324 1.006 0 .394.104.727.312 1 .209.269.504.475.887.619.382.144.833.216 1.352.216zm4.528-10.244c0 .557-.096 1.053-.29 1.489a2.39 2.39 0 0 1-.869 1.034c-.386.25-.867.375-1.443.375-.485 0-.892-.089-1.221-.267a2.162 2.162 0 0 1-.796-.728 3.52 3.52 0 0 1-.454-1.045 7.96 7.96 0 0 1-.216-1.239 31.614 31.614 0 0 0-.148-1.227c-.05-.311-.121-.536-.216-.676a.475.475 0 0 0-.42-.21h-.035c-.36 0-.638.113-.835.341-.197.223-.295.541-.295.954 0 .436.096.782.29 1.04.189.257.427.428.715.511l-.181 2.239a3.04 3.04 0 0 1-1.375-.671 3.215 3.215 0 0 1-.898-1.289c-.212-.531-.318-1.144-.318-1.841 0-.485.056-.949.17-1.392a3.65 3.65 0 0 1 .529-1.188c.238-.348.545-.623.92-.824.371-.2.816-.301 1.335-.301H39v2.296h-1.21v.068c.272.14.513.328.72.562.206.235.367.517.484.847.113.329.17.71.17 1.142zm-1.67-.693c0-.356-.07-.671-.21-.943a1.667 1.667 0 0 0-.58-.642 1.488 1.488 0 0 0-.824-.233h-.926c.05.075.095.18.136.312.038.129.074.275.108.438.03.163.06.325.086.488l.062.443c.042.285.108.533.199.745.09.212.214.377.37.494a.89.89 0 0 0 .567.176c.33 0 .582-.119.756-.358.17-.242.256-.549.256-.92zm-3.54-8.52H39v2.42h-8.73v-2.306h1.54v-.103a2.436 2.436 0 0 1-1.204-.971c-.3-.455-.45-1.006-.45-1.654 0-.606.133-1.134.398-1.585a2.702 2.702 0 0 1 1.137-1.051c.488-.25 1.072-.375 1.75-.375h5.557v2.42h-5.125c-.535-.003-.951.133-1.25.409-.303.277-.455.658-.455 1.143 0 .325.07.613.21.863.14.246.345.44.614.58.265.136.585.206.96.21zm8.318-8.715c0 .307-.024.595-.074.864a3.137 3.137 0 0 1-.176.659l-1.806-.545c.087-.284.134-.54.141-.767a.975.975 0 0 0-.159-.597c-.113-.17-.306-.309-.58-.415l-.368-.142-8.978 3.131v-2.546l6.41-1.806v-.091l-6.41-1.824v-2.563l9.67 3.392c.47.163.88.385 1.228.665.352.277.623.627.813 1.051.193.425.29.936.29 1.534zM30.709 376.496c-.459.046-.815.241-1.068.585-.254.345-.381.813-.381 1.404 0 .401.057.74.17 1.017.11.276.264.488.46.636.198.144.421.216.671.216a.952.952 0 0 0 .546-.131c.155-.098.29-.233.403-.403.11-.17.206-.367.29-.591.08-.223.147-.462.204-.716l.25-1.045c.114-.508.265-.974.455-1.398.19-.424.422-.792.699-1.102.276-.311.602-.551.977-.722a3.094 3.094 0 0 1 1.29-.267c.712.004 1.33.186 1.852.546.519.356.922.871 1.21 1.545.284.67.426 1.479.426 2.426 0 .939-.144 1.758-.431 2.455-.288.693-.715 1.234-1.279 1.625-.568.386-1.27.589-2.108.608v-2.381c.39-.027.716-.138.977-.335.258-.201.453-.468.586-.801.128-.338.193-.718.193-1.142 0-.417-.06-.779-.182-1.086a1.66 1.66 0 0 0-.506-.721 1.165 1.165 0 0 0-.744-.256.969.969 0 0 0-.66.233c-.177.151-.329.375-.454.67-.125.292-.238.65-.34 1.074l-.319 1.267c-.238.981-.611 1.756-1.119 2.324-.508.568-1.191.851-2.051.847-.705.004-1.32-.184-1.847-.563-.526-.382-.937-.907-1.233-1.574-.295-.666-.443-1.424-.443-2.272 0-.864.148-1.618.443-2.262.296-.647.707-1.151 1.233-1.511.527-.36 1.137-.545 1.83-.557v2.358zm8.29-4.126H30.27v-2.307h1.54v-.102a2.419 2.419 0 0 1-1.21-.91c-.296-.424-.443-.931-.443-1.522 0-.599.15-1.108.448-1.529.296-.42.697-.7 1.205-.841v-.09c-.5-.178-.9-.5-1.199-.966-.303-.47-.454-1.025-.454-1.665 0-.815.26-1.476.778-1.983.515-.511 1.246-.767 2.193-.767H39v2.415h-5.393c-.484 0-.848.128-1.09.386-.243.258-.364.58-.364.966 0 .439.14.782.42 1.028.277.247.642.37 1.097.37H39v2.346h-5.444c-.428 0-.769.123-1.022.37-.254.242-.381.562-.381.96 0 .269.068.511.204.727.133.212.32.381.563.506.239.125.519.187.84.187H39v2.421zm.164-17.083c0 .557-.096 1.053-.29 1.489-.196.436-.486.78-.869 1.034-.386.25-.867.375-1.443.375-.485 0-.892-.089-1.221-.267a2.16 2.16 0 0 1-.796-.727 3.537 3.537 0 0 1-.454-1.046 7.968 7.968 0 0 1-.216-1.238 31.659 31.659 0 0 0-.148-1.228c-.05-.31-.121-.536-.216-.676a.475.475 0 0 0-.42-.21h-.035c-.36 0-.638.114-.835.341-.197.223-.295.542-.295.954 0 .436.096.783.29 1.04.189.258.427.428.715.512l-.181 2.238a3.038 3.038 0 0 1-1.375-.67 3.226 3.226 0 0 1-.898-1.29c-.212-.53-.318-1.144-.318-1.841 0-.485.056-.949.17-1.392.114-.447.29-.843.529-1.187a2.55 2.55 0 0 1 .92-.824c.371-.201.816-.301 1.335-.301H39v2.295h-1.21v.068a2.445 2.445 0 0 1 1.204 1.409c.113.33.17.71.17 1.142zm-1.67-.693c0-.356-.07-.67-.21-.943a1.667 1.667 0 0 0-.58-.642 1.497 1.497 0 0 0-.824-.233h-.926c.05.076.095.18.136.312.038.129.074.275.108.438.03.163.06.326.086.489l.062.443c.042.284.108.532.199.744.09.212.214.377.37.494a.89.89 0 0 0 .567.177c.33 0 .582-.12.756-.358.17-.243.256-.55.256-.921zm-10.131-8.52H39v2.421H27.362v-2.421zm0-4.359H39v2.42H27.362v-2.42zm4.074-15.955v2.489a2.427 2.427 0 0 0-.858.278c-.254.14-.47.32-.648.54-.178.22-.314.474-.409.761a2.919 2.919 0 0 0-.142.927c0 .602.15 1.127.45 1.573.295.447.726.794 1.295 1.04.564.246 1.25.37 2.056.37.83 0 1.527-.124 2.091-.37.565-.25.99-.598 1.279-1.045.288-.447.431-.964.431-1.551 0-.33-.043-.635-.13-.915a2.41 2.41 0 0 0-.38-.756 2.204 2.204 0 0 0-.62-.545 2.41 2.41 0 0 0-.83-.307l.012-2.489a4.648 4.648 0 0 1 2.87 1.512c.385.428.692.939.92 1.534.223.591.335 1.259.335 2.005 0 1.038-.235 1.966-.705 2.785-.47.814-1.15 1.458-2.04 1.931-.89.47-1.967.705-3.233.705-1.268 0-2.348-.239-3.238-.716-.89-.477-1.568-1.125-2.034-1.943-.47-.818-.705-1.739-.705-2.762 0-.674.095-1.299.284-1.875.19-.579.466-1.092.83-1.539.36-.447.8-.811 1.324-1.091a4.945 4.945 0 0 1 1.795-.546zm7.733-5.662c0 .883-.188 1.646-.563 2.29a3.847 3.847 0 0 1-1.579 1.483c-.678.349-1.464.523-2.358.523-.901 0-1.69-.174-2.364-.523a3.802 3.802 0 0 1-1.58-1.483c-.378-.644-.567-1.407-.567-2.29 0-.882.19-1.644.568-2.284a3.788 3.788 0 0 1 1.58-1.488c.674-.349 1.462-.523 2.363-.523.894 0 1.68.174 2.358.523.674.348 1.2.844 1.58 1.488.374.64.562 1.402.562 2.284zm-1.875-.011c0-.402-.114-.737-.34-1.006-.232-.269-.546-.471-.944-.608-.398-.14-.85-.21-1.358-.21-.508 0-.96.07-1.358.21-.398.137-.712.339-.943.608-.231.269-.347.604-.347 1.006 0 .405.116.746.347 1.023.23.272.545.479.943.619.398.136.85.205 1.358.205.508 0 .96-.069 1.358-.205.398-.14.712-.347.943-.619.227-.277.341-.618.341-1.023zm1.705-5.858H30.27v-2.307h1.54v-.102a2.423 2.423 0 0 1-1.21-.909c-.296-.424-.443-.932-.443-1.523 0-.598.15-1.108.448-1.528a2.11 2.11 0 0 1 1.205-.841v-.091c-.5-.178-.9-.5-1.199-.966-.303-.47-.454-1.025-.454-1.665 0-.814.26-1.475.778-1.983.515-.511 1.246-.767 2.193-.767H39v2.415h-5.393c-.484 0-.848.129-1.09.386-.243.258-.364.58-.364.966 0 .44.14.782.42 1.029.277.246.642.369 1.097.369H39v2.347h-5.444c-.428 0-.769.123-1.022.369-.254.242-.381.562-.381.96 0 .269.068.512.204.727a1.4 1.4 0 0 0 .563.506c.239.125.519.188.84.188H39v2.42zm3.272-14.594h-12v-2.386h1.466v-.108a3.19 3.19 0 0 1-.716-.46 2.43 2.43 0 0 1-.613-.796c-.167-.329-.25-.738-.25-1.227 0-.636.166-1.223.5-1.761.33-.538.827-.968 1.494-1.29.663-.322 1.494-.483 2.494-.483.974 0 1.796.157 2.466.472.667.31 1.173.734 1.517 1.272.341.534.512 1.133.512 1.796 0 .469-.078.869-.233 1.199a2.49 2.49 0 0 1-.586.801 2.978 2.978 0 0 1-.721.477v.074h4.67v2.42zm-7.636-2.369c.519 0 .971-.072 1.358-.216.386-.144.687-.352.903-.625.212-.273.319-.604.319-.994 0-.394-.109-.728-.324-1-.22-.273-.523-.479-.91-.62-.39-.144-.839-.215-1.346-.215-.504 0-.947.07-1.33.21-.382.14-.681.346-.897.619-.216.273-.324.608-.324 1.006 0 .394.104.727.312 1 .209.269.504.475.887.619.382.144.833.216 1.352.216zm4.528-10.244c0 .556-.096 1.053-.29 1.488a2.39 2.39 0 0 1-.869 1.034c-.386.25-.867.375-1.443.375-.485 0-.892-.089-1.221-.267a2.16 2.16 0 0 1-.796-.727 3.53 3.53 0 0 1-.454-1.045 7.96 7.96 0 0 1-.216-1.239 31.106 31.106 0 0 0-.148-1.227c-.05-.311-.121-.536-.216-.676a.473.473 0 0 0-.42-.211h-.035c-.36 0-.638.114-.835.341-.197.224-.295.542-.295.955 0 .435.096.782.29 1.04.189.257.427.428.715.511l-.181 2.239a3.05 3.05 0 0 1-1.375-.671 3.213 3.213 0 0 1-.898-1.29c-.212-.53-.318-1.144-.318-1.841 0-.484.056-.948.17-1.392.114-.447.29-.842.529-1.187a2.56 2.56 0 0 1 .92-.824c.371-.201.816-.301 1.335-.301H39v2.295h-1.21v.069c.272.14.513.327.72.562.206.235.367.517.484.847.113.329.17.71.17 1.142zm-1.67-.694c0-.356-.07-.67-.21-.943a1.682 1.682 0 0 0-.58-.642 1.497 1.497 0 0 0-.824-.233h-.926c.05.076.095.18.136.313.038.129.074.274.108.437.03.163.06.326.086.489l.062.443c.042.284.108.532.199.744.09.213.214.377.37.495a.903.903 0 0 0 .567.176c.33 0 .582-.119.756-.358.17-.242.256-.549.256-.921zm-3.54-8.519H39v2.42h-8.73v-2.307h1.54v-.102a2.432 2.432 0 0 1-1.204-.972c-.3-.454-.45-1.005-.45-1.653 0-.606.133-1.135.398-1.585a2.701 2.701 0 0 1 1.137-1.051c.488-.25 1.072-.375 1.75-.375h5.557v2.42h-5.125c-.535-.004-.951.133-1.25.409-.303.277-.455.657-.455 1.142 0 .326.07.614.21.864.14.246.345.439.614.579.265.137.585.207.96.211zm8.318-8.715c0 .307-.024.595-.074.864a3.137 3.137 0 0 1-.176.659l-1.806-.546c.087-.284.134-.539.141-.767a.97.97 0 0 0-.159-.596c-.113-.171-.306-.309-.58-.415l-.368-.142-8.978 3.131v-2.546l6.41-1.807v-.091l-6.41-1.823v-2.563l9.67 3.392c.47.163.88.385 1.228.665.352.276.623.627.813 1.051.193.424.29.936.29 1.534z"/><rect width="352" height="170" x="75.998" y="237.999" fill="#fff" rx="4"/><rect width="351" height="169" x="76.498" y="238.499" stroke="#DCDDE0" stroke-opacity=".6" rx="3.5"/><circle cx="183" cy="307.999" r="18" fill="#F87171"/><circle cx="266" cy="307.999" r="18" fill="#F87171"/><circle cx="322" cy="319.999" r="18" fill="#F87171"/><circle cx="363" cy="380.999" r="18" fill="#F87171"/><circle cx="228" cy="363.999" r="18" fill="#F87171"/><circle cx="142" cy="373.999" r="18" fill="#F87171"/><path fill="#000" d="M158.377 266.999v-11.637h2.46v4.801h4.994v-4.801h2.455v11.637h-2.455v-4.807h-4.994v4.807h-2.46zm11.892 0v-8.728h2.42v8.728h-2.42zm1.216-9.853c-.36 0-.669-.119-.926-.358a1.159 1.159 0 0 1-.381-.869c0-.333.127-.619.381-.858.257-.242.566-.363.926-.363.36 0 .667.121.92.363.258.239.387.525.387.858 0 .337-.129.627-.387.869-.253.239-.56.358-.92.358zm7.075 13.307c-.784 0-1.456-.108-2.017-.324-.557-.212-1-.502-1.329-.869a2.66 2.66 0 0 1-.642-1.239l2.238-.301c.068.174.176.337.324.489.148.151.343.273.585.364.246.094.546.142.898.142.527 0 .96-.129 1.301-.387.345-.254.517-.68.517-1.278v-1.597h-.102a2.296 2.296 0 0 1-.477.688 2.394 2.394 0 0 1-.819.528c-.333.136-.731.205-1.193.205a3.58 3.58 0 0 1-1.789-.455c-.535-.307-.961-.775-1.279-1.403-.314-.633-.471-1.432-.471-2.398 0-.989.16-1.814.482-2.477.322-.663.75-1.159 1.285-1.489a3.318 3.318 0 0 1 1.767-.494c.488 0 .897.083 1.227.25.329.163.595.367.795.613.205.243.362.481.472.716h.091v-1.466h2.403v8.813c0 .742-.182 1.364-.545 1.864-.364.5-.868.875-1.512 1.125-.64.253-1.376.38-2.21.38zm.051-5.398c.39 0 .72-.096.989-.289.273-.197.481-.478.625-.841.148-.368.222-.807.222-1.318 0-.512-.072-.955-.216-1.33-.144-.379-.353-.672-.625-.881-.273-.208-.605-.312-.995-.312-.397 0-.733.108-1.005.324-.273.212-.48.507-.62.886s-.21.816-.21 1.313c0 .503.07.939.21 1.306.144.364.351.646.62.847.272.197.608.295 1.005.295zm8.563-3.102v5.046h-2.421v-11.637h2.353v4.449h.102c.197-.515.515-.918.954-1.21.44-.296.991-.443 1.654-.443.606 0 1.134.132 1.585.397a2.66 2.66 0 0 1 1.057 1.131c.254.489.379 1.074.375 1.756v5.557h-2.421v-5.125c.004-.538-.132-.957-.409-1.256-.272-.299-.655-.449-1.147-.449-.33 0-.622.07-.875.21a1.49 1.49 0 0 0-.591.614c-.14.265-.212.585-.216.96zm13.001-.693v1.92h-5.307v-1.92h5.307zm2.063 5.739v-8.728h2.42v8.728h-2.42zm1.216-9.853c-.36 0-.669-.119-.926-.358a1.159 1.159 0 0 1-.381-.869c0-.333.127-.619.381-.858.257-.242.566-.363.926-.363.36 0 .666.121.92.363.258.239.386.525.386.858 0 .337-.128.627-.386.869-.254.239-.56.358-.92.358zm5.564 4.807v5.046h-2.421v-8.728h2.307v1.54h.102c.193-.507.517-.909.972-1.204.454-.3 1.005-.449 1.653-.449.606 0 1.135.132 1.585.397.451.266.802.644 1.052 1.137.25.488.375 1.072.375 1.75v5.557h-2.421v-5.125c.004-.534-.132-.951-.409-1.25-.276-.303-.657-.455-1.142-.455-.326 0-.614.07-.864.21-.246.14-.439.345-.579.614-.137.265-.207.585-.21.96zm11.51 5.216c-.898 0-1.671-.182-2.319-.545a3.737 3.737 0 0 1-1.488-1.557c-.349-.674-.523-1.472-.523-2.392 0-.898.174-1.686.523-2.364a3.864 3.864 0 0 1 1.471-1.585c.637-.379 1.383-.568 2.239-.568.576 0 1.112.093 1.608.278.5.182.935.457 1.307.824.375.367.666.83.875 1.386.208.553.312 1.201.312 1.944v.664h-7.369v-1.5h5.091a1.86 1.86 0 0 0-.227-.926 1.626 1.626 0 0 0-.631-.63 1.792 1.792 0 0 0-.926-.233 1.87 1.87 0 0 0-.978.255c-.28.167-.5.392-.659.676-.159.281-.24.593-.244.938v1.426c0 .432.08.805.239 1.119.163.315.392.557.687.728.296.17.646.255 1.051.255.269 0 .515-.038.739-.113.223-.076.415-.19.574-.341a1.48 1.48 0 0 0 .363-.557l2.239.148a3.065 3.065 0 0 1-.699 1.409c-.348.397-.799.708-1.352.932-.549.219-1.184.329-1.903.329zm5.585-.17v-8.728h2.346v1.523h.091c.159-.542.426-.951.801-1.227.375-.28.807-.421 1.296-.421.121 0 .252.008.392.023s.263.036.369.063v2.147a4.33 4.33 0 0 0-1.023-.13c-.356 0-.674.077-.954.233a1.706 1.706 0 0 0-.659.636 1.839 1.839 0 0 0-.239.943v4.938h-2.42zm11.626-8.728v1.819h-5.256v-1.819h5.256zm-4.062-2.091h2.42v8.137c0 .223.034.398.102.523a.566.566 0 0 0 .284.255c.125.049.269.074.432.074.114 0 .228-.009.341-.028l.262-.051.38 1.801a6.61 6.61 0 0 1-.511.13c-.22.053-.487.086-.801.097-.584.023-1.095-.055-1.534-.233a2.138 2.138 0 0 1-1.017-.83c-.243-.375-.362-.848-.358-1.42v-8.455zm5.639 10.819v-8.728h2.42v8.728h-2.42zm1.216-9.853c-.36 0-.669-.119-.926-.358a1.159 1.159 0 0 1-.381-.869c0-.333.127-.619.381-.858.257-.242.566-.363.926-.363.36 0 .666.121.92.363.258.239.387.525.387.858 0 .337-.129.627-.387.869-.254.239-.56.358-.92.358zm5.632 10.017c-.557 0-1.053-.096-1.489-.289a2.4 2.4 0 0 1-1.034-.87c-.25-.386-.375-.867-.375-1.443 0-.485.089-.892.267-1.221.178-.33.421-.595.727-.796a3.52 3.52 0 0 1 1.046-.454 7.81 7.81 0 0 1 1.239-.216c.507-.053.916-.103 1.227-.148.31-.049.536-.121.676-.216a.475.475 0 0 0 .21-.42v-.035c0-.359-.113-.638-.341-.835-.223-.197-.541-.295-.954-.295-.436 0-.782.096-1.04.29a1.328 1.328 0 0 0-.511.715l-2.239-.181c.114-.531.337-.989.67-1.375.334-.391.764-.69 1.29-.898.53-.212 1.144-.318 1.841-.318.485 0 .949.057 1.392.17.447.114.843.29 1.188.529.348.238.623.545.824.92.2.371.301.816.301 1.335v5.887h-2.296v-1.211h-.068c-.14.273-.328.514-.562.722a2.597 2.597 0 0 1-.847.483c-.33.114-.71.17-1.142.17zm.693-1.67c.356 0 .671-.07.943-.21.273-.144.487-.337.642-.58.156-.242.233-.517.233-.824v-.926c-.076.049-.18.095-.312.137a6.71 6.71 0 0 1-.438.108c-.163.03-.326.058-.488.085l-.444.062a3.002 3.002 0 0 0-.744.199 1.19 1.19 0 0 0-.494.369.898.898 0 0 0-.176.569c0 .329.119.581.358.755.242.171.549.256.92.256zm8.73-.085-.062.625c-.05.5-.144.998-.284 1.494-.137.5-.281.953-.432 1.358-.148.405-.267.723-.358.955h-1.568l.233-.938c.098-.398.191-.845.278-1.341a11.83 11.83 0 0 0 .165-1.517l.028-.636h2zm12.631-4.648-2.216.136a1.15 1.15 0 0 0-.244-.511 1.3 1.3 0 0 0-.495-.369 1.67 1.67 0 0 0-.721-.142c-.375 0-.692.079-.949.238-.258.156-.387.364-.387.625 0 .209.084.385.25.529.167.144.453.259.858.346l1.58.318c.848.175 1.481.455 1.898.841.416.387.625.894.625 1.523a2.38 2.38 0 0 1-.506 1.506c-.333.432-.792.769-1.375 1.011-.58.239-1.248.358-2.006.358-1.155 0-2.075-.24-2.761-.721a2.813 2.813 0 0 1-1.199-1.978l2.381-.125c.072.353.246.621.523.807.276.182.63.273 1.062.273.424 0 .765-.082 1.023-.245.261-.166.394-.38.397-.642a.664.664 0 0 0-.278-.539c-.182-.144-.462-.254-.841-.33l-1.511-.301c-.852-.17-1.487-.466-1.904-.886-.412-.421-.619-.957-.619-1.608 0-.561.152-1.044.455-1.449.306-.406.736-.718 1.289-.938.557-.219 1.209-.329 1.955-.329 1.102 0 1.97.233 2.602.699.637.466 1.008 1.1 1.114 1.903zm1.723 6.239v-8.728h2.307v1.54h.102c.182-.511.485-.915.909-1.21.424-.296.932-.443 1.523-.443.598 0 1.108.149 1.528.449.421.295.701.697.841 1.204h.091c.178-.5.5-.899.966-1.199.47-.303 1.025-.454 1.665-.454.814 0 1.475.259 1.983.778.511.515.767 1.246.767 2.193v5.87h-2.415v-5.392c0-.485-.129-.849-.386-1.091-.258-.243-.58-.364-.966-.364-.44 0-.783.14-1.029.421-.246.276-.369.642-.369 1.096v5.33h-2.347v-5.444c0-.428-.123-.768-.369-1.022-.242-.254-.562-.381-.96-.381-.269 0-.512.068-.727.205-.213.132-.381.32-.506.562a1.79 1.79 0 0 0-.188.841v5.239h-2.42zm17.082.164c-.557 0-1.053-.096-1.488-.289a2.388 2.388 0 0 1-1.034-.87c-.25-.386-.375-.867-.375-1.443 0-.485.089-.892.267-1.221.178-.33.42-.595.727-.796a3.514 3.514 0 0 1 1.045-.454 7.81 7.81 0 0 1 1.239-.216c.508-.053.917-.103 1.227-.148.311-.049.536-.121.676-.216a.476.476 0 0 0 .211-.42v-.035c0-.359-.114-.638-.341-.835-.224-.197-.542-.295-.955-.295-.435 0-.782.096-1.04.29a1.333 1.333 0 0 0-.511.715l-2.239-.181c.114-.531.337-.989.671-1.375.333-.391.763-.69 1.29-.898.53-.212 1.144-.318 1.84-.318.485 0 .949.057 1.393.17.447.114.842.29 1.187.529.349.238.623.545.824.92.201.371.301.816.301 1.335v5.887h-2.295v-1.211h-.069a2.45 2.45 0 0 1-.562.722 2.587 2.587 0 0 1-.847.483c-.329.114-.71.17-1.142.17zm.693-1.67c.356 0 .671-.07.944-.21.272-.144.486-.337.642-.58.155-.242.233-.517.233-.824v-.926a1.32 1.32 0 0 1-.313.137 6.67 6.67 0 0 1-.437.108c-.163.03-.326.058-.489.085l-.443.062a3.022 3.022 0 0 0-.745.199 1.196 1.196 0 0 0-.494.369.904.904 0 0 0-.176.569c0 .329.119.581.358.755.242.171.549.256.92.256zm8.52-10.131v11.637h-2.42v-11.637h2.42zm4.36 0v11.637h-2.421v-11.637h2.421zm8.858 11.779a3.292 3.292 0 0 1-1.801-.512c-.535-.344-.959-.85-1.273-1.517-.311-.67-.466-1.492-.466-2.466 0-1 .161-1.831.483-2.494.322-.667.75-1.165 1.284-1.494a3.285 3.285 0 0 1 1.767-.5c.489 0 .896.083 1.222.25.329.163.594.367.795.613a3.1 3.1 0 0 1 .466.716h.074v-4.375h2.415v11.637h-2.387v-1.398h-.102a3.161 3.161 0 0 1-.483.722 2.43 2.43 0 0 1-.801.585c-.326.155-.724.233-1.193.233zm.767-1.926c.39 0 .719-.107.988-.319.273-.216.481-.517.625-.903.148-.386.222-.839.222-1.358 0-.519-.072-.97-.216-1.352-.144-.383-.352-.678-.625-.887-.273-.208-.604-.312-.994-.312-.398 0-.733.108-1.006.324-.273.216-.479.515-.619.897-.14.383-.211.826-.211 1.33 0 .508.071.956.211 1.347.144.386.35.689.619.909.273.216.608.324 1.006.324zm10.166 1.954c-.898 0-1.671-.182-2.318-.545a3.746 3.746 0 0 1-1.489-1.557c-.348-.674-.523-1.472-.523-2.392 0-.898.175-1.686.523-2.364a3.866 3.866 0 0 1 1.472-1.585c.636-.379 1.382-.568 2.238-.568.576 0 1.112.093 1.608.278.5.182.936.457 1.307.824.375.367.667.83.875 1.386.208.553.313 1.201.313 1.944v.664h-7.37v-1.5h5.091a1.86 1.86 0 0 0-.227-.926 1.626 1.626 0 0 0-.631-.63 1.792 1.792 0 0 0-.926-.233c-.367 0-.693.085-.977.255a1.79 1.79 0 0 0-.659.676 1.916 1.916 0 0 0-.245.938v1.426c0 .432.08.805.239 1.119.163.315.392.557.688.728.295.17.645.255 1.051.255.269 0 .515-.038.738-.113.224-.076.415-.19.574-.341.159-.152.28-.337.364-.557l2.238.148a3.053 3.053 0 0 1-.698 1.409c-.349.397-.8.708-1.353.932-.549.219-1.183.329-1.903.329zm8.074-.006c-.557 0-1.053-.096-1.489-.289a2.4 2.4 0 0 1-1.034-.87c-.25-.386-.375-.867-.375-1.443 0-.485.089-.892.267-1.221.178-.33.421-.595.727-.796a3.52 3.52 0 0 1 1.046-.454 7.817 7.817 0 0 1 1.238-.216c.508-.053.917-.103 1.228-.148.31-.049.536-.121.676-.216a.475.475 0 0 0 .21-.42v-.035c0-.359-.114-.638-.341-.835-.223-.197-.541-.295-.954-.295-.436 0-.783.096-1.04.29a1.335 1.335 0 0 0-.512.715l-2.238-.181c.113-.531.337-.989.67-1.375.334-.391.764-.69 1.29-.898.53-.212 1.144-.318 1.841-.318.485 0 .949.057 1.392.17.447.114.843.29 1.188.529.348.238.623.545.823.92.201.371.302.816.302 1.335v5.887h-2.296v-1.211h-.068c-.14.273-.328.514-.563.722a2.582 2.582 0 0 1-.846.483c-.33.114-.71.17-1.142.17zm.693-1.67c.356 0 .67-.07.943-.21.273-.144.487-.337.642-.58.155-.242.233-.517.233-.824v-.926c-.076.049-.18.095-.312.137a6.71 6.71 0 0 1-.438.108c-.163.03-.326.058-.489.085l-.443.062a3.002 3.002 0 0 0-.744.199 1.19 1.19 0 0 0-.494.369.898.898 0 0 0-.176.569c0 .329.119.581.357.755.243.171.55.256.921.256zm8.52-10.131v11.637h-2.421v-11.637h2.421zm9.2 5.398-2.216.136a1.15 1.15 0 0 0-.244-.511 1.303 1.303 0 0 0-.494-.369 1.678 1.678 0 0 0-.722-.142c-.375 0-.691.079-.949.238-.257.156-.386.364-.386.625 0 .209.083.385.25.529.166.144.452.259.858.346l1.579.318c.849.175 1.481.455 1.898.841.417.387.625.894.625 1.523a2.38 2.38 0 0 1-.506 1.506c-.333.432-.791.769-1.375 1.011-.579.239-1.248.358-2.005.358-1.156 0-2.076-.24-2.762-.721a2.813 2.813 0 0 1-1.199-1.978l2.381-.125c.072.353.246.621.523.807.276.182.63.273 1.062.273.425 0 .765-.082 1.023-.245.261-.166.394-.38.398-.642a.668.668 0 0 0-.279-.539c-.181-.144-.462-.254-.841-.33l-1.511-.301c-.852-.17-1.487-.466-1.903-.886-.413-.421-.62-.957-.62-1.608 0-.561.152-1.044.455-1.449.307-.406.737-.718 1.29-.938.556-.219 1.208-.329 1.954-.329 1.102 0 1.97.233 2.602.699.637.466 1.008 1.1 1.114 1.903z"/><path fill="#81839F" d="M59.133 53.5a1 1 0 0 1 1.732 0l6.929 12a1 1 0 0 1-.866 1.5H53.07a1 1 0 0 1-.866-1.5l6.928-12zM794.5 423.134a1 1 0 0 1 0 1.732l-12 6.928a1 1 0 0 1-1.5-.866v-13.856a1 1 0 0 1 1.5-.866l12 6.928z"/><g opacity=".25"><rect width="352" height="170" x="75.998" y="60" fill="#fff" rx="4"/><rect width="351" height="169" x="76.498" y="60.5" stroke="#DCDDE0" stroke-opacity=".6" rx="3.5"/><path fill="#000" d="M165.338 89V77.364h2.46v4.8h4.994v-4.8h2.455V89h-2.455v-4.807h-4.994V89h-2.46zm11.892 0v-8.727h2.42V89h-2.42zm1.215-9.852a1.32 1.32 0 0 1-.926-.358 1.163 1.163 0 0 1-.38-.87c0-.333.127-.619.38-.857.258-.243.567-.364.926-.364.36 0 .667.121.921.364.258.238.386.524.386.858 0 .337-.128.626-.386.869a1.297 1.297 0 0 1-.921.358zm7.076 13.307c-.784 0-1.457-.108-2.017-.324-.557-.212-1-.502-1.33-.87a2.682 2.682 0 0 1-.642-1.238l2.239-.301c.068.174.176.337.324.488.147.152.342.273.585.364a2.5 2.5 0 0 0 .898.142c.526 0 .96-.129 1.301-.386.344-.254.517-.68.517-1.279v-1.596h-.103a2.301 2.301 0 0 1-.477.687 2.407 2.407 0 0 1-.818.529c-.333.136-.731.204-1.193.204a3.585 3.585 0 0 1-1.79-.454c-.534-.307-.96-.775-1.278-1.404-.315-.632-.472-1.432-.472-2.398 0-.988.161-1.814.483-2.477.322-.663.75-1.159 1.284-1.489a3.32 3.32 0 0 1 1.767-.494c.489 0 .898.084 1.227.25.33.163.595.368.796.614.204.242.362.48.471.716h.091v-1.466h2.404v8.812c0 .743-.182 1.364-.546 1.864-.363.5-.867.875-1.511 1.125-.64.254-1.377.38-2.21.38zm.051-5.398c.39 0 .72-.097.989-.29.272-.197.481-.477.625-.84.147-.368.221-.808.221-1.319 0-.511-.072-.955-.216-1.33-.144-.378-.352-.672-.625-.88-.273-.209-.604-.313-.994-.313-.398 0-.733.108-1.006.324-.273.212-.479.508-.619.887a3.77 3.77 0 0 0-.21 1.312c0 .504.07.94.21 1.307.144.363.35.646.619.846.273.197.608.296 1.006.296zm8.562-3.102V89h-2.42V77.364h2.352v4.449h.102c.197-.516.516-.919.955-1.21.439-.296.991-.444 1.653-.444.607 0 1.135.133 1.586.398.454.261.806.638 1.056 1.13.254.49.379 1.075.375 1.756V89h-2.42v-5.125c.004-.538-.133-.956-.409-1.256-.273-.299-.655-.448-1.148-.448-.329 0-.621.07-.875.21a1.49 1.49 0 0 0-.591.613c-.14.266-.212.586-.216.96zm13.002-.694v1.92h-5.307v-1.92h5.307zM209.198 89v-8.727h2.421V89h-2.421zm1.216-9.852c-.36 0-.668-.12-.926-.358a1.16 1.16 0 0 1-.381-.87c0-.333.127-.619.381-.857.258-.243.566-.364.926-.364.36 0 .667.121.921.364.257.238.386.524.386.858 0 .337-.129.626-.386.869a1.297 1.297 0 0 1-.921.358zm5.564 4.807V89h-2.42v-8.727h2.307v1.54h.102c.193-.508.517-.91.971-1.205.455-.3 1.006-.449 1.654-.449.606 0 1.134.133 1.585.398.451.265.801.644 1.051 1.136.25.489.375 1.072.375 1.75V89h-2.42v-5.125c.003-.534-.133-.95-.409-1.25-.277-.303-.658-.454-1.142-.454-.326 0-.614.07-.864.21a1.47 1.47 0 0 0-.58.613c-.136.266-.206.586-.21.96zm11.51 5.215c-.898 0-1.67-.181-2.318-.545a3.74 3.74 0 0 1-1.489-1.557c-.348-.674-.522-1.471-.522-2.392 0-.898.174-1.685.522-2.363a3.866 3.866 0 0 1 1.472-1.586c.636-.378 1.382-.568 2.238-.568.576 0 1.112.093 1.608.279.5.181.936.456 1.307.823.375.368.667.83.875 1.387.209.553.313 1.2.313 1.943v.665h-7.37v-1.5h5.091c0-.349-.075-.657-.227-.926a1.624 1.624 0 0 0-.631-.631 1.796 1.796 0 0 0-.926-.233c-.367 0-.693.085-.977.256-.28.166-.5.392-.659.676-.159.28-.241.593-.244.937v1.427c0 .431.079.804.238 1.119.163.314.392.557.688.727.295.17.646.256 1.051.256.269 0 .515-.038.738-.114a1.55 1.55 0 0 0 .574-.34 1.48 1.48 0 0 0 .364-.558l2.239.148a3.063 3.063 0 0 1-.699 1.41 3.513 3.513 0 0 1-1.352.931c-.55.22-1.184.33-1.904.33zm5.585-.17v-8.727h2.347v1.523h.091c.159-.542.426-.951.801-1.228.375-.28.807-.42 1.295-.42a3.635 3.635 0 0 1 .762.085v2.148a3.17 3.17 0 0 0-.472-.091 4.236 4.236 0 0 0-.551-.04 1.94 1.94 0 0 0-.955.233 1.72 1.72 0 0 0-.659.636 1.838 1.838 0 0 0-.238.944V89h-2.421zm11.627-8.727v1.818h-5.256v-1.818h5.256zm-4.063-2.091h2.421v8.136c0 .224.034.398.102.523a.564.564 0 0 0 .284.256c.125.049.269.074.432.074.114 0 .227-.01.341-.029l.261-.051.381 1.801a6.8 6.8 0 0 1-.512.13 4.076 4.076 0 0 1-.801.097c-.583.023-1.094-.055-1.534-.233a2.147 2.147 0 0 1-1.017-.83c-.242-.374-.362-.848-.358-1.42v-8.454zM246.276 89v-8.727h2.421V89h-2.421zm1.216-9.852c-.36 0-.668-.12-.926-.358a1.16 1.16 0 0 1-.38-.87c0-.333.126-.619.38-.857.258-.243.566-.364.926-.364.36 0 .667.121.921.364.257.238.386.524.386.858 0 .337-.129.626-.386.869a1.297 1.297 0 0 1-.921.358zm5.632 10.017c-.556 0-1.053-.097-1.488-.29a2.395 2.395 0 0 1-1.034-.87c-.25-.386-.375-.867-.375-1.442 0-.485.089-.892.267-1.222.178-.33.42-.595.727-.795a3.516 3.516 0 0 1 1.045-.455 7.972 7.972 0 0 1 1.239-.216c.508-.053.917-.102 1.227-.148.311-.049.536-.12.677-.216a.475.475 0 0 0 .21-.42v-.034c0-.36-.114-.638-.341-.835-.224-.197-.542-.296-.955-.296-.435 0-.782.097-1.039.29-.258.19-.428.428-.512.716l-2.238-.182c.113-.53.337-.989.67-1.375.333-.39.763-.69 1.29-.898.53-.212 1.144-.318 1.841-.318.485 0 .949.057 1.392.17.447.114.843.29 1.187.53.349.238.623.544.824.92.201.37.301.816.301 1.335V89h-2.295v-1.21h-.068a2.478 2.478 0 0 1-.563.721 2.603 2.603 0 0 1-.847.483c-.329.114-.71.17-1.142.17zm.694-1.67c.356 0 .67-.07.943-.21a1.68 1.68 0 0 0 .642-.58c.155-.243.233-.517.233-.824v-.926c-.076.049-.18.094-.313.136a5.574 5.574 0 0 1-.437.108c-.163.03-.326.059-.489.085l-.443.063a2.993 2.993 0 0 0-.744.199c-.212.09-.377.214-.495.369a.902.902 0 0 0-.176.568c0 .33.12.581.358.756.243.17.549.255.921.255zm8.73-.085-.063.624c-.049.5-.144.998-.284 1.494-.136.5-.28.953-.432 1.358-.147.406-.267.724-.358.955h-1.568c.057-.223.135-.536.233-.938.099-.397.191-.844.279-1.34.087-.497.142-1.002.164-1.517l.029-.637h2zm5.415 1.59V77.364h2.42v4.375h.074c.106-.235.259-.474.46-.716.205-.246.47-.45.796-.614.329-.166.738-.25 1.227-.25a3.28 3.28 0 0 1 1.761.5c.538.33.968.828 1.29 1.494.322.663.483 1.495.483 2.495 0 .973-.157 1.795-.472 2.466-.31.666-.735 1.172-1.272 1.517a3.27 3.27 0 0 1-1.796.511c-.47 0-.869-.078-1.199-.233a2.473 2.473 0 0 1-.801-.585 2.986 2.986 0 0 1-.477-.722h-.108V89h-2.386zm2.369-4.364c0 .52.072.972.216 1.358.144.387.352.688.625.904.272.212.604.318.994.318.394 0 .727-.108 1-.324.273-.22.479-.523.619-.909.144-.39.216-.839.216-1.347 0-.503-.07-.947-.21-1.33a1.991 1.991 0 0 0-.619-.897c-.273-.216-.608-.324-1.006-.324-.394 0-.727.105-1 .313-.269.208-.475.504-.619.886-.144.383-.216.834-.216 1.352zM278.089 89v-8.727h2.42V89h-2.42zm1.216-9.852c-.36 0-.669-.12-.926-.358a1.16 1.16 0 0 1-.381-.87c0-.333.127-.619.381-.857a1.3 1.3 0 0 1 .926-.364c.36 0 .667.121.92.364.258.238.387.524.387.858 0 .337-.129.626-.387.869-.253.238-.56.358-.92.358zm7.075 13.307c-.784 0-1.456-.108-2.017-.324-.557-.212-1-.502-1.329-.87a2.675 2.675 0 0 1-.643-1.238l2.239-.301c.068.174.176.337.324.488.148.152.343.273.585.364.246.095.546.142.898.142.526 0 .96-.129 1.301-.386.345-.254.517-.68.517-1.279v-1.596h-.102a2.301 2.301 0 0 1-.477.687 2.412 2.412 0 0 1-.819.529c-.333.136-.731.204-1.193.204a3.585 3.585 0 0 1-1.79-.454c-.534-.307-.96-.775-1.278-1.404-.314-.632-.472-1.432-.472-2.398 0-.988.161-1.814.483-2.477.322-.663.75-1.159 1.284-1.489a3.32 3.32 0 0 1 1.768-.494c.488 0 .897.084 1.227.25.329.163.595.368.795.614.205.242.362.48.472.716h.091v-1.466h2.403v8.812c0 .743-.182 1.364-.545 1.864-.364.5-.868.875-1.512 1.125-.64.254-1.377.38-2.21.38zm.051-5.398c.39 0 .72-.097.989-.29.273-.197.481-.477.625-.84.148-.368.221-.808.221-1.319 0-.511-.071-.955-.215-1.33-.144-.378-.353-.672-.625-.88-.273-.209-.605-.313-.995-.313-.397 0-.733.108-1.005.324-.273.212-.48.508-.62.887a3.77 3.77 0 0 0-.21 1.312c0 .504.07.94.21 1.307.144.363.351.646.62.846.272.197.608.296 1.005.296zm13.061 2.085c-.663 0-1.263-.17-1.801-.511-.534-.345-.958-.85-1.273-1.517-.31-.67-.465-1.493-.465-2.466 0-1 .161-1.832.483-2.495.322-.666.75-1.164 1.284-1.494a3.289 3.289 0 0 1 1.767-.5c.488 0 .895.084 1.221.25.33.163.595.368.796.614.204.242.36.48.466.716h.073v-4.375h2.415V89h-2.386v-1.398h-.102a3.144 3.144 0 0 1-.483.722 2.41 2.41 0 0 1-.801.585c-.326.155-.724.233-1.194.233zm.767-1.926c.391 0 .72-.106.989-.318.273-.216.481-.517.625-.904.148-.386.222-.839.222-1.358 0-.518-.072-.97-.216-1.352-.144-.382-.353-.678-.625-.886-.273-.209-.604-.313-.995-.313-.397 0-.733.108-1.005.324-.273.216-.479.515-.62.898-.14.382-.21.826-.21 1.33 0 .507.07.956.21 1.346.144.386.351.69.62.91.272.215.608.323 1.005.323zm10.167 1.954c-.898 0-1.671-.181-2.319-.545a3.731 3.731 0 0 1-1.488-1.557c-.349-.674-.523-1.471-.523-2.392 0-.898.174-1.685.523-2.363a3.863 3.863 0 0 1 1.471-1.586c.637-.378 1.383-.568 2.239-.568.576 0 1.112.093 1.608.279.5.181.936.456 1.307.823.375.368.666.83.875 1.387.208.553.312 1.2.312 1.943v.665h-7.369v-1.5h5.091a1.86 1.86 0 0 0-.227-.926 1.631 1.631 0 0 0-.631-.631 1.799 1.799 0 0 0-.926-.233 1.86 1.86 0 0 0-.978.256c-.28.166-.5.392-.659.676-.159.28-.24.593-.244.937v1.427c0 .431.08.804.239 1.119.163.314.392.557.687.727.296.17.646.256 1.051.256.269 0 .516-.038.739-.114.223-.076.415-.19.574-.34.159-.152.28-.338.363-.558l2.239.148a3.053 3.053 0 0 1-.699 1.41c-.348.397-.799.708-1.352.931-.549.22-1.184.33-1.903.33zm8.073-.005c-.556 0-1.053-.097-1.488-.29a2.395 2.395 0 0 1-1.034-.87c-.25-.386-.375-.867-.375-1.442 0-.485.089-.892.267-1.222.178-.33.42-.595.727-.795a3.516 3.516 0 0 1 1.045-.455 7.972 7.972 0 0 1 1.239-.216c.508-.053.917-.102 1.227-.148.311-.049.536-.12.677-.216a.475.475 0 0 0 .21-.42v-.034c0-.36-.114-.638-.341-.835-.224-.197-.542-.296-.955-.296-.435 0-.782.097-1.039.29-.258.19-.428.428-.512.716l-2.238-.182c.113-.53.337-.989.67-1.375.333-.39.763-.69 1.29-.898.53-.212 1.144-.318 1.841-.318.485 0 .949.057 1.392.17.447.114.843.29 1.187.53.349.238.623.544.824.92.201.37.301.816.301 1.335V89h-2.295v-1.21h-.068a2.478 2.478 0 0 1-.563.721 2.603 2.603 0 0 1-.847.483c-.329.114-.71.17-1.142.17zm.694-1.67c.356 0 .67-.07.943-.21a1.68 1.68 0 0 0 .642-.58c.155-.243.233-.517.233-.824v-.926c-.076.049-.18.094-.313.136a5.574 5.574 0 0 1-.437.108c-.163.03-.326.059-.489.085l-.443.063a2.993 2.993 0 0 0-.744.199c-.212.09-.377.214-.495.369a.902.902 0 0 0-.176.568c0 .33.12.581.358.756.243.17.549.255.921.255zm8.52-10.131V89h-2.421V77.364h2.421zm9.2 5.397-2.216.137a1.146 1.146 0 0 0-.244-.511 1.296 1.296 0 0 0-.495-.37 1.678 1.678 0 0 0-.721-.142c-.375 0-.692.08-.949.239-.258.155-.387.363-.387.625 0 .208.084.384.25.528.167.144.453.26.858.347l1.58.318c.848.174 1.481.454 1.898.84.416.387.625.895.625 1.524 0 .572-.169 1.073-.506 1.505-.333.432-.792.77-1.375 1.012-.58.238-1.248.358-2.006.358-1.155 0-2.075-.241-2.761-.722a2.81 2.81 0 0 1-1.199-1.977l2.381-.125c.072.352.246.62.522.806.277.182.631.273 1.063.273.424 0 .765-.081 1.023-.244.261-.167.394-.38.397-.642a.665.665 0 0 0-.278-.54c-.182-.144-.462-.254-.841-.33l-1.511-.3c-.853-.171-1.487-.467-1.904-.887-.413-.42-.619-.956-.619-1.608 0-.56.152-1.043.455-1.449.306-.405.736-.718 1.289-.937.557-.22 1.209-.33 1.955-.33 1.102 0 1.97.233 2.602.7.637.465 1.008 1.1 1.114 1.903z"/><circle cx="306" cy="132" r="18" fill="#E5E7EB"/><circle cx="277" cy="180" r="18" fill="#E5E7EB"/><circle cx="198" cy="191" r="18" fill="#E5E7EB"/></g><g opacity=".25"><rect width="352" height="170" x="435.998" y="59.999" fill="#fff" rx="4"/><rect width="351" height="169" x="436.498" y="60.499" stroke="#DCDDE0" stroke-opacity=".6" rx="3.5"/><path fill="#000" d="M528.4 89V77.362h2.46v9.608h4.989v2.028H528.4zm12.976.17c-.883 0-1.646-.188-2.29-.563a3.854 3.854 0 0 1-1.483-1.58c-.348-.677-.523-1.463-.523-2.357 0-.902.175-1.69.523-2.364a3.808 3.808 0 0 1 1.483-1.58c.644-.378 1.407-.568 2.29-.568.882 0 1.644.19 2.284.568.644.375 1.14.902 1.489 1.58.348.674.522 1.462.522 2.364 0 .894-.174 1.68-.522 2.358a3.842 3.842 0 0 1-1.489 1.58c-.64.374-1.402.562-2.284.562zm.011-1.875c.402 0 .737-.114 1.006-.341.269-.231.472-.546.608-.944.14-.397.21-.85.21-1.358 0-.507-.07-.96-.21-1.357-.136-.398-.339-.713-.608-.944-.269-.23-.604-.346-1.006-.346-.405 0-.746.115-1.022.346-.273.231-.48.546-.62.944-.136.397-.204.85-.204 1.358 0 .507.068.96.204 1.357.14.398.347.713.62.944.276.227.617.34 1.022.34zM548.748 89l-2.375-8.728h2.449l1.352 5.863h.08l1.409-5.863h2.403l1.432 5.83h.074l1.329-5.83h2.444l-2.37 8.727h-2.562l-1.5-5.489h-.108l-1.5 5.49h-2.557zm17.325-5.74v1.921h-5.307v-1.92h5.307zm2.063 5.74v-8.728h2.42v8.727h-2.42zm1.216-9.853c-.36 0-.669-.12-.926-.358a1.16 1.16 0 0 1-.381-.87c0-.333.127-.619.381-.857a1.3 1.3 0 0 1 .926-.364c.36 0 .666.121.92.364.258.238.387.524.387.858 0 .337-.129.626-.387.869-.254.239-.56.358-.92.358zm5.564 4.807v5.045h-2.421v-8.727h2.307v1.54h.102a2.43 2.43 0 0 1 .972-1.205c.454-.3 1.006-.449 1.653-.449.606 0 1.135.133 1.586.398.45.265.801.644 1.051 1.136.25.489.375 1.072.375 1.75V89h-2.421v-5.125c.004-.534-.132-.95-.409-1.25-.276-.303-.657-.454-1.142-.454-.326 0-.614.07-.864.21-.246.14-.439.345-.579.614-.136.265-.207.585-.21.96zm11.51 5.216c-.898 0-1.671-.182-2.319-.546a3.73 3.73 0 0 1-1.488-1.557c-.349-.674-.523-1.471-.523-2.392 0-.897.174-1.685.523-2.363a3.863 3.863 0 0 1 1.471-1.586c.637-.378 1.383-.568 2.239-.568.576 0 1.112.093 1.608.279.5.181.936.456 1.307.823.375.368.666.83.875 1.387.208.553.312 1.2.312 1.943v.665h-7.369v-1.5h5.091a1.86 1.86 0 0 0-.227-.926 1.631 1.631 0 0 0-.631-.631 1.799 1.799 0 0 0-.926-.233 1.86 1.86 0 0 0-.978.256c-.28.166-.5.392-.659.676-.159.28-.24.593-.244.937v1.426c0 .432.08.805.239 1.12.163.314.392.557.687.727.296.17.646.256 1.051.256.269 0 .516-.038.739-.114.223-.076.415-.19.574-.34.159-.152.28-.338.363-.558l2.239.148a3.053 3.053 0 0 1-.699 1.41c-.348.397-.799.708-1.352.931-.549.22-1.184.33-1.903.33zm5.585-.17v-8.728h2.346v1.523h.091c.159-.542.426-.951.801-1.228.375-.28.807-.42 1.296-.42a3.648 3.648 0 0 1 .761.085v2.148a3.152 3.152 0 0 0-.471-.091 4.249 4.249 0 0 0-.551-.04c-.357 0-.675.078-.955.233a1.712 1.712 0 0 0-.659.636 1.838 1.838 0 0 0-.239.944v4.937h-2.42zm11.626-8.728v1.818h-5.255v-1.818h5.255zm-4.062-2.091h2.42v8.136c0 .224.034.398.102.523a.565.565 0 0 0 .285.256c.125.049.268.074.431.074.114 0 .228-.01.341-.029l.262-.051.38 1.801a6.743 6.743 0 0 1-.511.13 4.11 4.11 0 0 1-.801.097c-.584.023-1.095-.054-1.534-.233a2.137 2.137 0 0 1-1.017-.829c-.243-.375-.362-.849-.358-1.42V78.18zM605.214 89v-8.728h2.42v8.727h-2.42zm1.216-9.853c-.36 0-.669-.12-.926-.358a1.16 1.16 0 0 1-.381-.87c0-.333.127-.619.381-.857a1.3 1.3 0 0 1 .926-.364c.36 0 .667.121.92.364.258.238.387.524.387.858 0 .337-.129.626-.387.869-.253.239-.56.358-.92.358zm5.632 10.017c-.557 0-1.053-.097-1.489-.29a2.4 2.4 0 0 1-1.034-.87c-.25-.386-.375-.867-.375-1.442 0-.485.089-.892.267-1.222.178-.33.421-.595.728-.795a3.505 3.505 0 0 1 1.045-.455 7.984 7.984 0 0 1 1.239-.216c.507-.053.916-.102 1.227-.148.311-.049.536-.12.676-.216a.475.475 0 0 0 .21-.42v-.034c0-.36-.113-.638-.341-.835-.223-.197-.541-.296-.954-.296-.436 0-.782.097-1.04.29a1.33 1.33 0 0 0-.511.716l-2.239-.182c.114-.53.337-.989.67-1.375.334-.39.764-.69 1.29-.898.531-.212 1.144-.318 1.841-.318.485 0 .949.057 1.392.17.447.114.843.29 1.188.53.348.238.623.544.824.92.2.37.301.816.301 1.335v5.886h-2.296v-1.21h-.068c-.14.273-.328.513-.562.721a2.605 2.605 0 0 1-.847.483c-.33.114-.71.17-1.142.17zm.693-1.67c.356 0 .671-.07.943-.21a1.68 1.68 0 0 0 .642-.58 1.49 1.49 0 0 0 .233-.824v-.926c-.075.049-.18.094-.312.136a5.72 5.72 0 0 1-.438.108c-.163.03-.325.059-.488.085a209 209 0 0 0-.444.063 2.993 2.993 0 0 0-.744.199c-.212.09-.377.214-.494.369a.896.896 0 0 0-.176.568c0 .33.119.582.358.756.242.17.549.255.92.255zm8.73-.086-.062.625c-.049.5-.144.998-.284 1.495-.137.5-.281.952-.432 1.357a43.38 43.38 0 0 1-.358.955h-1.568c.057-.223.134-.536.233-.938.098-.397.191-.844.278-1.34.087-.497.142-1.002.165-1.517l.028-.637h2zM626.9 89V77.362h2.42v4.375h.074c.106-.235.26-.474.461-.716.204-.246.469-.45.795-.614.33-.166.739-.25 1.227-.25.637 0 1.224.167 1.762.5.538.33.967.828 1.289 1.495.322.662.483 1.494.483 2.494 0 .973-.157 1.795-.471 2.466-.311.666-.735 1.172-1.273 1.517a3.267 3.267 0 0 1-1.795.511c-.47 0-.87-.078-1.199-.233a2.473 2.473 0 0 1-.801-.585 2.96 2.96 0 0 1-.478-.722h-.108V89H626.9zm2.369-4.365c0 .52.072.972.216 1.358.144.387.353.688.625.904.273.212.604.318.995.318.394 0 .727-.108 1-.324.272-.22.479-.523.619-.909.144-.39.216-.839.216-1.347 0-.503-.07-.947-.21-1.329-.141-.383-.347-.682-.62-.898-.272-.216-.608-.324-1.005-.324-.394 0-.728.105-1 .313-.269.208-.476.504-.62.886-.144.383-.216.834-.216 1.352zM637.026 89v-8.728h2.421v8.727h-2.421zm1.216-9.853c-.36 0-.668-.12-.926-.358a1.16 1.16 0 0 1-.38-.87c0-.333.126-.619.38-.857.258-.243.566-.364.926-.364.36 0 .667.121.921.364.257.238.386.524.386.858 0 .337-.129.626-.386.869a1.297 1.297 0 0 1-.921.358zm7.076 13.307c-.784 0-1.457-.108-2.017-.324-.557-.212-1-.502-1.33-.87a2.673 2.673 0 0 1-.642-1.238l2.239-.301c.068.174.176.337.323.488.148.152.343.273.586.364.246.095.545.142.897.142.527 0 .961-.129 1.302-.386.344-.254.517-.68.517-1.279v-1.596h-.103a2.3 2.3 0 0 1-.477.687 2.407 2.407 0 0 1-.818.529c-.333.136-.731.204-1.193.204a3.582 3.582 0 0 1-1.79-.454c-.534-.307-.96-.775-1.278-1.404-.315-.632-.472-1.432-.472-2.398 0-.988.161-1.814.483-2.477.322-.663.75-1.159 1.284-1.489a3.32 3.32 0 0 1 1.767-.494c.489 0 .898.084 1.227.25.33.163.595.368.796.614.204.242.362.48.471.716h.091v-1.466h2.404v8.812c0 .743-.182 1.364-.546 1.864-.363.5-.867.875-1.511 1.125-.64.254-1.377.38-2.21.38zm.051-5.398c.39 0 .719-.097.988-.29.273-.197.481-.477.625-.84.148-.368.222-.808.222-1.319 0-.511-.072-.954-.216-1.33-.144-.378-.352-.672-.625-.88-.273-.209-.604-.313-.994-.313-.398 0-.733.108-1.006.324-.273.212-.479.508-.619.887a3.77 3.77 0 0 0-.21 1.312c0 .504.07.94.21 1.307.144.364.35.646.619.846.273.197.608.296 1.006.296zm13.061 2.085c-.663 0-1.263-.17-1.801-.511-.534-.345-.959-.85-1.273-1.517-.311-.67-.466-1.493-.466-2.466 0-1 .161-1.832.483-2.495.322-.666.75-1.164 1.284-1.494a3.291 3.291 0 0 1 1.767-.5c.489 0 .896.084 1.222.25.329.163.594.368.795.614.205.242.36.48.466.716h.074v-4.375h2.415v11.636h-2.387v-1.398h-.102a3.142 3.142 0 0 1-.483.722 2.39 2.39 0 0 1-.801.585c-.326.156-.723.233-1.193.233zm.767-1.926c.39 0 .72-.106.989-.318.272-.216.481-.517.625-.904.147-.386.221-.839.221-1.358 0-.518-.072-.97-.216-1.352-.144-.382-.352-.678-.625-.886-.273-.209-.604-.313-.994-.313-.398 0-.733.108-1.006.324-.273.216-.479.515-.619.898s-.21.826-.21 1.33c0 .507.07.956.21 1.346.144.386.35.69.619.91.273.215.608.323 1.006.323zm10.166 1.955c-.898 0-1.67-.182-2.318-.546a3.739 3.739 0 0 1-1.489-1.557c-.348-.674-.522-1.471-.522-2.392 0-.897.174-1.685.522-2.363a3.866 3.866 0 0 1 1.472-1.586c.636-.378 1.382-.568 2.238-.568.576 0 1.112.093 1.608.279.5.181.936.456 1.307.823.375.368.667.83.875 1.387.209.553.313 1.2.313 1.943v.665h-7.37v-1.5h5.091c0-.349-.075-.657-.227-.926a1.624 1.624 0 0 0-.631-.631 1.796 1.796 0 0 0-.926-.233c-.367 0-.693.085-.977.256-.28.166-.5.392-.659.676-.159.28-.241.593-.244.937v1.426c0 .432.079.805.238 1.12.163.314.392.557.688.727.295.17.646.256 1.051.256.269 0 .515-.038.738-.114a1.55 1.55 0 0 0 .574-.34 1.48 1.48 0 0 0 .364-.558l2.239.148a3.063 3.063 0 0 1-.699 1.41 3.51 3.51 0 0 1-1.353.931c-.549.22-1.183.33-1.903.33zm8.074-.006c-.557 0-1.053-.097-1.489-.29a2.4 2.4 0 0 1-1.034-.87c-.25-.386-.375-.867-.375-1.442 0-.485.089-.892.267-1.222.178-.33.421-.595.728-.795a3.505 3.505 0 0 1 1.045-.455 7.984 7.984 0 0 1 1.239-.216c.507-.053.916-.102 1.227-.148.311-.049.536-.12.676-.216a.475.475 0 0 0 .21-.42v-.034c0-.36-.113-.638-.341-.835-.223-.197-.541-.296-.954-.296-.436 0-.782.097-1.04.29a1.33 1.33 0 0 0-.511.716l-2.239-.182c.114-.53.337-.989.67-1.375.334-.39.764-.69 1.29-.898.531-.212 1.144-.318 1.841-.318.485 0 .949.057 1.392.17.447.114.843.29 1.188.53.348.238.623.544.824.92.2.37.301.816.301 1.335v5.886h-2.296v-1.21h-.068c-.14.273-.328.513-.562.721a2.605 2.605 0 0 1-.847.483c-.33.114-.71.17-1.142.17zm.693-1.67c.356 0 .671-.07.943-.21a1.68 1.68 0 0 0 .642-.58 1.49 1.49 0 0 0 .233-.824v-.926c-.075.049-.18.094-.312.136a5.72 5.72 0 0 1-.438.108c-.163.03-.325.059-.488.085a209 209 0 0 0-.444.063 2.993 2.993 0 0 0-.744.199c-.212.09-.377.214-.494.369a.896.896 0 0 0-.176.568c0 .33.119.582.358.756.242.17.549.255.92.255zm8.52-10.131v11.636h-2.42V77.363h2.42zm9.2 5.397-2.216.137a1.136 1.136 0 0 0-.244-.512 1.3 1.3 0 0 0-.494-.369 1.683 1.683 0 0 0-.722-.142c-.375 0-.691.08-.949.239-.257.155-.386.363-.386.625 0 .208.083.384.25.528.167.144.453.26.858.347l1.579.318c.849.174 1.481.454 1.898.84.417.387.625.895.625 1.524a2.37 2.37 0 0 1-.506 1.505c-.333.432-.791.77-1.375 1.012-.579.238-1.248.358-2.005.358-1.155 0-2.076-.24-2.762-.722a2.812 2.812 0 0 1-1.198-1.977l2.38-.125c.072.352.246.62.523.806.277.182.631.273 1.062.273.425 0 .766-.081 1.023-.244.262-.167.394-.38.398-.642a.67.67 0 0 0-.278-.54c-.182-.144-.463-.254-.841-.33l-1.512-.3c-.852-.171-1.486-.466-1.903-.887-.413-.42-.619-.956-.619-1.608 0-.56.151-1.043.454-1.449.307-.405.737-.718 1.29-.937.557-.22 1.208-.33 1.954-.33 1.103 0 1.97.233 2.603.7.636.465 1.007 1.1 1.113 1.902z"/><circle cx="534.998" cy="173" r="18" fill="#E5E7EB"/><circle cx="611.999" cy="137" r="18" fill="#E5E7EB"/><circle cx="688.998" cy="137" r="18" fill="#E5E7EB"/><circle cx="687.998" cy="182" r="18" fill="#E5E7EB"/></g><g opacity=".25"><rect width="352" height="170" x="435.998" y="237.999" fill="#fff" rx="4"/><rect width="351" height="169" x="436.498" y="238.499" stroke="#DCDDE0" stroke-opacity=".6" rx="3.5"/><path fill="#000" d="M520.439 266.999v-11.636h2.46v9.608h4.989v2.028h-7.449zm12.976.171c-.883 0-1.646-.188-2.29-.563a3.855 3.855 0 0 1-1.483-1.579c-.348-.678-.523-1.464-.523-2.358 0-.902.175-1.69.523-2.364a3.81 3.81 0 0 1 1.483-1.58c.644-.378 1.407-.568 2.29-.568s1.644.19 2.284.568c.644.375 1.14.902 1.489 1.58.348.674.522 1.462.522 2.364 0 .894-.174 1.68-.522 2.358a3.843 3.843 0 0 1-1.489 1.579c-.64.375-1.401.563-2.284.563zm.011-1.875c.402 0 .737-.114 1.006-.341.269-.231.472-.546.608-.944.14-.397.21-.85.21-1.357 0-.508-.07-.961-.21-1.358-.136-.398-.339-.713-.608-.944-.269-.231-.604-.346-1.006-.346-.405 0-.746.115-1.022.346-.273.231-.48.546-.62.944-.136.397-.204.85-.204 1.358 0 .507.068.96.204 1.357.14.398.347.713.62.944.276.227.617.341 1.022.341zm7.361 1.704-2.375-8.727h2.449l1.352 5.863h.08l1.409-5.863h2.403l1.432 5.829h.074l1.33-5.829h2.443l-2.37 8.727h-2.562l-1.5-5.489h-.108l-1.5 5.489h-2.557zm17.325-5.739v1.921h-5.306v-1.921h5.306zm2.063 5.739v-8.727h2.42v8.727h-2.42zm1.216-9.852c-.36 0-.669-.119-.926-.358a1.16 1.16 0 0 1-.381-.869c0-.334.127-.62.381-.858a1.3 1.3 0 0 1 .926-.364c.36 0 .666.121.92.364.258.238.387.524.387.858 0 .337-.129.626-.387.869-.254.239-.56.358-.92.358zm5.564 4.807v5.045h-2.421v-8.727h2.307v1.54h.102a2.44 2.44 0 0 1 .972-1.205c.454-.299 1.006-.449 1.653-.449.606 0 1.135.133 1.586.398.45.265.801.644 1.051 1.136.25.489.375 1.072.375 1.75v5.557h-2.421v-5.125c.004-.534-.132-.951-.409-1.25-.276-.303-.657-.454-1.142-.454-.326 0-.614.07-.864.21-.246.14-.439.345-.579.613-.136.266-.207.586-.21.961zm11.51 5.216c-.898 0-1.671-.182-2.319-.546a3.732 3.732 0 0 1-1.488-1.557c-.349-.674-.523-1.471-.523-2.392 0-.897.174-1.685.523-2.363a3.867 3.867 0 0 1 1.471-1.586c.637-.378 1.383-.568 2.239-.568.576 0 1.112.093 1.608.279.5.181.936.456 1.307.823.375.368.666.83.875 1.387.208.553.312 1.201.312 1.943v.665h-7.369v-1.5h5.091c0-.349-.076-.657-.227-.926a1.635 1.635 0 0 0-.631-.631 1.802 1.802 0 0 0-.926-.233c-.368 0-.693.085-.977.256-.281.166-.5.392-.66.676-.159.28-.24.593-.244.937v1.426c0 .432.08.805.239 1.12.163.314.392.557.687.727.296.171.646.256 1.051.256.269 0 .516-.038.739-.114.224-.076.415-.189.574-.341.159-.151.28-.337.364-.557l2.238.148a3.04 3.04 0 0 1-.699 1.409c-.348.398-.799.709-1.352.932-.549.22-1.184.33-1.903.33zm5.585-.171v-8.727h2.346v1.523h.091c.159-.542.427-.951.802-1.228.375-.28.806-.42 1.295-.42a3.457 3.457 0 0 1 .761.085v2.148a3.1 3.1 0 0 0-.471-.091 4.164 4.164 0 0 0-.551-.04 1.94 1.94 0 0 0-.955.233 1.727 1.727 0 0 0-.659.636 1.842 1.842 0 0 0-.239.944v4.937h-2.42zm11.626-8.727v1.818h-5.255v-1.818h5.255zm-4.062-2.091h2.42v8.136c0 .224.034.398.103.523a.565.565 0 0 0 .284.256c.125.049.269.074.431.074.114 0 .228-.01.341-.029l.262-.051.38 1.801a6.531 6.531 0 0 1-.511.131c-.22.053-.487.085-.801.096-.583.023-1.095-.054-1.534-.233a2.136 2.136 0 0 1-1.017-.829c-.243-.375-.362-.849-.358-1.421v-8.454zm5.639 10.818v-8.727h2.42v8.727h-2.42zm1.216-9.852c-.36 0-.669-.119-.926-.358a1.16 1.16 0 0 1-.381-.869c0-.334.127-.62.381-.858a1.3 1.3 0 0 1 .926-.364c.36 0 .667.121.92.364.258.238.387.524.387.858 0 .337-.129.626-.387.869-.253.239-.56.358-.92.358zm5.632 10.017c-.557 0-1.053-.097-1.489-.29a2.404 2.404 0 0 1-1.034-.869c-.25-.387-.375-.868-.375-1.443 0-.485.089-.892.267-1.222.178-.33.421-.595.728-.795a3.505 3.505 0 0 1 1.045-.455 8.043 8.043 0 0 1 1.239-.216c.507-.053.916-.102 1.227-.148.311-.049.536-.121.676-.216a.473.473 0 0 0 .21-.42v-.034c0-.36-.113-.638-.341-.835-.223-.197-.541-.296-.954-.296-.436 0-.782.097-1.04.29a1.332 1.332 0 0 0-.511.716l-2.239-.182a3.04 3.04 0 0 1 .671-1.375c.333-.39.763-.689 1.289-.898.531-.212 1.144-.318 1.841-.318.485 0 .949.057 1.392.171.447.113.843.289 1.188.528.348.239.623.546.824.921.2.371.301.816.301 1.335v5.886h-2.296v-1.21h-.068c-.14.273-.327.513-.562.721a2.587 2.587 0 0 1-.847.483c-.329.114-.71.171-1.142.171zm.693-1.671c.356 0 .671-.07.943-.21a1.67 1.67 0 0 0 .642-.579 1.49 1.49 0 0 0 .233-.824v-.926c-.075.049-.18.094-.312.136a5.628 5.628 0 0 1-.438.108c-.162.03-.325.059-.488.085l-.443.063a2.955 2.955 0 0 0-.745.199c-.212.09-.377.214-.494.369a.901.901 0 0 0-.176.568c0 .33.119.582.358.756.242.17.549.255.92.255zm8.73-.085-.062.625c-.049.5-.144.998-.284 1.495-.137.5-.281.952-.432 1.357-.148.406-.267.724-.358.955h-1.568c.057-.223.134-.536.233-.937.098-.398.191-.845.278-1.341.087-.497.142-1.002.165-1.517l.028-.637h2zm12.631-4.648-2.216.137a1.148 1.148 0 0 0-.244-.512 1.3 1.3 0 0 0-.495-.369 1.67 1.67 0 0 0-.721-.142c-.375 0-.691.08-.949.239-.258.155-.386.363-.386.625 0 .208.083.384.25.528.166.144.452.26.858.347l1.579.318c.849.174 1.481.454 1.898.841.417.386.625.894.625 1.523 0 .572-.169 1.073-.506 1.505-.333.432-.791.769-1.375 1.012-.579.238-1.248.358-2.006.358-1.155 0-2.075-.241-2.761-.722a2.813 2.813 0 0 1-1.199-1.977l2.381-.125c.072.352.246.621.523.807.276.181.63.272 1.062.272.424 0 .765-.081 1.023-.244.261-.167.394-.381.398-.642a.668.668 0 0 0-.279-.54c-.182-.144-.462-.254-.841-.329l-1.511-.302c-.852-.17-1.487-.465-1.903-.886-.413-.42-.62-.956-.62-1.608 0-.56.152-1.043.455-1.449.307-.405.737-.718 1.29-.937.556-.22 1.208-.33 1.954-.33 1.102 0 1.97.233 2.602.699.637.466 1.008 1.1 1.114 1.903zm1.723 6.239v-8.727h2.307v1.54h.102c.182-.512.485-.915.909-1.211.424-.295.932-.443 1.523-.443.598 0 1.108.15 1.528.449.421.296.701.697.841 1.205h.091c.178-.5.5-.9.966-1.199.47-.303 1.025-.455 1.665-.455.814 0 1.475.26 1.983.779.511.515.767 1.246.767 2.193v5.869h-2.415v-5.392c0-.485-.129-.848-.386-1.091-.258-.242-.58-.363-.966-.363-.44 0-.782.14-1.029.42-.246.277-.369.642-.369 1.097v5.329h-2.347v-5.443c0-.428-.123-.769-.369-1.023-.242-.254-.562-.38-.96-.38-.269 0-.511.068-.727.204-.212.133-.381.32-.506.563a1.785 1.785 0 0 0-.188.84v5.239h-2.42zm17.082.165c-.556 0-1.053-.097-1.488-.29a2.393 2.393 0 0 1-1.034-.869c-.25-.387-.375-.868-.375-1.443 0-.485.089-.892.267-1.222.178-.33.42-.595.727-.795a3.516 3.516 0 0 1 1.045-.455 8.043 8.043 0 0 1 1.239-.216c.508-.053.917-.102 1.227-.148.311-.049.536-.121.676-.216a.471.471 0 0 0 .211-.42v-.034c0-.36-.114-.638-.341-.835-.224-.197-.542-.296-.955-.296-.435 0-.782.097-1.04.29a1.332 1.332 0 0 0-.511.716l-2.239-.182a3.05 3.05 0 0 1 .671-1.375c.333-.39.763-.689 1.29-.898.53-.212 1.144-.318 1.841-.318.484 0 .948.057 1.392.171a3.62 3.62 0 0 1 1.187.528c.349.239.623.546.824.921.201.371.301.816.301 1.335v5.886h-2.295v-1.21h-.068a2.466 2.466 0 0 1-.563.721 2.587 2.587 0 0 1-.847.483c-.329.114-.71.171-1.142.171zm.694-1.671c.356 0 .67-.07.943-.21.272-.144.486-.337.642-.579.155-.243.233-.517.233-.824v-.926c-.076.049-.18.094-.313.136a5.596 5.596 0 0 1-.437.108c-.163.03-.326.059-.489.085l-.443.063a2.959 2.959 0 0 0-.744.199c-.213.09-.377.214-.495.369a.901.901 0 0 0-.176.568c0 .33.119.582.358.756.243.17.549.255.921.255zm8.519-10.13v11.636h-2.42v-11.636h2.42zm4.36 0v11.636h-2.421v-11.636h2.421zm8.858 11.778c-.663 0-1.263-.17-1.801-.511-.534-.345-.959-.851-1.273-1.517-.311-.671-.466-1.493-.466-2.466 0-1 .161-1.832.483-2.494.322-.667.75-1.165 1.284-1.495a3.294 3.294 0 0 1 1.767-.5c.489 0 .896.084 1.222.25.329.163.594.368.795.614.205.242.36.481.466.716h.074v-4.375h2.415v11.636h-2.387v-1.398h-.102a3.14 3.14 0 0 1-.483.722c-.204.235-.471.43-.801.585-.326.156-.724.233-1.193.233zm.767-1.926c.39 0 .72-.106.988-.318.273-.216.482-.517.625-.904.148-.386.222-.839.222-1.358 0-.518-.072-.969-.216-1.352-.144-.382-.352-.678-.625-.886-.273-.208-.604-.313-.994-.313-.398 0-.733.108-1.006.324-.273.216-.479.515-.619.898s-.21.826-.21 1.329c0 .508.07.957.21 1.347.144.386.35.689.619.909.273.216.608.324 1.006.324zm10.166 1.955c-.898 0-1.67-.182-2.318-.546a3.734 3.734 0 0 1-1.489-1.557c-.348-.674-.523-1.471-.523-2.392 0-.897.175-1.685.523-2.363a3.87 3.87 0 0 1 1.472-1.586c.636-.378 1.382-.568 2.238-.568.576 0 1.112.093 1.608.279.5.181.936.456 1.307.823.375.368.667.83.875 1.387.209.553.313 1.201.313 1.943v.665h-7.37v-1.5h5.091c0-.349-.075-.657-.227-.926a1.629 1.629 0 0 0-.631-.631 1.802 1.802 0 0 0-.926-.233c-.367 0-.693.085-.977.256-.28.166-.5.392-.659.676-.159.28-.241.593-.244.937v1.426c0 .432.079.805.238 1.12.163.314.392.557.688.727.295.171.645.256 1.051.256.269 0 .515-.038.738-.114a1.474 1.474 0 0 0 .938-.898l2.239.148a3.06 3.06 0 0 1-.699 1.409c-.349.398-.8.709-1.353.932-.549.22-1.183.33-1.903.33zm8.074-.006c-.557 0-1.053-.097-1.489-.29a2.404 2.404 0 0 1-1.034-.869c-.25-.387-.375-.868-.375-1.443 0-.485.089-.892.267-1.222.178-.33.421-.595.727-.795a3.522 3.522 0 0 1 1.046-.455 8.043 8.043 0 0 1 1.239-.216c.507-.053.916-.102 1.227-.148.31-.049.536-.121.676-.216a.473.473 0 0 0 .21-.42v-.034c0-.36-.113-.638-.341-.835-.223-.197-.541-.296-.954-.296-.436 0-.782.097-1.04.29a1.327 1.327 0 0 0-.511.716l-2.239-.182c.114-.53.337-.989.67-1.375.334-.39.764-.689 1.29-.898.531-.212 1.144-.318 1.841-.318.485 0 .949.057 1.392.171.447.113.843.289 1.188.528.348.239.623.546.824.921.2.371.301.816.301 1.335v5.886h-2.296v-1.21h-.068c-.14.273-.328.513-.562.721a2.597 2.597 0 0 1-.847.483 3.49 3.49 0 0 1-1.142.171zm.693-1.671c.356 0 .671-.07.943-.21a1.67 1.67 0 0 0 .642-.579 1.49 1.49 0 0 0 .233-.824v-.926c-.076.049-.18.094-.312.136a5.628 5.628 0 0 1-.438.108c-.163.03-.325.059-.488.085l-.444.063a2.959 2.959 0 0 0-.744.199c-.212.09-.377.214-.494.369a.895.895 0 0 0-.176.568c0 .33.119.582.358.756.242.17.549.255.92.255zm8.52-10.13v11.636h-2.42v-11.636h2.42zm9.2 5.397-2.216.137a1.148 1.148 0 0 0-.244-.512 1.303 1.303 0 0 0-.494-.369 1.678 1.678 0 0 0-.722-.142c-.375 0-.691.08-.949.239-.257.155-.386.363-.386.625 0 .208.083.384.25.528.167.144.453.26.858.347l1.579.318c.849.174 1.481.454 1.898.841.417.386.625.894.625 1.523a2.37 2.37 0 0 1-.506 1.505c-.333.432-.791.769-1.375 1.012-.579.238-1.248.358-2.005.358-1.156 0-2.076-.241-2.762-.722a2.812 2.812 0 0 1-1.198-1.977l2.38-.125c.072.352.246.621.523.807.276.181.631.272 1.062.272.425 0 .766-.081 1.023-.244.262-.167.394-.381.398-.642a.668.668 0 0 0-.279-.54c-.181-.144-.462-.254-.84-.329l-1.512-.302c-.852-.17-1.487-.465-1.903-.886-.413-.42-.62-.956-.62-1.608 0-.56.152-1.043.455-1.449.307-.405.737-.718 1.29-.937.557-.22 1.208-.33 1.954-.33 1.103 0 1.97.233 2.603.699.636.466 1.007 1.1 1.113 1.903z"/><circle cx="724.999" cy="302.999" r="18" fill="#E5E7EB"/><circle cx="703" cy="364.999" r="18" fill="#E5E7EB"/><circle cx="500" cy="360.999" r="18" fill="#E5E7EB"/><circle cx="639" cy="330.999" r="18" fill="#E5E7EB"/></g></svg>